<?xml version="1.0" encoding="UTF-8" standalone="no"?>
<!-- Created with Inkscape (http://www.inkscape.org/) -->

<svg
   xmlns:dc="http://purl.org/dc/elements/1.1/"
   xmlns:cc="http://creativecommons.org/ns#"
   xmlns:rdf="http://www.w3.org/1999/02/22-rdf-syntax-ns#"
   xmlns:svg="http://www.w3.org/2000/svg"
   xmlns="http://www.w3.org/2000/svg"
   xmlns:sodipodi="http://sodipodi.sourceforge.net/DTD/sodipodi-0.dtd"
   xmlns:inkscape="http://www.inkscape.org/namespaces/inkscape"
   id="svg3014"
   version="1.1"
   inkscape:version="0.48.5 r10040"
   width="300"
   height="160"
   xml:space="preserve"
   sodipodi:docname="Faltblatt.svg"><metadata
     id="metadata3020"><rdf:RDF><cc:Work
         rdf:about=""><dc:format>image/svg+xml</dc:format><dc:type
           rdf:resource="http://purl.org/dc/dcmitype/StillImage" /><dc:title></dc:title></cc:Work></rdf:RDF></metadata><defs
     id="defs3018"><clipPath
       clipPathUnits="userSpaceOnUse"
       id="clipPath3424"><path
         d="m 786.098,527.445 66.229,0 0,34.74 -66.229,0 0,-34.74 z"
         id="path3426"
         inkscape:connector-curvature="0" /></clipPath></defs><sodipodi:namedview
     pagecolor="#ffffff"
     bordercolor="#666666"
     borderopacity="1"
     objecttolerance="10"
     gridtolerance="10"
     guidetolerance="10"
     inkscape:pageopacity="0"
     inkscape:pageshadow="2"
     inkscape:window-width="1381"
     inkscape:window-height="860"
     id="namedview3016"
     showgrid="false"
     inkscape:zoom="2.4593572"
     inkscape:cx="138.99865"
     inkscape:cy="108.81934"
     inkscape:window-x="0"
     inkscape:window-y="0"
     inkscape:window-maximized="0"
     inkscape:current-layer="g3022" /><g
     id="g3022"
     inkscape:groupmode="layer"
     inkscape:label="Faltblatt"
     transform="matrix(1.25,0,0,-1.25,0,160.00003)"><g
       id="g3420"
       transform="matrix(3.5029972,0,0,3.5029972,-2749.6991,-1844.4854)"><g
         id="g3422"
         clip-path="url(#clipPath3424)"><g
           id="g3428"
           transform="translate(794.7247,550.1068)"><path
             d="M 0,0 C 0.001,-1.646 0.003,-3.696 -0.884,-4.62 -1.527,-5.279 -2.4,-5.601 -3.555,-5.601 l -2.895,0 0,11.28 2.895,0 c 1.155,0 2.028,-0.322 2.669,-0.981 C 0.002,3.774 0.001,2.063 0,0.407 L -0.001,0.203 0,0 z M 2.176,0.203 2.177,0.502 C 2.18,2.468 2.185,4.696 0.642,6.239 -0.307,7.187 -1.666,7.69 -3.287,7.69 l -5.34,0 0,-15.303 5.34,0 c 1.621,0 2.98,0.502 3.929,1.452 1.543,1.542 1.538,4.051 1.535,6.066 L 2.176,0.203 z"
             style="fill:#4a4a4b;fill-opacity:1;fill-rule:nonzero;stroke:none"
             id="path3430"
             inkscape:connector-curvature="0" /></g><g
           id="g3432"
           transform="translate(802.1627,549.2841)"><path
             d="m 0,0 3.699,0 c 1.657,0 2.648,-0.889 2.648,-2.379 0,-1.479 -1.015,-2.399 -2.648,-2.399 L 0,-4.778 0,0 z m 3.534,2.011 -3.534,0 0,4.49 3.534,0 c 2.333,0 2.585,-1.563 2.585,-2.234 0,-2.035 -1.808,-2.256 -2.585,-2.256 M 6.54,1.074 c 1.084,0.653 1.756,1.851 1.756,3.213 0,2.566 -1.821,4.225 -4.638,4.225 l -5.835,0 0,-15.303 6.02,0 c 2.887,0 4.68,1.676 4.68,4.371 0,1.532 -0.73,2.796 -1.983,3.494"
             style="fill:#4a4a4b;fill-opacity:1;fill-rule:nonzero;stroke:none"
             id="path3434"
             inkscape:connector-curvature="0" /></g><g
           id="g3436"
           transform="translate(822.2524,557.7964)"><path
             d="m 0,0 0,-10.024 c 0,-2.06 -1.282,-3.39 -3.265,-3.39 -1.973,0 -3.246,1.33 -3.246,3.39 l 0,10.024 -2.177,0 0,-10.149 c 0,-3.057 2.28,-5.277 5.423,-5.277 3.153,0 5.442,2.22 5.442,5.277 L 2.177,0 0,0 z"
             style="fill:#4a4a4b;fill-opacity:1;fill-rule:nonzero;stroke:none"
             id="path3438"
             inkscape:connector-curvature="0" /></g><g
           id="g3440"
           transform="translate(837.8243,543.3049)"><path
             d="m 0,0 c -2.562,1.243 -4.326,3.854 -4.326,6.876 0,4.224 3.446,7.648 7.698,7.648 0.813,0 1.597,-0.126 2.333,-0.359 l 1.618,4.083 C 6.11,18.657 4.812,18.881 3.46,18.881 -3.191,18.881 -8.583,13.524 -8.583,6.917 -8.583,1.504 -4.964,-3.066 0,-4.543 L 0,0 z"
             style="fill:#87bd63;fill-opacity:1;fill-rule:nonzero;stroke:none"
             id="path3442"
             inkscape:connector-curvature="0" /></g><g
           id="g3444"
           transform="translate(852.3243,533.2695)"><path
             d="m 0,0 c -3.471,-1.003 -7.09,-1.52 -10.759,-1.52 -5.705,0 -11.194,1.213 -16.315,3.603 -5.696,2.659 -11.797,4.007 -18.136,4.007 -7.396,0 -14.614,-1.89 -21.001,-5.48 l 0,-5.022 0.544,0.342 c 6.116,3.831 13.19,5.855 20.457,5.855 5.705,0 11.194,-1.212 16.315,-3.602 5.696,-2.659 11.797,-4.007 18.136,-4.007 3.656,0 7.269,0.463 10.759,1.363 L 0,0 z"
             style="fill:#00aae0;fill-opacity:1;fill-rule:nonzero;stroke:none"
             id="path3446"
             inkscape:connector-curvature="0" /></g><g
           id="g3448"
           transform="translate(846.108,559.098)"><path
             d="m 0,0 -1.665,-4.2 c 2.028,-1.13 3.398,-3.284 3.398,-5.758 0,-3.646 -2.975,-6.603 -6.645,-6.603 -0.575,0 -1.132,0.074 -1.664,0.209 l 0,-4.349 0,-4.818 c 0.576,-0.06 1.16,-0.091 1.752,-0.091 0.878,0 1.74,0.068 2.58,0.197 l 0,4.877 c 4.855,1.155 8.463,5.491 8.463,10.667 0,4.34 -2.538,8.09 -6.219,9.869"
             style="fill:#54924a;fill-opacity:1;fill-rule:nonzero;stroke:none"
             id="path3450"
             inkscape:connector-curvature="0" /></g><g
           id="g3452"
           transform="translate(788.2012,522.591)"><path
             d="m 0,0 c -0.208,0.214 -0.478,0.292 -0.787,0.292 l -0.872,0 0,-3.239 0.872,0 c 0.309,0 0.579,0.079 0.787,0.293 0.275,0.287 0.264,0.883 0.264,1.372 C 0.264,-0.793 0.275,-0.287 0,0 M 0.298,-2.958 C 0.056,-3.2 -0.298,-3.329 -0.714,-3.329 l -1.372,0 0,4.004 1.372,0 c 0.416,0 0.77,-0.129 1.012,-0.372 0.416,-0.415 0.393,-1.028 0.393,-1.585 0,-0.557 0.023,-1.26 -0.393,-1.676"
             style="fill:#4a4a4b;fill-opacity:1;fill-rule:nonzero;stroke:none"
             id="path3454"
             inkscape:connector-curvature="0" /></g><g
           id="g3456"
           transform="translate(791.4579,521.3036)"><path
             d="M 0,0 C -0.107,0.253 -0.354,0.415 -0.647,0.415 -0.939,0.415 -1.186,0.253 -1.293,0 -1.355,-0.152 -1.366,-0.237 -1.377,-0.461 l 1.462,0 C 0.073,-0.237 0.062,-0.152 0,0 m -1.377,-0.765 c 0,-0.607 0.286,-0.956 0.815,-0.956 0.32,0 0.506,0.096 0.725,0.315 l 0.276,-0.242 c -0.281,-0.281 -0.54,-0.427 -1.012,-0.427 -0.731,0 -1.209,0.439 -1.209,1.417 0,0.894 0.433,1.417 1.135,1.417 0.715,0 1.136,-0.517 1.136,-1.338 l 0,-0.186 -1.866,0 z"
             style="fill:#4a4a4b;fill-opacity:1;fill-rule:nonzero;stroke:none"
             id="path3458"
             inkscape:connector-curvature="0" /></g><g
           id="g3460"
           transform="translate(794.5573,519.2621)"><path
             d="m 0,0 0,0.31 c -0.197,-0.225 -0.472,-0.344 -0.782,-0.344 -0.298,0 -0.545,0.091 -0.714,0.259 -0.197,0.191 -0.281,0.456 -0.281,0.776 l 0,1.766 0.405,0 0,-1.704 c 0,-0.489 0.259,-0.737 0.675,-0.737 0.416,0 0.691,0.253 0.691,0.737 l 0,1.704 0.405,0 L 0.399,0 0,0 z"
             style="fill:#4a4a4b;fill-opacity:1;fill-rule:nonzero;stroke:none"
             id="path3462"
             inkscape:connector-curvature="0" /></g><g
           id="g3464"
           transform="translate(796.7456,519.2621)"><path
             d="m 0,0 c -0.472,0 -0.709,0.332 -0.709,0.743 l 0,1.697 -0.348,0 0,0.31 0.348,0 0,0.866 0.405,0 0,-0.866 0.591,0 0,-0.31 -0.591,0 0,-1.686 c 0,-0.253 0.118,-0.405 0.377,-0.405 l 0.214,0 L 0.287,0 0,0 z"
             style="fill:#4a4a4b;fill-opacity:1;fill-rule:nonzero;stroke:none"
             id="path3466"
             inkscape:connector-curvature="0" /></g><g
           id="g3468"
           transform="translate(798.7084,519.2285)"><path
             d="m 0,0 c -0.467,0 -0.832,0.107 -1.136,0.399 l 0.27,0.27 c 0.219,-0.23 0.517,-0.32 0.861,-0.32 0.455,0 0.736,0.163 0.736,0.489 0,0.241 -0.14,0.376 -0.461,0.404 l -0.455,0.04 c -0.54,0.045 -0.827,0.287 -0.827,0.742 0,0.507 0.427,0.81 1.018,0.81 0.393,0 0.748,-0.095 0.995,-0.298 L 0.737,2.272 C 0.54,2.423 0.287,2.49 0,2.49 c -0.405,0 -0.618,-0.173 -0.618,-0.455 0,-0.236 0.135,-0.376 0.483,-0.404 L 0.309,1.591 C 0.793,1.546 1.125,1.361 1.125,0.844 1.125,0.31 0.669,0 0,0"
             style="fill:#4a4a4b;fill-opacity:1;fill-rule:nonzero;stroke:none"
             id="path3470"
             inkscape:connector-curvature="0" /></g><g
           id="g3472"
           transform="translate(801.7007,519.2285)"><path
             d="m 0,0 c -0.697,0 -1.226,0.472 -1.226,1.418 0,0.943 0.529,1.416 1.226,1.416 0.382,0 0.624,-0.101 0.911,-0.411 L 0.635,2.165 C 0.427,2.395 0.264,2.474 0,2.474 c -0.27,0 -0.495,-0.107 -0.641,-0.315 -0.129,-0.18 -0.18,-0.394 -0.18,-0.741 0,-0.35 0.051,-0.563 0.18,-0.743 C -0.495,0.466 -0.27,0.36 0,0.36 c 0.264,0 0.427,0.084 0.635,0.315 L 0.911,0.411 C 0.624,0.101 0.382,0 0,0"
             style="fill:#4a4a4b;fill-opacity:1;fill-rule:nonzero;stroke:none"
             id="path3474"
             inkscape:connector-curvature="0" /></g><g
           id="g3476"
           transform="translate(805.154,519.2621)"><path
             d="M 0,0 0,1.709 C 0,2.193 -0.258,2.44 -0.674,2.44 -1.091,2.44 -1.366,2.187 -1.366,1.709 l 0,-1.709 -0.405,0 0,4.004 0.405,0 0,-1.541 C -1.164,2.694 -0.9,2.8 -0.59,2.8 0.034,2.8 0.405,2.401 0.405,1.777 L 0.405,0 0,0 z"
             style="fill:#4a4a4b;fill-opacity:1;fill-rule:nonzero;stroke:none"
             id="path3478"
             inkscape:connector-curvature="0" /></g><g
           id="g3480"
           transform="translate(808.1746,521.3036)"><path
             d="M 0,0 C -0.107,0.253 -0.354,0.415 -0.647,0.415 -0.939,0.415 -1.187,0.253 -1.293,0 -1.355,-0.152 -1.366,-0.237 -1.378,-0.461 l 1.462,0 C 0.073,-0.237 0.062,-0.152 0,0 m -1.378,-0.765 c 0,-0.607 0.287,-0.956 0.816,-0.956 0.32,0 0.506,0.096 0.725,0.315 l 0.276,-0.242 c -0.282,-0.281 -0.54,-0.427 -1.013,-0.427 -0.731,0 -1.208,0.439 -1.208,1.417 0,0.894 0.432,1.417 1.135,1.417 0.715,0 1.136,-0.517 1.136,-1.338 l 0,-0.186 -1.867,0 z"
             style="fill:#4a4a4b;fill-opacity:1;fill-rule:nonzero;stroke:none"
             id="path3482"
             inkscape:connector-curvature="0" /></g><g
           id="g3484"
           transform="translate(787.6331,514.3623)"><path
             d="m 0,0 -1.091,0 0,-1.467 1.091,0 c 0.495,0 0.804,0.287 0.804,0.736 C 0.804,-0.281 0.495,0 0,0 m -0.045,1.771 -1.046,0 0,-1.389 1.046,0 c 0.444,0 0.787,0.22 0.787,0.698 0,0.477 -0.343,0.691 -0.787,0.691 m 0.084,-3.621 -1.557,0 0,4.004 1.507,0 c 0.697,0 1.181,-0.4 1.181,-1.069 0,-0.422 -0.254,-0.753 -0.591,-0.877 0.383,-0.14 0.652,-0.472 0.652,-0.95 0,-0.725 -0.483,-1.108 -1.192,-1.108"
             style="fill:#4a4a4b;fill-opacity:1;fill-rule:nonzero;stroke:none"
             id="path3486"
             inkscape:connector-curvature="0" /></g><g
           id="g3488"
           transform="translate(791.5482,512.5126)"><path
             d="m 0,0 0,0.309 c -0.197,-0.225 -0.472,-0.343 -0.782,-0.343 -0.298,0 -0.545,0.09 -0.714,0.259 -0.197,0.191 -0.281,0.455 -0.281,0.776 l 0,1.765 0.405,0 0,-1.703 c 0,-0.489 0.259,-0.737 0.675,-0.737 0.416,0 0.691,0.253 0.691,0.737 l 0,1.703 0.405,0 L 0.399,0 0,0 z"
             style="fill:#4a4a4b;fill-opacity:1;fill-rule:nonzero;stroke:none"
             id="path3490"
             inkscape:connector-curvature="0" /></g><g
           id="g3492"
           transform="translate(794.7314,512.5126)"><path
             d="M 0,0 0,1.703 C 0,2.192 -0.264,2.44 -0.68,2.44 -1.096,2.44 -1.366,2.187 -1.366,1.703 l 0,-1.703 -0.405,0 0,2.766 0.405,0 0,-0.303 C -1.169,2.687 -0.9,2.8 -0.59,2.8 -0.292,2.8 -0.051,2.71 0.118,2.542 0.315,2.35 0.405,2.091 0.405,1.771 L 0.405,0 0,0 z"
             style="fill:#4a4a4b;fill-opacity:1;fill-rule:nonzero;stroke:none"
             id="path3494"
             inkscape:connector-curvature="0" /></g><g
           id="g3496"
           transform="translate(797.0775,514.953)"><path
             d="m 0,0 c -0.602,0 -0.697,-0.517 -0.697,-1.057 0,-0.54 0.095,-1.058 0.697,-1.058 0.601,0 0.691,0.518 0.691,1.058 C 0.691,-0.517 0.601,0 0,0 m 0.697,-2.44 0,0.331 C 0.472,-2.401 0.214,-2.475 -0.09,-2.475 c -0.281,0 -0.529,0.096 -0.675,0.243 -0.281,0.281 -0.337,0.742 -0.337,1.175 0,0.433 0.056,0.894 0.337,1.175 0.146,0.146 0.394,0.242 0.675,0.242 0.304,0 0.557,-0.068 0.781,-0.355 l 0,1.558 0.405,0 0,-4.003 -0.399,0 z"
             style="fill:#4a4a4b;fill-opacity:1;fill-rule:nonzero;stroke:none"
             id="path3498"
             inkscape:connector-curvature="0" /></g><g
           id="g3500"
           transform="translate(800.8177,514.5538)"><path
             d="M 0,0 C -0.107,0.253 -0.354,0.416 -0.647,0.416 -0.939,0.416 -1.187,0.253 -1.293,0 -1.355,-0.152 -1.366,-0.237 -1.378,-0.461 l 1.462,0 C 0.073,-0.237 0.062,-0.152 0,0 m -1.378,-0.765 c 0,-0.607 0.287,-0.956 0.816,-0.956 0.32,0 0.506,0.096 0.725,0.315 l 0.276,-0.242 c -0.282,-0.281 -0.54,-0.427 -1.013,-0.427 -0.731,0 -1.209,0.439 -1.209,1.417 0,0.894 0.433,1.417 1.136,1.417 0.715,0 1.136,-0.517 1.136,-1.338 l 0,-0.186 -1.867,0 z"
             style="fill:#4a4a4b;fill-opacity:1;fill-rule:nonzero;stroke:none"
             id="path3502"
             inkscape:connector-curvature="0" /></g><g
           id="g3504"
           transform="translate(803.0397,512.4784)"><path
             d="m 0,0 c -0.467,0 -0.832,0.107 -1.136,0.399 l 0.27,0.271 c 0.219,-0.231 0.517,-0.321 0.86,-0.321 0.456,0 0.737,0.163 0.737,0.489 0,0.242 -0.141,0.377 -0.461,0.405 l -0.456,0.039 c -0.539,0.045 -0.826,0.287 -0.826,0.742 0,0.507 0.427,0.81 1.018,0.81 0.393,0 0.748,-0.095 0.995,-0.298 L 0.737,2.272 C 0.54,2.424 0.287,2.491 0,2.491 c -0.405,0 -0.618,-0.174 -0.618,-0.456 0,-0.235 0.134,-0.376 0.483,-0.404 L 0.309,1.592 C 0.793,1.546 1.125,1.361 1.125,0.844 1.125,0.31 0.669,0 0,0"
             style="fill:#4a4a4b;fill-opacity:1;fill-rule:nonzero;stroke:none"
             id="path3506"
             inkscape:connector-curvature="0" /></g><g
           id="g3508"
           transform="translate(805.7395,512.4784)"><path
             d="m 0,0 c -0.467,0 -0.832,0.107 -1.136,0.399 l 0.27,0.271 c 0.219,-0.231 0.517,-0.321 0.861,-0.321 0.455,0 0.736,0.163 0.736,0.489 0,0.242 -0.14,0.377 -0.461,0.405 l -0.456,0.039 c -0.539,0.045 -0.826,0.287 -0.826,0.742 0,0.507 0.427,0.81 1.018,0.81 0.393,0 0.748,-0.095 0.995,-0.298 L 0.737,2.272 C 0.54,2.424 0.287,2.491 0,2.491 c -0.405,0 -0.618,-0.174 -0.618,-0.456 0,-0.235 0.134,-0.376 0.483,-0.404 L 0.309,1.592 C 0.793,1.546 1.125,1.361 1.125,0.844 1.125,0.31 0.669,0 0,0"
             style="fill:#4a4a4b;fill-opacity:1;fill-rule:nonzero;stroke:none"
             id="path3510"
             inkscape:connector-curvature="0" /></g><g
           id="g3512"
           transform="translate(808.3776,512.5126)"><path
             d="m 0,0 c -0.472,0 -0.709,0.331 -0.709,0.742 l 0,1.698 -0.348,0 0,0.31 0.348,0 0,0.866 0.405,0 0,-0.866 0.591,0 0,-0.31 -0.591,0 0,-1.687 c 0,-0.252 0.118,-0.404 0.377,-0.404 l 0.214,0 L 0.287,0 0,0 z"
             style="fill:#4a4a4b;fill-opacity:1;fill-rule:nonzero;stroke:none"
             id="path3514"
             inkscape:connector-curvature="0" /></g><path
           d="m 809.469,515.279 0.405,0 0,-2.766 -0.405,0 0,2.766 z m -0.022,1.243 0.455,0 0,-0.456 -0.455,0 0,0.456 z"
           style="fill:#4a4a4b;fill-opacity:1;fill-rule:nonzero;stroke:none"
           id="path3516"
           inkscape:connector-curvature="0" /><g
           id="g3518"
           transform="translate(811.3867,514.953)"><path
             d="m 0,0 0,-2.44 -0.405,0 0,2.44 -0.354,0 0,0.309 0.354,0 0,0.523 c 0,0.41 0.231,0.742 0.703,0.742 l 0.293,0 0,-0.349 -0.22,0 C 0.113,1.225 0,1.074 0,0.821 l 0,-0.512 0.591,0 L 0.591,0 0,0 z"
             style="fill:#4a4a4b;fill-opacity:1;fill-rule:nonzero;stroke:none"
             id="path3520"
             inkscape:connector-curvature="0" /></g><g
           id="g3522"
           transform="translate(813.4341,512.5126)"><path
             d="m 0,0 c -0.472,0 -0.709,0.331 -0.709,0.742 l 0,1.698 -0.348,0 0,0.31 0.348,0 0,0.866 0.405,0 0,-0.866 0.591,0 0,-0.31 -0.591,0 0,-1.687 c 0,-0.252 0.118,-0.404 0.377,-0.404 l 0.214,0 L 0.287,0 0,0 z"
             style="fill:#4a4a4b;fill-opacity:1;fill-rule:nonzero;stroke:none"
             id="path3524"
             inkscape:connector-curvature="0" /></g><g
           id="g3526"
           transform="translate(816.2742,512.5126)"><path
             d="m 0,0 0,0.309 c -0.197,-0.225 -0.472,-0.343 -0.782,-0.343 -0.297,0 -0.545,0.09 -0.714,0.259 -0.196,0.191 -0.281,0.455 -0.281,0.776 l 0,1.765 0.405,0 0,-1.703 c 0,-0.489 0.259,-0.737 0.675,-0.737 0.416,0 0.691,0.253 0.691,0.737 l 0,1.703 0.405,0 L 0.399,0 0,0 z"
             style="fill:#4a4a4b;fill-opacity:1;fill-rule:nonzero;stroke:none"
             id="path3528"
             inkscape:connector-curvature="0" /></g><g
           id="g3530"
           transform="translate(819.4579,512.5126)"><path
             d="M 0,0 0,1.703 C 0,2.192 -0.265,2.44 -0.681,2.44 -1.097,2.44 -1.367,2.187 -1.367,1.703 l 0,-1.703 -0.405,0 0,2.766 0.405,0 0,-0.303 C -1.17,2.687 -0.9,2.8 -0.591,2.8 -0.292,2.8 -0.051,2.71 0.118,2.542 0.315,2.35 0.405,2.091 0.405,1.771 L 0.405,0 0,0 z"
             style="fill:#4a4a4b;fill-opacity:1;fill-rule:nonzero;stroke:none"
             id="path3532"
             inkscape:connector-curvature="0" /></g><g
           id="g3534"
           transform="translate(821.7979,514.953)"><path
             d="m 0,0 c -0.601,0 -0.691,-0.517 -0.691,-1.035 0,-0.517 0.09,-1.034 0.691,-1.034 0.602,0 0.686,0.517 0.686,1.034 C 0.686,-0.517 0.602,0 0,0 m -0.062,-3.712 c -0.416,0 -0.646,0.108 -0.939,0.372 l 0.265,0.259 c 0.202,-0.181 0.343,-0.276 0.663,-0.276 0.534,0 0.759,0.377 0.759,0.849 l 0,0.433 c -0.225,-0.287 -0.478,-0.36 -0.776,-0.36 -0.281,0 -0.523,0.102 -0.669,0.247 -0.275,0.276 -0.337,0.703 -0.337,1.153 0,0.45 0.062,0.877 0.337,1.153 0.146,0.146 0.394,0.242 0.675,0.242 C 0.22,0.36 0.467,0.292 0.692,0 l 0,0.326 0.399,0 0,-2.851 c 0,-0.686 -0.427,-1.187 -1.153,-1.187"
             style="fill:#4a4a4b;fill-opacity:1;fill-rule:nonzero;stroke:none"
             id="path3536"
             inkscape:connector-curvature="0" /></g><g
           id="g3538"
           transform="translate(826.7142,512.4784)"><path
             d="m 0,0 c -0.81,0 -1.395,0.557 -1.395,1.356 l 0,2.682 0.428,0 0,-2.649 c 0,-0.607 0.382,-1.006 0.967,-1.006 0.585,0 0.972,0.399 0.972,1.006 l 0,2.649 0.428,0 0,-2.682 C 1.4,0.557 0.809,0 0,0"
             style="fill:#4a4a4b;fill-opacity:1;fill-rule:nonzero;stroke:none"
             id="path3540"
             inkscape:connector-curvature="0" /></g><g
           id="g3542"
           transform="translate(832.6979,512.5126)"><path
             d="M 0,0 0,1.703 C 0,2.192 -0.264,2.44 -0.68,2.44 -1.085,2.44 -1.372,2.187 -1.372,1.749 l 0,-1.749 -0.405,0 0,1.703 c 0,0.489 -0.264,0.737 -0.68,0.737 -0.416,0 -0.692,-0.253 -0.692,-0.737 l 0,-1.703 -0.405,0 0,2.766 0.405,0 0,-0.303 c 0.197,0.224 0.472,0.337 0.782,0.337 0.382,0 0.68,-0.157 0.849,-0.461 0.213,0.304 0.523,0.461 0.911,0.461 0.298,0 0.545,-0.095 0.714,-0.258 C 0.304,2.35 0.405,2.091 0.405,1.771 L 0.405,0 0,0 z"
             style="fill:#4a4a4b;fill-opacity:1;fill-rule:nonzero;stroke:none"
             id="path3544"
             inkscape:connector-curvature="0" /></g><g
           id="g3546"
           transform="translate(836.7199,512.5126)"><path
             d="M 0,0 -0.377,0 -1.102,2.148 -1.822,0 l -0.377,0 -0.877,2.766 0.439,0 0.635,-2.22 0.726,2.22 0.348,0 0.731,-2.22 0.63,2.22 0.438,0 L 0,0 z"
             style="fill:#4a4a4b;fill-opacity:1;fill-rule:nonzero;stroke:none"
             id="path3548"
             inkscape:connector-curvature="0" /></g><g
           id="g3550"
           transform="translate(839.7632,514.5538)"><path
             d="M 0,0 C -0.107,0.253 -0.354,0.416 -0.647,0.416 -0.939,0.416 -1.187,0.253 -1.293,0 -1.355,-0.152 -1.366,-0.237 -1.378,-0.461 l 1.463,0 C 0.073,-0.237 0.062,-0.152 0,0 m -1.378,-0.765 c 0,-0.607 0.287,-0.956 0.816,-0.956 0.32,0 0.506,0.096 0.725,0.315 l 0.276,-0.242 c -0.281,-0.281 -0.54,-0.427 -1.013,-0.427 -0.73,0 -1.209,0.439 -1.209,1.417 0,0.894 0.434,1.417 1.136,1.417 0.715,0 1.137,-0.517 1.137,-1.338 l 0,-0.186 -1.868,0 z"
             style="fill:#4a4a4b;fill-opacity:1;fill-rule:nonzero;stroke:none"
             id="path3552"
             inkscape:connector-curvature="0" /></g><g
           id="g3554"
           transform="translate(841.8057,512.5126)"><path
             d="m 0,0 c -0.484,0 -0.703,0.315 -0.703,0.737 l 0,3.267 0.405,0 0,-3.251 c 0,-0.269 0.09,-0.404 0.371,-0.404 l 0.219,0 L 0.292,0 0,0 z"
             style="fill:#4a4a4b;fill-opacity:1;fill-rule:nonzero;stroke:none"
             id="path3556"
             inkscape:connector-curvature="0" /></g><g
           id="g3558"
           transform="translate(843.5604,512.5126)"><path
             d="m 0,0 c -0.472,0 -0.709,0.331 -0.709,0.742 l 0,1.698 -0.348,0 0,0.31 0.348,0 0,0.866 0.405,0 0,-0.866 0.59,0 0,-0.31 -0.59,0 0,-1.687 c 0,-0.252 0.118,-0.404 0.377,-0.404 l 0.213,0 L 0.286,0 0,0 z"
             style="fill:#4a4a4b;fill-opacity:1;fill-rule:nonzero;stroke:none"
             id="path3560"
             inkscape:connector-curvature="0" /></g></g></g></g></svg>