<svg version="1.1" id="Layer_1" xmlns="http://www.w3.org/2000/svg" xmlns:xlink="http://www.w3.org/1999/xlink" x="0px" y="0px"
	 width="100%" viewBox="0 0 834 834" enable-background="new 0 0 834 834" xml:space="preserve">
<path fill="#FFFFFF" opacity="1.000000" stroke="none" 
	d="
M471.000000,835.000000 
	C314.000061,835.000000 157.500092,835.000000 1.000105,835.000000 
	C1.000070,557.000122 1.000070,279.000244 1.000035,1.000291 
	C278.999786,1.000194 556.999573,1.000194 834.999512,1.000097 
	C834.999695,278.999695 834.999695,556.999390 834.999878,834.999512 
	C713.833313,835.000000 592.666687,835.000000 471.000000,835.000000 
M175.494919,78.938370 
	C156.287857,92.887886 138.194244,108.150932 121.461441,124.995674 
	C117.269470,129.215698 113.246582,133.619247 109.356766,138.120605 
	C101.511734,147.199020 93.100510,155.901474 86.215775,165.670227 
	C75.524178,180.840561 65.712265,196.647278 55.893066,212.411957 
	C43.248775,232.712341 33.909130,254.605026 25.892204,277.076111 
	C17.901184,299.474579 11.236971,322.239807 7.943366,345.854828 
	C5.776495,361.391205 2.634134,376.937958 2.217929,392.541107 
	C1.394726,423.402344 0.678099,454.415588 7.030928,484.922424 
	C10.902718,503.515137 14.712727,522.178040 19.895987,540.427246 
	C28.251167,569.844116 40.739002,597.598450 55.915813,624.202332 
	C74.311966,656.449585 96.583023,685.676147 122.577065,712.104614 
	C127.680939,717.293762 133.042526,722.252319 138.531067,727.035095 
	C147.451050,734.807983 156.082397,743.047241 165.724213,749.825684 
	C180.907745,760.500122 196.694916,770.340942 212.470825,780.141418 
	C232.781784,792.759094 254.665604,802.112976 277.141418,810.122559 
	C299.544891,818.106262 322.306610,824.774414 345.922852,828.063171 
	C361.459503,830.226807 377.005737,833.359924 392.609497,833.783569 
	C423.471558,834.621399 454.484222,835.294250 484.989716,828.963745 
	C503.583527,825.105286 522.221802,821.211609 540.489014,816.083191 
	C573.309265,806.869141 604.017944,792.500916 633.188599,774.958069 
	C654.802795,761.959473 675.258301,747.226624 694.030640,730.374146 
	C704.478638,720.994629 714.259644,710.824524 723.853699,700.555176 
	C732.719666,691.065186 741.577454,681.444885 749.308105,671.041687 
	C767.339966,646.776123 783.313232,621.206238 795.917847,593.599792 
	C808.261169,566.565552 817.704651,538.658875 824.383972,509.666656 
	C829.355652,488.086578 832.535278,466.267487 833.762634,444.313232 
	C834.834961,425.131805 833.750183,405.790161 832.867493,386.553741 
	C832.328674,374.810852 831.120178,362.987396 828.879333,351.459229 
	C825.226074,332.665131 821.232239,313.871307 816.033142,295.458252 
	C806.999023,263.463257 793.084961,233.493835 776.086914,204.904251 
	C759.423157,176.876846 739.785767,151.145020 717.167419,127.733795 
	C708.561523,118.826180 699.315735,110.478172 689.862854,102.463364 
	C679.765503,93.902122 669.342529,85.669434 658.596558,77.939949 
	C634.669861,60.729591 609.324585,45.807686 581.836304,35.071957 
	C562.789795,27.633205 543.420959,20.802589 523.767639,15.204977 
	C508.654572,10.900513 492.940216,8.517729 477.368958,6.071336 
	C464.762543,4.090747 451.984863,2.350234 439.258728,2.163184 
	C414.625305,1.801119 389.897125,0.724060 365.415466,4.984128 
	C350.825592,7.522925 335.985138,9.112553 321.711548,12.859339 
	C301.944458,18.048153 282.210907,23.856548 263.198425,31.282532 
	C245.946732,38.020779 229.411743,46.782276 213.064209,55.586555 
	C200.312881,62.454029 188.334106,70.755928 175.494919,78.938370 
z"/>
<path fill="#80867B" opacity="1.000000" stroke="none" 
	d="
M175.753479,78.679382 
	C188.334106,70.755928 200.312881,62.454029 213.064209,55.586555 
	C229.411743,46.782276 245.946732,38.020779 263.198425,31.282532 
	C282.210907,23.856548 301.944458,18.048153 321.711548,12.859339 
	C335.985138,9.112553 350.825592,7.522925 365.415466,4.984128 
	C389.897125,0.724060 414.625305,1.801119 439.258728,2.163184 
	C451.984863,2.350234 464.762543,4.090747 477.368958,6.071336 
	C492.940216,8.517729 508.654572,10.900513 523.767639,15.204977 
	C543.420959,20.802589 562.789795,27.633205 581.836304,35.071957 
	C609.324585,45.807686 634.669861,60.729591 658.596558,77.939949 
	C669.342529,85.669434 679.765503,93.902122 689.862854,102.463364 
	C699.315735,110.478172 708.561523,118.826180 717.167419,127.733795 
	C739.785767,151.145020 759.423157,176.876846 776.086914,204.904251 
	C793.084961,233.493835 806.999023,263.463257 816.033142,295.458252 
	C821.232239,313.871307 825.226074,332.665131 828.879333,351.459229 
	C831.120178,362.987396 832.328674,374.810852 832.867493,386.553741 
	C833.750183,405.790161 834.834961,425.131805 833.762634,444.313232 
	C832.535278,466.267487 829.355652,488.086578 824.383972,509.666656 
	C817.704651,538.658875 808.261169,566.565552 795.917847,593.599792 
	C783.313232,621.206238 767.339966,646.776123 749.308105,671.041687 
	C741.577454,681.444885 732.719666,691.065186 723.853699,700.555176 
	C714.259644,710.824524 704.478638,720.994629 694.030640,730.374146 
	C675.258301,747.226624 654.802795,761.959473 633.188599,774.958069 
	C604.017944,792.500916 573.309265,806.869141 540.489014,816.083191 
	C522.221802,821.211609 503.583527,825.105286 484.989716,828.963745 
	C454.484222,835.294250 423.471558,834.621399 392.609497,833.783569 
	C377.005737,833.359924 361.459503,830.226807 345.922852,828.063171 
	C322.306610,824.774414 299.544891,818.106262 277.141418,810.122559 
	C254.665604,802.112976 232.781784,792.759094 212.470825,780.141418 
	C196.694916,770.340942 180.907745,760.500122 165.724213,749.825684 
	C156.082397,743.047241 147.451050,734.807983 138.531067,727.035095 
	C133.042526,722.252319 127.680939,717.293762 122.577065,712.104614 
	C96.583023,685.676147 74.311966,656.449585 55.915813,624.202332 
	C40.739002,597.598450 28.251167,569.844116 19.895987,540.427246 
	C14.712727,522.178040 10.902718,503.515137 7.030928,484.922424 
	C0.678099,454.415588 1.394726,423.402344 2.217929,392.541107 
	C2.634134,376.937958 5.776495,361.391205 7.943366,345.854828 
	C11.236971,322.239807 17.901184,299.474579 25.892204,277.076111 
	C33.909130,254.605026 43.248775,232.712341 55.893066,212.411957 
	C65.712265,196.647278 75.524178,180.840561 86.215775,165.670227 
	C93.100510,155.901474 101.511734,147.199020 109.356766,138.120605 
	C113.246582,133.619247 117.269470,129.215698 121.461441,124.995674 
	C138.194244,108.150932 156.287857,92.887886 175.753479,78.679382 
M425.813202,118.656998 
	C419.629791,112.877991 416.984161,112.919388 409.070435,118.978020 
	C397.895416,125.303528 386.696289,131.586945 375.550293,137.963165 
	C351.220703,151.881195 326.924927,165.858429 302.602631,179.789230 
	C274.597626,195.829330 246.581360,211.849762 218.565247,227.870438 
	C199.933563,238.524734 181.490814,249.533951 162.565170,259.638245 
	C154.407990,263.993317 150.762451,268.989075 150.799698,278.707764 
	C151.162491,373.352753 151.018143,467.999634 151.018524,562.645996 
	C151.018524,563.979065 150.960953,565.315430 151.034775,566.644470 
	C151.218262,569.947876 152.349670,572.523804 155.525635,574.290588 
	C163.881760,578.939087 172.024231,583.970459 180.357742,588.661011 
	C209.578125,605.107666 238.883575,621.403442 268.080322,637.891785 
	C299.875763,655.847778 331.577881,673.968994 363.336731,691.989868 
	C380.925842,701.970459 398.521332,711.941040 416.206268,721.749573 
	C417.592987,722.518738 420.107697,722.685364 421.424347,721.940613 
	C456.421143,702.146790 491.336975,682.209595 526.250000,662.267822 
	C552.031982,647.541748 577.775452,632.748230 603.563965,618.033630 
	C628.975830,603.534058 654.400696,589.057007 679.876953,574.671265 
	C683.944580,572.374390 685.385437,569.420532 685.378296,564.651062 
	C685.233948,468.171997 685.271179,371.692657 685.269714,275.213348 
	C685.269714,273.380554 685.656921,271.413300 685.118591,269.749786 
	C684.477783,267.769226 683.457458,265.419525 681.854004,264.334229 
	C676.962158,261.023163 671.739746,258.192322 666.595032,255.264145 
	C642.144348,241.347839 617.652405,227.503815 593.222839,213.550751 
	C573.316162,202.181015 553.503967,190.645828 533.600708,179.270050 
	C508.344543,164.834839 483.042450,150.480072 457.752380,136.104309 
	C448.192078,130.669907 438.610107,125.273666 428.953918,119.490211 
	C428.631073,119.396156 428.308228,119.302101 427.372742,119.148163 
	C426.783386,119.288284 426.194000,119.428398 425.541595,119.540672 
	C425.541595,119.540672 425.571686,119.488876 425.813202,118.656998 
z"/>
<path fill="#FEFEFE" opacity="1.000000" stroke="none" 
	d="
M429.037994,119.860039 
	C438.610107,125.273666 448.192078,130.669907 457.752380,136.104309 
	C483.042450,150.480072 508.344543,164.834839 533.600708,179.270050 
	C553.503967,190.645828 573.316162,202.181015 593.222839,213.550751 
	C617.652405,227.503815 642.144348,241.347839 666.595032,255.264145 
	C671.739746,258.192322 676.962158,261.023163 681.854004,264.334229 
	C683.457458,265.419525 684.477783,267.769226 685.118591,269.749786 
	C685.656921,271.413300 685.269714,273.380554 685.269714,275.213348 
	C685.271179,371.692657 685.233948,468.171997 685.378296,564.651062 
	C685.385437,569.420532 683.944580,572.374390 679.876953,574.671265 
	C654.400696,589.057007 628.975830,603.534058 603.563965,618.033630 
	C577.775452,632.748230 552.031982,647.541748 526.250000,662.267822 
	C491.336975,682.209595 456.421143,702.146790 421.424347,721.940613 
	C420.107697,722.685364 417.592987,722.518738 416.206268,721.749573 
	C398.521332,711.941040 380.925842,701.970459 363.336731,691.989868 
	C331.577881,673.968994 299.875763,655.847778 268.080322,637.891785 
	C238.883575,621.403442 209.578125,605.107666 180.357742,588.661011 
	C172.024231,583.970459 163.881760,578.939087 155.525635,574.290588 
	C152.349670,572.523804 151.218262,569.947876 151.034775,566.644470 
	C150.960953,565.315430 151.018524,563.979065 151.018524,562.645996 
	C151.018143,467.999634 151.162491,373.352753 150.799698,278.707764 
	C150.762451,268.989075 154.407990,263.993317 162.565170,259.638245 
	C181.490814,249.533951 199.933563,238.524734 218.565247,227.870438 
	C246.581360,211.849762 274.597626,195.829330 302.602631,179.789230 
	C326.924927,165.858429 351.220703,151.881195 375.550293,137.963165 
	C386.696289,131.586945 397.895416,125.303528 409.719360,118.972160 
	C410.568024,118.975838 410.767731,118.985382 411.253906,119.290077 
	C414.698395,119.724678 417.856445,119.864136 421.337280,120.003662 
	C422.090332,120.005463 422.520630,120.007202 423.399902,119.982079 
	C424.434113,119.826309 425.019379,119.697411 425.604645,119.568512 
	C426.194000,119.428398 426.783386,119.288284 427.669922,119.687027 
	C427.992096,127.845467 428.017120,135.465057 428.024536,143.546982 
	C428.021820,229.637222 428.036682,315.265137 428.031158,401.368866 
	C428.025208,412.933777 428.039673,424.022827 428.032745,435.573120 
	C428.008362,444.852692 428.002930,453.671082 428.002808,462.489471 
	C428.001892,538.194641 427.994385,613.899841 428.051178,689.604919 
	C428.052399,691.254395 428.792542,692.903381 429.557953,694.496826 
	C443.408295,686.720215 456.876068,678.977356 470.371552,671.282959 
	C501.998810,653.250671 533.636169,635.236084 565.275574,617.225281 
	C588.089661,604.238464 610.922791,591.285217 633.727661,578.282166 
	C640.245056,574.566040 646.693420,570.728699 653.713013,566.632019 
	C651.734375,565.205322 650.479919,564.141174 649.083374,563.318115 
	C632.420959,553.498352 615.739990,543.710083 599.058594,533.922424 
	C581.800964,523.796631 564.548401,513.662170 547.274231,503.564606 
	C522.467468,489.063934 497.652557,474.577301 472.822937,460.115906 
	C458.549011,451.802490 444.239258,443.550720 429.723877,435.145752 
	C429.344513,434.957031 429.186920,434.893738 429.020477,434.373535 
	C429.024353,422.979462 429.037109,412.042236 429.023804,401.029602 
	C428.997803,400.954193 428.949799,400.802002 429.296051,400.772583 
	C443.008179,392.837677 456.348389,384.888397 469.745087,377.035461 
	C501.730103,358.286255 533.751282,339.598602 565.739807,320.855438 
	C592.696716,305.060547 619.634460,289.233063 646.555359,273.377075 
	C648.161804,272.430908 649.543457,271.102966 651.437988,269.636658 
	C649.672852,268.445557 648.631714,267.645416 647.503662,266.996307 
	C628.110291,255.837357 608.729614,244.656082 589.298828,233.562576 
	C562.411438,218.211929 535.479614,202.939209 508.576050,187.616898 
	C482.387726,172.701935 456.211090,157.766556 429.831787,142.480408 
	C429.435547,134.700470 429.236786,127.280251 429.037994,119.860039 
M405.025360,143.950851 
	C396.242767,148.913406 387.438812,153.838531 378.681091,158.844604 
	C323.146545,190.589417 267.619537,222.347443 212.097321,254.113800 
	C203.400024,259.089844 194.739746,264.130554 185.424042,269.509979 
	C187.262512,270.776764 188.405396,271.665894 189.640564,272.399658 
	C202.293579,279.916504 214.931259,287.459900 227.630692,294.897766 
	C279.567688,325.316437 331.514404,355.718628 383.485474,386.079041 
	C391.583099,390.809479 399.825836,395.291534 408.776093,399.527405 
	C408.852081,398.369537 408.994446,397.211670 408.994568,396.053802 
	C409.003998,312.649994 409.002136,229.246201 409.001190,145.842392 
	C409.001190,144.868210 409.001190,143.894012 409.001190,142.321960 
	C407.613159,142.993729 406.669128,143.450623 405.025360,143.950851 
M407.333496,435.371033 
	C332.823486,479.162842 258.313446,522.954651 183.393341,566.987488 
	C184.627747,567.957886 185.204254,568.542786 185.891525,568.932434 
	C216.966476,586.546631 248.056702,604.133972 279.133148,621.745667 
	C311.787689,640.251709 344.411255,658.812561 377.089111,677.277344 
	C387.296265,683.045044 397.635742,688.578613 408.510864,694.657532 
	C408.674408,693.536560 408.980835,692.415649 408.981140,691.294617 
	C409.003387,607.241333 409.006073,523.188049 408.959656,439.134796 
	C408.958923,437.832306 408.329559,436.530182 407.333496,435.371033 
M615.367004,312.904602 
	C605.451721,318.828949 595.575439,324.819855 585.612610,330.663208 
	C567.300232,341.403748 548.940247,352.063080 530.593689,362.745270 
	C517.807983,370.189667 504.981049,377.563843 492.227570,385.062988 
	C475.753387,394.750092 459.295135,404.465637 442.913055,414.307190 
	C437.441772,417.594025 437.562408,418.002014 442.908417,421.448730 
	C443.463379,421.806580 443.907074,422.344696 444.475159,422.673523 
	C467.772369,436.159180 491.127899,449.545044 514.364807,463.133667 
	C529.733398,472.121033 544.871887,481.501190 560.224548,490.516296 
	C578.231079,501.089813 596.368774,511.439697 614.429626,521.920959 
	C630.376343,531.175415 646.284851,540.495728 662.247864,549.721863 
	C663.484497,550.436646 665.017822,550.638062 666.578064,551.130066 
	C666.578064,461.659882 666.578064,372.950195 666.578064,282.764923 
	C649.117798,293.019379 632.551331,302.748932 615.367004,312.904602 
M170.978958,378.500000 
	C170.978958,436.065979 170.978958,493.631958 170.978958,552.273132 
	C247.585037,507.279144 323.379608,462.761780 399.948944,417.789368 
	C323.055969,372.742249 247.366592,328.400269 170.978943,283.649200 
	C170.978943,315.623413 170.978943,346.561707 170.978958,378.500000 
z"/>
<path fill="#FEFCFD" opacity="1.000000" stroke="none" 
	d="
M422.950958,120.008942 
	C422.520630,120.007202 422.090332,120.005463 421.053467,119.708054 
	C417.287140,119.273224 414.127289,119.134079 410.967468,118.994934 
	C410.767731,118.985382 410.568024,118.975838 410.069275,118.937164 
	C416.984161,112.919388 419.629791,112.877991 425.339417,118.922928 
	C424.227417,119.462212 423.589203,119.735573 422.950958,120.008942 
z"/>
<path fill="#EEE9EA" opacity="1.000000" stroke="none" 
	d="
M428.042145,143.084641 
	C428.017120,135.465057 427.992096,127.845467 427.976227,119.716965 
	C428.308228,119.302101 428.631073,119.396156 428.995972,119.675125 
	C429.236786,127.280251 429.435547,134.700470 429.576111,142.564758 
	C429.343842,143.052597 429.169800,143.096359 428.760559,143.071701 
	C428.525330,143.003265 428.042145,143.084641 428.042145,143.084641 
z"/>
<path fill="#EEE9EA" opacity="1.000000" stroke="none" 
	d="
M423.399902,119.982071 
	C423.589203,119.735573 424.227417,119.462212 425.218689,119.338867 
	C425.571686,119.488876 425.541595,119.540672 425.573120,119.554596 
	C425.019379,119.697411 424.434113,119.826309 423.399902,119.982071 
z"/>
<path fill="#80867B" opacity="1.000000" stroke="none" 
	d="
M615.675903,312.691559 
	C632.551331,302.748932 649.117798,293.019379 666.578064,282.764923 
	C666.578064,372.950195 666.578064,461.659882 666.578064,551.130066 
	C665.017822,550.638062 663.484497,550.436646 662.247864,549.721863 
	C646.284851,540.495728 630.376343,531.175415 614.429626,521.920959 
	C596.368774,511.439697 578.231079,501.089813 560.224548,490.516296 
	C544.871887,481.501190 529.733398,472.121033 514.364807,463.133667 
	C491.127899,449.545044 467.772369,436.159180 444.475159,422.673523 
	C443.907074,422.344696 443.463379,421.806580 442.908417,421.448730 
	C437.562408,418.002014 437.441772,417.594025 442.913055,414.307190 
	C459.295135,404.465637 475.753387,394.750092 492.227570,385.062988 
	C504.981049,377.563843 517.807983,370.189667 530.593689,362.745270 
	C548.940247,352.063080 567.300232,341.403748 585.612610,330.663208 
	C595.575439,324.819855 605.451721,318.828949 615.675903,312.691559 
z"/>
<path fill="#80867B" opacity="1.000000" stroke="none" 
	d="
M170.978943,378.000000 
	C170.978943,346.561707 170.978943,315.623413 170.978943,283.649200 
	C247.366592,328.400269 323.055969,372.742249 399.948944,417.789368 
	C323.379608,462.761780 247.585037,507.279144 170.978958,552.273132 
	C170.978958,493.631958 170.978958,436.065979 170.978943,378.000000 
z"/>
<path fill="#80867B" opacity="1.000000" stroke="none" 
	d="
M429.945618,435.271179 
	C444.239258,443.550720 458.549011,451.802490 472.822937,460.115906 
	C497.652557,474.577301 522.467468,489.063934 547.274231,503.564606 
	C564.548401,513.662170 581.800964,523.796631 599.058594,533.922424 
	C615.739990,543.710083 632.420959,553.498352 649.083374,563.318115 
	C650.479919,564.141174 651.734375,565.205322 653.713013,566.632019 
	C646.693420,570.728699 640.245056,574.566040 633.727661,578.282166 
	C610.922791,591.285217 588.089661,604.238464 565.275574,617.225281 
	C533.636169,635.236084 501.998810,653.250671 470.371552,671.282959 
	C456.876068,678.977356 443.408295,686.720215 429.505890,693.983521 
	C429.055878,608.876160 429.023285,524.226440 429.039337,439.576752 
	C429.039612,438.141510 429.630371,436.706360 429.945618,435.271179 
z"/>
<path fill="#80867B" opacity="1.000000" stroke="none" 
	d="
M407.914612,694.219360 
	C397.635742,688.578613 387.296265,683.045044 377.089111,677.277344 
	C344.411255,658.812561 311.787689,640.251709 279.133148,621.745667 
	C248.056702,604.133972 216.966476,586.546631 185.891525,568.932434 
	C185.204254,568.542786 184.627747,567.957886 183.393341,566.987488 
	C258.313446,522.954651 332.823486,479.162842 407.666656,435.751862 
	C407.999878,464.753723 408.009033,493.374756 407.998047,521.995789 
	C407.976044,579.403625 407.943085,636.811523 407.914612,694.219360 
z"/>
<path fill="#80867B" opacity="1.000000" stroke="none" 
	d="
M428.995789,143.140137 
	C429.169800,143.096359 429.343842,143.052597 429.773621,142.924484 
	C456.211090,157.766556 482.387726,172.701935 508.576050,187.616898 
	C535.479614,202.939209 562.411438,218.211929 589.298828,233.562576 
	C608.729614,244.656082 628.110291,255.837357 647.503662,266.996307 
	C648.631714,267.645416 649.672852,268.445557 651.437988,269.636658 
	C649.543457,271.102966 648.161804,272.430908 646.555359,273.377075 
	C619.634460,289.233063 592.696716,305.060547 565.739807,320.855438 
	C533.751282,339.598602 501.730103,358.286255 469.745087,377.035461 
	C456.348389,384.888397 443.008179,392.837677 429.310974,400.317810 
	C428.985016,314.308380 428.990417,228.724258 428.995789,143.140137 
z"/>
<path fill="#80867B" opacity="1.000000" stroke="none" 
	d="
M408.001495,399.888458 
	C399.825836,395.291534 391.583099,390.809479 383.485474,386.079041 
	C331.514404,355.718628 279.567688,325.316437 227.630692,294.897766 
	C214.931259,287.459900 202.293579,279.916504 189.640564,272.399658 
	C188.405396,271.665894 187.262512,270.776764 185.424042,269.509979 
	C194.739746,264.130554 203.400024,259.089844 212.097321,254.113800 
	C267.619537,222.347443 323.146545,190.589417 378.681091,158.844604 
	C387.438812,153.838531 396.242767,148.913406 405.793457,144.023651 
	C407.041016,146.049866 407.938232,148.002945 407.939880,149.956772 
	C408.010315,233.267288 408.001007,316.577881 408.001495,399.888458 
z"/>
<path fill="#7F855F" opacity="1.000000" stroke="none" 
	d="
M429.723877,435.145752 
	C429.630371,436.706360 429.039612,438.141510 429.039337,439.576752 
	C429.023285,524.226440 429.055878,608.876160 429.135925,694.039185 
	C428.792542,692.903381 428.052399,691.254395 428.051178,689.604919 
	C427.994385,613.899841 428.001892,538.194641 428.002808,462.489471 
	C428.002930,453.671082 428.008362,444.852692 428.278229,435.508606 
	C428.706543,434.932068 428.867920,434.881226 429.029327,434.830414 
	C429.186920,434.893738 429.344513,434.957031 429.723877,435.145752 
z"/>
<path fill="#7F866A" opacity="1.000000" stroke="none" 
	d="
M408.388794,399.707947 
	C408.001007,316.577881 408.010315,233.267288 407.939880,149.956772 
	C407.938232,148.002945 407.041016,146.049866 406.143311,144.001984 
	C406.669128,143.450623 407.613159,142.993729 409.001190,142.321960 
	C409.001190,143.894012 409.001190,144.868210 409.001190,145.842392 
	C409.002136,229.246201 409.003998,312.649994 408.994568,396.053802 
	C408.994446,397.211670 408.852081,398.369537 408.388794,399.707947 
z"/>
<path fill="#7F866A" opacity="1.000000" stroke="none" 
	d="
M408.212738,694.438477 
	C407.943085,636.811523 407.976044,579.403625 407.998047,521.995789 
	C408.009033,493.374756 407.999878,464.753723 407.996704,435.680298 
	C408.329559,436.530182 408.958923,437.832306 408.959656,439.134796 
	C409.006073,523.188049 409.003387,607.241333 408.981140,691.294617 
	C408.980835,692.415649 408.674408,693.536560 408.212738,694.438477 
z"/>
<path fill="#7F8560" opacity="1.000000" stroke="none" 
	d="
M428.760559,143.071701 
	C428.990417,228.724258 428.985016,314.308380 428.964722,400.347229 
	C428.949799,400.802002 428.997803,400.954193 428.775482,400.970886 
	C428.385956,400.956055 428.218781,400.924561 428.051575,400.893036 
	C428.036682,315.265137 428.021820,229.637222 428.024536,143.546982 
	C428.042145,143.084641 428.525330,143.003265 428.760559,143.071701 
z"/>
<path fill="#EFEAEB" opacity="1.000000" stroke="none" 
	d="
M428.031158,401.368866 
	C428.218781,400.924561 428.385956,400.956055 428.801514,401.046326 
	C429.037109,412.042236 429.024353,422.979462 429.020477,434.373535 
	C428.867920,434.881226 428.706543,434.932068 428.299652,435.047394 
	C428.039673,424.022827 428.025208,412.933777 428.031158,401.368866 
z"/>
<path fill="#EEE9EA" opacity="1.000000" stroke="none" 
	d="
M411.253906,119.290077 
	C414.127289,119.134079 417.287140,119.273224 420.730743,119.707977 
	C417.856445,119.864136 414.698395,119.724678 411.253906,119.290077 
z"/>
</svg>