<svg version="1.1" id="Layer_1" xmlns="http://www.w3.org/2000/svg" xmlns:xlink="http://www.w3.org/1999/xlink" x="0px" y="0px"
	 width="100%" viewBox="0 0 834 834" enable-background="new 0 0 834 834" xml:space="preserve">
<path fill="#FFFFFF" opacity="1.000000" stroke="none" 
	d="
M835.000000,321.000000 
	C835.000000,492.666595 835.000000,663.833191 835.000000,834.999817 
	C557.000183,834.999878 279.000366,834.999878 1.000422,834.999939 
	C1.000281,557.000305 1.000281,279.000610 1.000141,1.000683 
	C278.999573,1.000455 556.999146,1.000455 834.999390,1.000228 
	C835.000000,107.500000 835.000000,214.000000 835.000000,321.000000 
M709.023865,119.976112 
	C709.023865,119.976112 709.117371,119.969826 708.935852,119.451454 
	C708.633362,119.261841 708.330811,119.072227 708.023987,118.976051 
	C708.023987,118.976051 708.117310,118.969734 707.936096,118.451263 
	C707.633545,118.261757 707.330933,118.072258 707.024109,117.976158 
	C707.024109,117.976158 707.117371,117.969650 706.936401,117.451027 
	C706.633789,117.261681 706.331116,117.072327 706.024170,116.975975 
	C706.024170,116.975975 706.117065,116.969551 705.936646,116.450806 
	C705.633972,116.261612 705.331299,116.072418 705.024292,115.975990 
	C705.024292,115.975990 705.116943,115.969475 704.936951,115.450569 
	C704.634216,115.261528 704.331421,115.072487 704.029541,114.972580 
	C704.029541,114.972580 704.117676,114.959137 703.934448,114.451187 
	C703.621399,114.346886 703.308350,114.242577 702.383423,113.842461 
	C684.721375,96.176720 664.899780,81.228416 643.789978,68.011703 
	C633.506226,61.573101 622.707642,55.956665 611.938049,49.456112 
	C611.634033,49.265301 611.330017,49.074486 611.034058,48.962715 
	C611.034058,48.962715 611.109924,48.939255 610.843018,48.358025 
	C610.234558,48.196129 609.626099,48.034237 609.023926,47.960457 
	C609.023926,47.960457 609.109863,47.939766 608.841797,47.359493 
	C608.233704,47.197166 607.625610,47.034836 607.024109,46.960567 
	C607.024109,46.960567 607.109924,46.939617 606.842163,46.359032 
	C606.233826,46.196926 605.625549,46.034821 605.023804,45.960899 
	C605.023804,45.960899 605.109741,45.940025 604.843079,45.358582 
	C604.234436,45.196613 603.625854,45.034645 603.023804,44.960861 
	C603.023804,44.960861 603.109741,44.940014 602.843018,44.358631 
	C602.234436,44.196682 601.625916,44.034729 601.023804,43.960808 
	C601.023804,43.960808 601.109619,43.940079 600.842346,43.359192 
	C600.234070,43.196934 599.625793,43.034679 599.024353,42.960423 
	C599.024353,42.960423 599.110046,42.939232 598.842896,42.358311 
	C598.234558,42.196339 597.626160,42.034367 597.024963,41.959435 
	C597.024963,41.959435 597.109497,41.937481 596.839722,41.357605 
	C596.230469,41.286118 595.621277,41.214630 594.358093,40.825375 
	C590.267578,38.875137 586.313538,36.537498 582.063232,35.041100 
	C562.682678,28.217783 543.448669,20.821150 523.710938,15.220192 
	C508.465607,10.894058 492.612335,8.543663 476.914520,6.032711 
	C464.824036,4.098782 452.564941,2.302417 440.363434,2.180161 
	C418.371338,1.959807 396.302094,0.656011 374.374390,3.946924 
	C363.249878,5.616489 351.962860,6.401565 340.958252,8.622143 
	C326.525818,11.534406 312.165527,15.003101 298.017303,19.076771 
	C278.388031,24.728600 259.160889,31.617790 240.363556,41.020702 
	C239.872528,41.326344 239.381500,41.631985 238.974106,41.958767 
	C238.974106,41.958767 238.980118,41.872719 238.348846,41.982101 
	C237.862488,42.301250 237.376144,42.620399 236.974701,42.959904 
	C236.974701,42.959904 236.980316,42.872772 236.349319,42.983326 
	C235.862961,43.302345 235.376587,43.621365 234.975189,43.960255 
	C234.975189,43.960255 234.980530,43.873169 234.349442,43.984440 
	C233.863007,44.303066 233.376556,44.621693 232.975189,44.960300 
	C232.975189,44.960300 232.980606,44.873085 232.349503,44.984394 
	C231.863037,45.303040 231.376587,45.621681 230.975174,45.960327 
	C230.975174,45.960327 230.980637,45.873131 230.349869,45.984646 
	C229.863235,46.303074 229.376587,46.621502 228.974899,46.959999 
	C228.974899,46.959999 228.980286,46.872883 228.349426,46.982986 
	C227.862930,47.302017 227.376450,47.621048 226.975006,47.959984 
	C226.975006,47.959984 226.980240,47.872772 226.349091,47.983192 
	C225.862686,48.301983 225.376297,48.620777 224.965515,48.962643 
	C224.965515,48.962643 224.972076,48.883850 224.451569,49.068497 
	C224.252899,49.369007 224.054230,49.669518 223.127304,49.989399 
	C214.227295,55.001137 205.107620,59.663403 196.469894,65.092422 
	C173.743225,79.376663 152.296753,95.376808 132.468765,114.088539 
	C132.273239,114.379181 132.077713,114.669823 131.970261,114.972321 
	C131.970261,114.972321 131.969452,114.883446 131.450455,115.063164 
	C131.261337,115.365860 131.072220,115.668556 130.975769,115.975807 
	C130.975769,115.975807 130.969574,115.883240 130.450714,116.063385 
	C130.261429,116.366035 130.072128,116.668694 129.975830,116.975922 
	C129.975830,116.975922 129.969696,116.883026 129.450989,117.063660 
	C129.261551,117.366264 129.072098,117.668869 128.975922,117.976013 
	C128.975922,117.976013 128.969772,117.882828 128.451248,118.063904 
	C128.261673,118.366455 128.072098,118.668999 127.975990,118.976074 
	C127.975990,118.976074 127.969826,118.882698 127.451454,119.064133 
	C127.261780,119.366623 127.072113,119.669113 126.976021,119.976120 
	C126.976021,119.976120 126.969879,119.882622 126.451622,120.064323 
	C126.261864,120.366776 126.072105,120.669235 125.976051,120.976158 
	C125.976051,120.976158 125.969894,120.882545 125.451767,121.064514 
	C125.261963,121.366920 125.072151,121.669334 124.976128,121.976204 
	C124.976128,121.976204 124.969963,121.882515 124.451889,122.064613 
	C124.262032,122.366997 124.072166,122.669380 123.976120,122.976204 
	C123.976120,122.976204 123.969963,122.882484 123.451927,123.064651 
	C123.262062,123.367027 123.072197,123.669403 122.976151,123.976196 
	C122.976151,123.976196 122.969948,123.882477 122.451904,124.064606 
	C122.262062,124.366989 122.072220,124.669380 121.976151,124.976143 
	C121.976151,124.976143 121.969902,124.882477 121.451790,125.064484 
	C121.261993,125.366905 121.072205,125.669319 120.976120,125.976112 
	C120.976120,125.976112 120.969864,125.882515 120.451660,126.064301 
	C120.261940,126.366768 120.072220,126.669228 119.976105,126.976059 
	C119.976105,126.976059 119.969803,126.882553 119.451492,127.064102 
	C119.261871,127.366608 119.072243,127.669121 118.976059,127.975975 
	C118.976059,127.975975 118.969719,127.882637 118.451263,128.063873 
	C118.261757,128.366425 118.072250,128.668976 117.976044,128.975906 
	C117.976044,128.975906 117.969658,128.882736 117.451057,129.063599 
	C117.261703,129.366241 117.072350,129.668869 116.976006,129.975830 
	C116.976006,129.975830 116.969589,129.882919 116.450806,130.063309 
	C116.261612,130.365997 116.072418,130.668686 115.975937,130.975739 
	C115.975937,130.975739 115.969498,130.883148 115.450592,131.063065 
	C115.261543,131.365784 115.072495,131.668503 114.972549,131.970413 
	C114.972549,131.970413 114.959145,131.882324 114.451233,132.065582 
	C114.346916,132.378616 114.242592,132.691650 113.842453,133.616547 
	C96.176712,151.278580 81.228432,171.100204 68.011711,192.210037 
	C61.573109,202.493805 55.956669,213.292343 49.456139,224.061920 
	C49.265324,224.365921 49.074505,224.669922 48.962688,224.965912 
	C48.962688,224.965912 48.939259,224.890030 48.358082,225.156982 
	C48.196175,225.765442 48.034267,226.373917 47.960499,226.975998 
	C47.960499,226.975998 47.939762,226.890091 47.359482,227.158218 
	C47.197155,227.766281 47.034828,228.374359 46.960541,228.975845 
	C46.960541,228.975845 46.939610,228.890091 46.359009,229.157852 
	C46.196911,229.766159 46.034817,230.374466 45.960880,230.976135 
	C45.960880,230.976135 45.940025,230.890228 45.358624,231.156967 
	C45.196648,231.765564 45.034668,232.374161 44.960854,232.976151 
	C44.960854,232.976151 44.940018,232.890228 44.358631,233.156967 
	C44.196674,233.765549 44.034718,234.374130 43.960823,234.976181 
	C43.960823,234.976181 43.940071,234.890350 43.359200,235.157639 
	C43.196945,235.765915 43.034691,236.374176 42.960461,236.975616 
	C42.960461,236.975616 42.939232,236.889923 42.358257,237.157150 
	C42.196301,237.765503 42.034340,238.373871 41.959427,238.975037 
	C41.959427,238.975037 41.937477,238.890503 41.357582,239.160324 
	C41.286102,239.769608 41.214626,240.378906 40.825275,241.642059 
	C38.875080,245.732498 36.537502,249.686554 35.041122,253.936768 
	C28.217815,273.317322 20.821121,292.551331 15.220163,312.289062 
	C10.894026,327.534393 8.543648,343.387726 6.032703,359.085541 
	C4.098775,371.176025 2.302419,383.435120 2.180161,395.636627 
	C1.959804,417.628754 0.656015,439.697998 3.946924,461.625732 
	C5.616495,472.750244 6.401623,484.037262 8.622199,495.041870 
	C11.534457,509.474304 15.003073,523.834595 19.076786,537.982849 
	C24.728645,557.612122 31.617823,576.839294 41.020699,595.636658 
	C41.326340,596.127625 41.631981,596.618591 41.958744,597.025879 
	C41.958744,597.025879 41.872704,597.019897 41.982105,597.651123 
	C42.301250,598.137451 42.620399,598.623840 42.959896,599.025269 
	C42.959896,599.025269 42.872761,599.019653 42.983337,599.650635 
	C43.302357,600.136963 43.621372,600.623352 43.960243,601.024780 
	C43.960243,601.024780 43.873161,601.019470 43.984425,601.650574 
	C44.303051,602.137024 44.621677,602.623413 44.960239,603.024841 
	C44.960239,603.024841 44.873062,603.019409 44.984402,603.650452 
	C45.303043,604.136902 45.621689,604.623413 45.960354,605.024780 
	C45.960354,605.024780 45.873123,605.019348 45.984646,605.650085 
	C46.303078,606.136719 46.621510,606.623413 46.960014,607.025085 
	C46.960014,607.025085 46.872864,607.019714 46.982967,607.650513 
	C47.301994,608.137024 47.621025,608.623474 47.959949,609.024902 
	C47.959949,609.024902 47.872746,609.019714 47.983173,609.650818 
	C48.301968,610.137207 48.620762,610.623657 48.962627,611.034424 
	C48.962627,611.034424 48.883835,611.027832 49.068489,611.548401 
	C49.369007,611.747070 49.669525,611.945801 49.989407,612.872681 
	C55.001133,621.772705 59.663349,630.892395 65.092407,639.530151 
	C79.376648,662.256775 95.376846,683.703247 114.088531,703.531250 
	C114.379173,703.726807 114.669823,703.922302 114.972389,704.029602 
	C114.972389,704.029602 114.883446,704.030457 115.063126,704.549438 
	C115.365829,704.738586 115.668541,704.927734 115.975883,705.024109 
	C115.975883,705.024109 115.883240,705.030334 116.063370,705.549255 
	C116.366020,705.738586 116.668678,705.927917 116.976013,706.024109 
	C116.976013,706.024109 116.883018,706.030273 117.063644,706.549011 
	C117.366241,706.738464 117.668839,706.927917 117.976006,707.024109 
	C117.976006,707.024109 117.882820,707.030212 118.063904,707.548706 
	C118.366447,707.738342 118.668983,707.927979 118.976135,708.024109 
	C118.976135,708.024109 118.882690,708.030090 119.064117,708.548523 
	C119.366608,708.738220 119.669106,708.927917 119.976120,709.023987 
	C119.976120,709.023987 119.882607,709.030151 120.064339,709.548401 
	C120.366791,709.738098 120.669243,709.927856 120.976151,710.023926 
	C120.976151,710.023926 120.882545,710.030090 121.064484,710.548218 
	C121.366898,710.738037 121.669304,710.927856 121.976181,711.023926 
	C121.976181,711.023926 121.882507,711.030029 122.064636,711.548035 
	C122.367020,711.737915 122.669403,711.927795 122.976181,712.023865 
	C122.976181,712.023865 122.882492,712.030090 123.064697,712.548096 
	C123.367058,712.737915 123.669418,712.927734 123.976151,713.023865 
	C123.976151,713.023865 123.882492,713.030090 124.064674,713.548157 
	C124.367043,713.737976 124.669418,713.927795 124.976128,714.023865 
	C124.976128,714.023865 124.882477,714.030090 125.064438,714.548218 
	C125.366867,714.737976 125.669296,714.927795 125.976105,715.023865 
	C125.976105,715.023865 125.882523,715.030151 126.064323,715.548340 
	C126.366783,715.738098 126.669235,715.927795 126.976074,716.023926 
	C126.976074,716.023926 126.882538,716.030151 127.064072,716.548523 
	C127.366592,716.738220 127.669106,716.927856 127.976028,717.023987 
	C127.976028,717.023987 127.882614,717.030212 128.063843,717.548706 
	C128.366409,717.738220 128.668976,717.927734 128.975906,718.023926 
	C128.975906,718.023926 128.882721,718.030273 129.063568,718.548889 
	C129.366196,718.738281 129.668839,718.927734 129.975906,719.023987 
	C129.975906,719.023987 129.882919,719.030396 130.063293,719.549194 
	C130.365997,719.738342 130.668701,719.927551 130.975739,720.023987 
	C130.975739,720.023987 130.883148,720.030518 131.063080,720.549438 
	C131.365799,720.738464 131.668518,720.927490 131.970474,721.027405 
	C131.970474,721.027405 131.882324,721.040894 132.065582,721.548767 
	C132.378601,721.653137 132.691635,721.757446 133.616562,722.157593 
	C151.278625,739.823242 171.100189,754.771606 192.209991,767.988281 
	C202.493713,774.426941 213.292282,780.043335 224.061874,786.543823 
	C224.365891,786.734680 224.669907,786.925537 224.965973,787.037354 
	C224.965973,787.037354 224.890030,787.060730 225.156967,787.641907 
	C225.765427,787.803833 226.373901,787.965759 226.976059,788.039490 
	C226.976059,788.039490 226.890091,788.060242 227.158173,788.640564 
	C227.766251,788.802917 228.374329,788.965210 228.975906,789.039429 
	C228.975906,789.039429 228.890106,789.060425 229.157806,789.641113 
	C229.766129,789.803162 230.374451,789.965271 230.976105,790.039246 
	C230.976105,790.039246 230.890274,790.060059 231.157043,790.641418 
	C231.765610,790.803406 232.374176,790.965393 232.976120,791.039307 
	C232.976120,791.039307 232.890259,791.060059 233.157043,791.641418 
	C233.765594,791.803406 234.374130,791.965332 234.976166,792.039307 
	C234.976166,792.039307 234.890350,792.059937 235.157623,792.640808 
	C235.765900,792.803040 236.374191,792.965332 236.975662,793.039429 
	C236.975662,793.039429 236.889893,793.060730 237.157104,793.641724 
	C237.765472,793.803650 238.373840,793.965637 238.974991,794.040588 
	C238.974991,794.040588 238.890488,794.062561 239.160324,794.642456 
	C239.769592,794.713928 240.378860,794.785461 241.642029,795.174683 
	C245.732437,797.124878 249.686462,799.462524 253.936646,800.958862 
	C273.317169,807.782166 292.551117,815.178833 312.288849,820.779846 
	C327.534180,825.106018 343.387482,827.456360 359.085327,829.967407 
	C371.175781,831.901245 383.434967,833.697693 395.636475,833.819702 
	C417.628540,834.039673 439.697784,835.344177 461.625519,832.053040 
	C472.750000,830.383362 484.037109,829.598450 495.041718,827.377808 
	C509.474182,824.465515 523.834595,820.997009 537.982849,816.923218 
	C557.612122,811.271301 576.839294,804.382263 595.636658,794.979248 
	C596.127625,794.673645 596.618591,794.367981 597.025879,794.041199 
	C597.025879,794.041199 597.019897,794.127258 597.651123,794.017883 
	C598.137451,793.698730 598.623840,793.379639 599.025330,793.040100 
	C599.025330,793.040100 599.019653,793.127197 599.650635,793.016663 
	C600.136963,792.697693 600.623352,792.378723 601.024780,792.039856 
	C601.024780,792.039856 601.019470,792.126892 601.650452,792.015564 
	C602.136902,791.696960 602.623352,791.378357 603.024780,791.039856 
	C603.024780,791.039856 603.019409,791.127014 603.650452,791.015625 
	C604.136902,790.697021 604.623352,790.378418 605.024780,790.039795 
	C605.024780,790.039795 605.019409,790.126953 605.650085,790.015381 
	C606.136719,789.696960 606.623413,789.378540 607.025024,789.040100 
	C607.025024,789.040100 607.019714,789.127258 607.650513,789.017029 
	C608.136963,788.697998 608.623474,788.379028 609.024963,788.040100 
	C609.024963,788.040100 609.019714,788.127258 609.650818,788.016785 
	C610.137268,787.698059 610.623657,787.379333 611.034424,787.037537 
	C611.034424,787.037537 611.027893,787.116333 611.548401,786.931580 
	C611.747070,786.631042 611.945740,786.330505 612.872681,786.010620 
	C621.772705,780.998901 630.892334,776.336487 639.530090,770.907532 
	C662.256897,756.623413 683.703125,740.622925 703.531372,721.911438 
	C703.726868,721.620789 703.922302,721.330200 704.029602,721.027527 
	C704.029602,721.027527 704.030457,721.116516 704.549438,720.936829 
	C704.738525,720.634155 704.927673,720.331421 705.024109,720.024170 
	C705.024109,720.024170 705.030334,720.116821 705.549255,719.936584 
	C705.738586,719.633911 705.927917,719.331238 706.024109,719.024048 
	C706.024109,719.024048 706.030334,719.117004 706.549011,718.936279 
	C706.738464,718.633728 706.927917,718.331116 707.024048,718.024048 
	C707.024048,718.024048 707.030212,718.117310 707.548706,717.936157 
	C707.738342,717.633606 707.927979,717.331055 708.024170,717.023865 
	C708.024170,717.023865 708.030090,717.117249 708.548462,716.935913 
	C708.738220,716.633423 708.927917,716.330933 709.023987,716.023865 
	C709.023987,716.023865 709.030151,716.117371 709.548340,715.935669 
	C709.738098,715.633240 709.927856,715.330811 710.023987,715.023926 
	C710.023987,715.023926 710.030090,715.117493 710.548218,714.935486 
	C710.738037,714.633057 710.927856,714.330688 711.023987,714.023926 
	C711.023987,714.023926 711.030090,714.117493 711.548218,713.935364 
	C711.738037,713.632996 711.927856,713.330627 712.023987,713.023926 
	C712.023987,713.023926 712.030029,713.117493 712.548096,712.935364 
	C712.737915,712.632996 712.927795,712.330627 713.023865,712.023865 
	C713.023865,712.023865 713.030029,712.117554 713.548035,711.935364 
	C713.737915,711.632996 713.927734,711.330566 714.023865,711.023926 
	C714.023865,711.023926 714.030090,711.117554 714.548218,710.935486 
	C714.737976,710.633118 714.927795,710.330688 715.023865,710.023926 
	C715.023865,710.023926 715.030090,710.117554 715.548340,709.935669 
	C715.738098,709.633240 715.927856,709.330750 716.023987,709.023926 
	C716.023987,709.023926 716.030212,709.117432 716.548523,708.935913 
	C716.738220,708.633423 716.927856,708.330933 717.024048,708.023987 
	C717.024048,708.023987 717.030212,708.117310 717.548706,707.936096 
	C717.738220,707.633545 717.927734,707.330994 718.023865,707.024170 
	C718.023865,707.024170 718.030334,707.117432 718.548889,706.936401 
	C718.738281,706.633728 718.927673,706.331116 719.024109,706.024109 
	C719.024109,706.024109 719.030457,706.117065 719.549255,705.936646 
	C719.738403,705.633972 719.927551,705.331299 720.023987,705.024353 
	C720.023987,705.024353 720.030518,705.116943 720.549316,704.936890 
	C720.738403,704.634155 720.927490,704.331421 721.027405,704.029480 
	C721.027405,704.029480 721.040894,704.117676 721.548767,703.934387 
	C721.653137,703.621460 721.757446,703.308472 722.157471,702.383606 
	C739.823120,684.721436 754.771423,664.899841 767.988220,643.790100 
	C774.426819,633.506287 780.043274,622.707764 786.543823,611.938171 
	C786.734619,611.634094 786.925476,611.330017 787.037231,611.034058 
	C787.037231,611.034058 787.060730,611.109924 787.641907,610.843018 
	C787.803833,610.234558 787.965759,609.626099 788.039612,609.023926 
	C788.039612,609.023926 788.060242,609.109863 788.640503,608.841736 
	C788.802795,608.233704 788.965149,607.625610 789.039490,607.024109 
	C789.039490,607.024109 789.060364,607.109924 789.640869,606.842163 
	C789.803040,606.233826 789.965149,605.625488 790.039185,605.023865 
	C790.039185,605.023865 790.060059,605.109741 790.641418,604.842957 
	C790.803406,604.234375 790.965393,603.625854 791.039307,603.023804 
	C791.039307,603.023804 791.060059,603.109741 791.641418,602.843018 
	C791.803406,602.234436 791.965332,601.625916 792.039307,601.023804 
	C792.039307,601.023804 792.059937,601.109619 792.640930,600.842346 
	C792.803162,600.234070 792.965393,599.625793 793.039551,599.024353 
	C793.039551,599.024353 793.060730,599.110046 793.641663,598.842896 
	C793.803650,598.234497 793.965637,597.626160 794.040527,597.024902 
	C794.040527,597.024902 794.062561,597.109497 794.642395,596.839722 
	C794.713928,596.230469 794.785400,595.621277 795.174622,594.358032 
	C797.124817,590.267639 799.462646,586.313721 800.958984,582.063538 
	C807.782288,562.682983 815.178894,543.448914 820.779785,523.711121 
	C825.105957,508.465759 827.456360,492.612427 829.967285,476.914551 
	C831.901184,464.824066 833.697754,452.564941 833.819702,440.363434 
	C834.039673,418.371368 835.344177,396.302124 832.053040,374.374390 
	C830.383362,363.249908 829.598328,351.962830 827.377747,340.958221 
	C824.465393,326.525848 820.996948,312.165527 816.923340,298.017303 
	C811.271484,278.388000 804.382141,259.160889 794.979309,240.363480 
	C794.673706,239.872482 794.368042,239.381470 794.041260,238.974075 
	C794.041260,238.974075 794.127258,238.980103 794.017883,238.348846 
	C793.698792,237.862503 793.379639,237.376160 793.040161,236.974625 
	C793.040161,236.974625 793.127197,236.980316 793.016663,236.349335 
	C792.697693,235.862976 792.378723,235.376617 792.039795,234.975189 
	C792.039795,234.975189 792.126892,234.980515 792.015564,234.349457 
	C791.696960,233.863022 791.378418,233.376587 791.039795,232.975189 
	C791.039795,232.975189 791.127014,232.980576 791.015625,232.349487 
	C790.697021,231.863037 790.378418,231.376587 790.039795,230.975189 
	C790.039795,230.975189 790.126953,230.980606 790.015381,230.349854 
	C789.697021,229.863235 789.378601,229.376602 789.040039,228.974960 
	C789.040039,228.974960 789.127197,228.980270 789.017090,228.349426 
	C788.698059,227.862946 788.379089,227.376465 788.040039,226.975021 
	C788.040039,226.975021 788.127258,226.980209 788.016785,226.349121 
	C787.697998,225.862717 787.379272,225.376328 787.037598,224.965530 
	C787.037598,224.965530 787.116333,224.972031 786.931580,224.451569 
	C786.631042,224.252914 786.330505,224.054260 786.010559,223.127335 
	C780.998840,214.227310 776.336548,205.107635 770.907532,196.469910 
	C756.623413,173.743164 740.623047,152.296890 721.911499,132.468704 
	C721.620850,132.273209 721.330200,132.077713 721.027527,131.970352 
	C721.027527,131.970352 721.116516,131.969498 720.936829,131.450516 
	C720.634155,131.261383 720.331421,131.072250 720.024170,130.975845 
	C720.024170,130.975845 720.116821,130.969574 719.936584,130.450684 
	C719.633911,130.261398 719.331238,130.072113 719.023987,129.975952 
	C719.023987,129.975952 719.117004,129.969681 718.936279,129.450989 
	C718.633667,129.261536 718.331055,129.072083 718.023987,128.976059 
	C718.023987,128.976059 718.117310,128.969742 717.936096,128.451187 
	C717.633545,128.261627 717.330933,128.072067 717.023865,127.976013 
	C717.023865,127.976013 717.117249,127.969826 716.935913,127.451401 
	C716.633423,127.261734 716.330933,127.072067 716.023865,126.975998 
	C716.023865,126.975998 716.117310,126.969879 715.935608,126.451599 
	C715.633179,126.261848 715.330750,126.072090 715.023804,125.976082 
	C715.023804,125.976082 715.117432,125.969917 714.935486,125.451790 
	C714.633057,125.261978 714.330688,125.072174 714.023743,124.976204 
	C714.023743,124.976204 714.117493,124.969971 713.935364,124.451927 
	C713.632996,124.262070 713.330627,124.072205 713.023804,123.976173 
	C713.023804,123.976173 713.117554,123.969955 712.935364,123.451927 
	C712.632996,123.262070 712.330627,123.072212 712.023804,122.976189 
	C712.023804,122.976189 712.117554,122.969955 711.935364,122.451942 
	C711.632996,122.262093 711.330566,122.072235 711.023804,121.976257 
	C711.023804,121.976257 711.117554,121.969910 710.935486,121.451820 
	C710.633057,121.262024 710.330688,121.072220 710.023865,120.976204 
	C710.023865,120.976204 710.117554,120.969872 709.935669,120.451675 
	C709.633240,120.261940 709.330750,120.072205 709.023865,119.976112 
z"/>
<path fill="#927B2D" opacity="1.000000" stroke="none" 
	d="
M595.006531,794.856812 
	C576.839294,804.382263 557.612122,811.271301 537.982849,816.923218 
	C523.834595,820.997009 509.474182,824.465515 495.041718,827.377808 
	C484.037109,829.598450 472.750000,830.383362 461.625519,832.053040 
	C439.697784,835.344177 417.628540,834.039673 395.636475,833.819702 
	C383.434967,833.697693 371.175781,831.901245 359.085327,829.967407 
	C343.387482,827.456360 327.534180,825.106018 312.288849,820.779846 
	C292.551117,815.178833 273.317169,807.782166 253.936646,800.958862 
	C249.686462,799.462524 245.732437,797.124878 241.124084,794.787109 
	C240.034256,794.287231 239.462372,794.174927 238.890488,794.062622 
	C238.890488,794.062561 238.974991,794.040588 238.824493,793.803223 
	C238.079300,793.397522 237.484604,793.229126 236.889893,793.060669 
	C236.889893,793.060730 236.975662,793.039429 236.824341,792.803223 
	C236.078796,792.398071 235.484573,792.229004 234.890350,792.059937 
	C234.890350,792.059937 234.976166,792.039307 234.824020,791.803589 
	C234.078003,791.398621 233.484131,791.229309 232.890259,791.060059 
	C232.890259,791.060059 232.976120,791.039307 232.823914,790.803711 
	C232.077881,790.398743 231.484085,790.229431 230.890274,790.060059 
	C230.890274,790.060059 230.976105,790.039246 230.823868,789.803711 
	C230.077789,789.398865 229.483948,789.229614 228.890106,789.060425 
	C228.890106,789.060425 228.975906,789.039429 228.824554,788.803101 
	C228.078842,788.397949 227.484467,788.229065 226.890091,788.060242 
	C226.890091,788.060242 226.976059,788.039490 226.824432,787.803223 
	C226.078537,787.398254 225.484283,787.229492 224.890030,787.060730 
	C224.890030,787.060730 224.965973,787.037354 224.861298,786.826172 
	C224.457001,786.420654 224.157394,786.226257 223.857788,786.031921 
	C213.292282,780.043335 202.493713,774.426941 192.209991,767.988281 
	C171.100189,754.771606 151.278625,739.823242 133.180878,721.804810 
	C132.503830,721.217957 132.216202,721.080933 131.882324,721.040894 
	C131.882324,721.040894 131.970474,721.027405 131.870117,720.820190 
	C131.474228,720.418823 131.178680,720.224670 130.883148,720.030518 
	C130.883148,720.030518 130.975739,720.023987 130.872498,719.818665 
	C130.473816,719.419006 130.178375,719.224670 129.882935,719.030396 
	C129.882919,719.030396 129.975906,719.023987 129.872314,718.818970 
	C129.473373,718.419434 129.178040,718.224854 128.882721,718.030273 
	C128.882721,718.030273 128.975906,718.023926 128.872070,717.819214 
	C128.473038,717.419678 128.177826,717.224976 127.882614,717.030212 
	C127.882614,717.030212 127.976028,717.023987 127.871979,716.819397 
	C127.472801,716.419922 127.177681,716.225037 126.882553,716.030151 
	C126.882538,716.030151 126.976074,716.023926 126.871841,715.819458 
	C126.472580,715.420105 126.177544,715.225159 125.882507,715.030151 
	C125.882523,715.030151 125.976105,715.023865 125.871681,714.819580 
	C125.472328,714.420227 125.177391,714.225159 124.882462,714.030090 
	C124.882477,714.030090 124.976128,714.023865 124.871628,713.819702 
	C124.472244,713.420410 124.177361,713.225281 123.882492,713.030090 
	C123.882492,713.030090 123.976151,713.023865 123.871613,712.819702 
	C123.472198,712.420410 123.177330,712.225281 122.882477,712.030151 
	C122.882492,712.030090 122.976181,712.023865 122.871674,711.819702 
	C122.472282,711.420349 122.177399,711.225159 121.882507,711.030029 
	C121.882507,711.030029 121.976181,711.023926 121.871773,710.819641 
	C121.472427,710.420288 121.177490,710.225159 120.882545,710.030090 
	C120.882545,710.030090 120.976151,710.023926 120.871872,709.819580 
	C120.472595,709.420166 120.177605,709.225159 119.882614,709.030151 
	C119.882607,709.030151 119.976120,709.023987 119.871986,708.819458 
	C119.472794,708.420044 119.177734,708.225098 118.882683,708.030090 
	C118.882690,708.030090 118.976135,708.024109 118.872208,707.819336 
	C118.473137,707.419800 118.177986,707.224976 117.882828,707.030212 
	C117.882820,707.030212 117.976006,707.024109 117.872360,706.819153 
	C117.473495,706.419556 117.178268,706.224915 116.883034,706.030273 
	C116.883018,706.030273 116.976013,706.024109 116.872559,705.818970 
	C116.473816,705.419373 116.178513,705.224854 115.883224,705.030396 
	C115.883240,705.030334 115.975883,705.024109 115.872742,704.818665 
	C115.474213,704.418945 115.178833,704.224731 114.883446,704.030457 
	C114.883446,704.030457 114.972389,704.029602 114.899544,703.839844 
	C114.684235,703.339600 114.454781,703.120239 114.138329,702.991882 
	C95.376846,683.703247 79.376648,662.256775 65.092407,639.530151 
	C59.663349,630.892395 55.001133,621.772705 49.875656,612.256165 
	C49.469215,611.435730 49.176525,611.231750 48.883835,611.027832 
	C48.883835,611.027832 48.962627,611.034424 48.953609,610.750854 
	C48.587311,609.984802 48.230026,609.502258 47.872742,609.019714 
	C47.872746,609.019714 47.959949,609.024902 47.951523,608.746094 
	C47.586346,607.984802 47.229591,607.502258 46.872852,607.019714 
	C46.872864,607.019714 46.960014,607.025085 46.951477,606.746460 
	C46.586342,605.984985 46.229736,605.502197 45.873127,605.019348 
	C45.873123,605.019348 45.960354,605.024780 45.951752,604.746216 
	C45.586449,603.984924 45.229755,603.502136 44.873062,603.019409 
	C44.873062,603.019409 44.960239,603.024841 44.951698,602.746216 
	C44.586491,601.984924 44.229824,601.502197 43.873161,601.019470 
	C43.873161,601.019470 43.960243,601.024780 43.951820,600.745972 
	C43.586525,599.984680 43.229652,599.502136 42.872772,599.019653 
	C42.872761,599.019653 42.959896,599.025269 42.952042,598.746216 
	C42.587032,597.984741 42.229874,597.502319 41.872707,597.019897 
	C41.872704,597.019897 41.958744,597.025879 41.960327,596.767700 
	C41.689018,596.008545 41.416130,595.507568 41.143242,595.006531 
	C31.617823,576.839294 24.728645,557.612122 19.076786,537.982849 
	C15.003073,523.834595 11.534457,509.474304 8.622199,495.041870 
	C6.401623,484.037262 5.616495,472.750244 3.946924,461.625732 
	C0.656015,439.697998 1.959804,417.628754 2.180161,395.636627 
	C2.302419,383.435120 4.098775,371.176025 6.032703,359.085541 
	C8.543648,343.387726 10.894026,327.534393 15.220163,312.289062 
	C20.821121,292.551331 28.217815,273.317322 35.041122,253.936768 
	C36.537502,249.686554 38.875080,245.732498 41.212914,241.124100 
	C41.712860,240.034256 41.825169,239.462387 41.937477,238.890503 
	C41.937477,238.890503 41.959427,238.975037 42.196693,238.824493 
	C42.602383,238.079285 42.770809,237.484604 42.939232,236.889923 
	C42.939232,236.889923 42.960461,236.975616 43.196690,236.824341 
	C43.601971,236.078827 43.771023,235.484589 43.940071,234.890350 
	C43.940071,234.890350 43.960823,234.976181 44.196449,234.823975 
	C44.601391,234.077927 44.770706,233.484085 44.940018,232.890228 
	C44.940018,232.890228 44.960854,232.976151 45.196365,232.823883 
	C45.601261,232.077835 45.770645,231.484024 45.940025,230.890228 
	C45.940025,230.890228 45.960880,230.976135 46.196381,230.823853 
	C46.601120,230.077759 46.770363,229.483917 46.939610,228.890091 
	C46.939610,228.890091 46.960541,228.975845 47.196861,228.824524 
	C47.602043,228.078842 47.770905,227.484467 47.939766,226.890091 
	C47.939762,226.890091 47.960499,226.975998 48.196747,226.824402 
	C48.601746,226.078537 48.770500,225.484283 48.939255,224.890030 
	C48.939259,224.890030 48.962688,224.965912 49.173866,224.861267 
	C49.579388,224.457031 49.773724,224.157440 49.968063,223.857864 
	C55.956669,213.292343 61.573109,202.493805 68.011711,192.210037 
	C81.228432,171.100204 96.176712,151.278580 114.195190,133.180847 
	C114.782227,132.503860 114.919296,132.216263 114.959145,131.882324 
	C114.959145,131.882324 114.972549,131.970413 115.179794,131.870087 
	C115.581192,131.474213 115.775337,131.178680 115.969498,130.883148 
	C115.969498,130.883148 115.975937,130.975739 116.181229,130.872482 
	C116.580879,130.473785 116.775230,130.178345 116.969589,129.882919 
	C116.969589,129.882919 116.976006,129.975830 117.181015,129.872269 
	C117.580566,129.473389 117.775108,129.178055 117.969658,128.882736 
	C117.969658,128.882736 117.976044,128.975906 118.180801,128.872086 
	C118.580284,128.473053 118.775002,128.177841 118.969719,127.882637 
	C118.969719,127.882637 118.976059,127.975975 119.180634,127.871948 
	C119.580078,127.472809 119.774940,127.177681 119.969803,126.882553 
	C119.969803,126.882553 119.976105,126.976059 120.180511,126.871841 
	C120.579895,126.472580 120.774879,126.177544 120.969864,125.882515 
	C120.969864,125.882515 120.976120,125.976112 121.180389,125.871735 
	C121.579742,125.472397 121.774818,125.177437 121.969902,124.882477 
	C121.969902,124.882477 121.976151,124.976143 122.180328,124.871658 
	C122.579643,124.472275 122.774796,124.177376 122.969948,123.882477 
	C122.969948,123.882477 122.976151,123.976196 123.180283,123.871658 
	C123.579605,123.472237 123.774788,123.177361 123.969971,122.882484 
	C123.969963,122.882484 123.976120,122.976204 124.180283,122.871681 
	C124.579620,122.472282 124.774796,122.177399 124.969971,121.882515 
	C124.969963,121.882515 124.976128,121.976204 125.180344,121.871758 
	C125.579674,121.472389 125.774780,121.177467 125.969894,120.882538 
	C125.969894,120.882545 125.976051,120.976158 126.180405,120.871857 
	C126.579796,120.472580 126.774834,120.177597 126.969879,119.882614 
	C126.969879,119.882622 126.976021,119.976120 127.180534,119.871986 
	C127.579971,119.472801 127.774895,119.177750 127.969818,118.882690 
	C127.969826,118.882698 127.975990,118.976074 128.180679,118.872162 
	C128.580170,118.473106 128.774979,118.177971 128.969788,117.882828 
	C128.969772,117.882828 128.975922,117.976013 129.180817,117.872345 
	C129.580383,117.473457 129.775040,117.178246 129.969696,116.883026 
	C129.969696,116.883026 129.975830,116.975922 130.181015,116.872536 
	C130.580658,116.473846 130.775116,116.178551 130.969574,115.883240 
	C130.969574,115.883240 130.975769,115.975807 131.181244,115.872726 
	C131.580963,115.474251 131.775208,115.178848 131.969452,114.883446 
	C131.969452,114.883446 131.970261,114.972321 132.160126,114.899513 
	C132.660370,114.684258 132.879761,114.454796 133.008148,114.138329 
	C152.296753,95.376808 173.743225,79.376663 196.469894,65.092422 
	C205.107620,59.663403 214.227295,55.001137 223.743851,49.875645 
	C224.564301,49.469212 224.768188,49.176533 224.972076,48.883850 
	C224.972076,48.883850 224.965515,48.962643 225.249084,48.953613 
	C226.015167,48.587315 226.497711,48.230042 226.980240,47.872772 
	C226.980240,47.872772 226.975006,47.959984 227.253815,47.951550 
	C228.015167,47.586372 228.497726,47.229626 228.980286,46.872879 
	C228.980286,46.872883 228.974899,46.959999 229.253555,46.951469 
	C230.015030,46.586342 230.497833,46.229740 230.980637,45.873135 
	C230.980637,45.873131 230.975174,45.960327 231.253784,45.951733 
	C232.015121,45.586452 232.497864,45.229763 232.980606,44.873077 
	C232.980606,44.873085 232.975189,44.960300 233.253784,44.951725 
	C234.015091,44.586491 234.497818,44.229828 234.980530,43.873169 
	C234.980530,43.873169 234.975189,43.960255 235.253998,43.951820 
	C236.015320,43.586521 236.497818,43.229649 236.980316,42.872776 
	C236.980316,42.872772 236.974701,42.959904 237.253754,42.952049 
	C238.015244,42.587032 238.497681,42.229874 238.980118,41.872719 
	C238.980118,41.872719 238.974106,41.958767 239.232269,41.960335 
	C239.991531,41.689011 240.492615,41.416122 240.993698,41.143242 
	C259.160889,31.617790 278.388031,24.728600 298.017303,19.076771 
	C312.165527,15.003101 326.525818,11.534406 340.958252,8.622143 
	C351.962860,6.401565 363.249878,5.616489 374.374390,3.946924 
	C396.302094,0.656011 418.371338,1.959807 440.363434,2.180161 
	C452.564941,2.302417 464.824036,4.098782 476.914520,6.032711 
	C492.612335,8.543663 508.465607,10.894058 523.710938,15.220192 
	C543.448669,20.821150 562.682678,28.217783 582.063232,35.041100 
	C586.313538,36.537498 590.267578,38.875137 594.876038,41.212982 
	C595.965820,41.712887 596.537659,41.825184 597.109497,41.937477 
	C597.109497,41.937481 597.024963,41.959435 597.175537,42.196682 
	C597.920715,42.602364 598.515381,42.770798 599.110046,42.939232 
	C599.110046,42.939232 599.024353,42.960423 599.175659,43.196617 
	C599.921204,43.601898 600.515381,43.770988 601.109619,43.940079 
	C601.109619,43.940079 601.023804,43.960808 601.176025,44.196434 
	C601.922119,44.601376 602.515930,44.770691 603.109741,44.940010 
	C603.109741,44.940014 603.023804,44.960861 603.176086,45.196369 
	C603.922180,45.601261 604.515930,45.770645 605.109741,45.940025 
	C605.109741,45.940025 605.023804,45.960899 605.176086,46.196396 
	C605.922241,46.601135 606.516052,46.770374 607.109924,46.939613 
	C607.109924,46.939617 607.024109,46.960567 607.175476,47.196846 
	C607.921204,47.602001 608.515503,47.770885 609.109863,47.939766 
	C609.109863,47.939766 609.023926,47.960457 609.175537,48.196732 
	C609.921387,48.601757 610.515686,48.770512 611.109924,48.939259 
	C611.109924,48.939255 611.034058,48.962715 611.138733,49.173882 
	C611.542969,49.579395 611.842529,49.773735 612.142151,49.968063 
	C622.707642,55.956665 633.506226,61.573101 643.789978,68.011703 
	C664.899780,81.228416 684.721375,96.176720 702.819092,114.195198 
	C703.496094,114.782227 703.783691,114.919296 704.117676,114.959137 
	C704.117676,114.959137 704.029541,114.972580 704.129883,115.179810 
	C704.525879,115.581177 704.821411,115.775314 705.116943,115.969467 
	C705.116943,115.969475 705.024292,115.975990 705.127563,116.181252 
	C705.526184,116.580864 705.821655,116.775215 706.117065,116.969559 
	C706.117065,116.969551 706.024170,116.975975 706.127747,117.180984 
	C706.526672,117.580544 706.822021,117.775093 707.117371,117.969650 
	C707.117371,117.969650 707.024109,117.976158 707.127930,118.180832 
	C707.526978,118.580238 707.822144,118.774979 708.117310,118.969727 
	C708.117310,118.969734 708.023987,118.976051 708.128052,119.180603 
	C708.527161,119.580048 708.822266,119.774933 709.117371,119.969818 
	C709.117371,119.969826 709.023865,119.976112 709.128052,120.180527 
	C709.527405,120.579910 709.822449,120.774887 710.117554,120.969872 
	C710.117554,120.969872 710.023865,120.976204 710.128296,121.180435 
	C710.527649,121.579750 710.822571,121.774826 711.117554,121.969910 
	C711.117554,121.969910 711.023804,121.976257 711.128296,122.180374 
	C711.527771,122.579643 711.822632,122.774803 712.117554,122.969963 
	C712.117554,122.969955 712.023804,122.976189 712.128418,123.180298 
	C712.527832,123.579590 712.822693,123.774773 713.117554,123.969955 
	C713.117554,123.969955 713.023804,123.976173 713.128357,124.180298 
	C713.527771,124.579605 713.822632,124.774796 714.117493,124.969978 
	C714.117493,124.969971 714.023743,124.976204 714.128174,125.180397 
	C714.527588,125.579697 714.822510,125.774811 715.117432,125.969925 
	C715.117432,125.969917 715.023804,125.976082 715.128052,126.180420 
	C715.527344,126.579796 715.822327,126.774834 716.117310,126.969879 
	C716.117310,126.969879 716.023865,126.975998 716.127930,127.180542 
	C716.527100,127.580002 716.822205,127.774918 717.117249,127.969833 
	C717.117249,127.969826 717.023865,127.976013 717.127808,128.180679 
	C717.526978,128.580139 717.822144,128.774933 718.117310,128.969742 
	C718.117310,128.969742 718.023987,128.976059 718.127686,129.180893 
	C718.526550,129.580383 718.821777,129.775040 719.117004,129.969681 
	C719.117004,129.969681 719.023987,129.975952 719.127441,130.181076 
	C719.526184,130.580658 719.821533,130.775116 720.116821,130.969574 
	C720.116821,130.969574 720.024170,130.975845 720.127197,131.181274 
	C720.525696,131.580963 720.821106,131.775223 721.116516,131.969498 
	C721.116516,131.969498 721.027527,131.970352 721.100464,132.160187 
	C721.315796,132.660446 721.545227,132.879807 721.861755,133.008087 
	C740.623047,152.296890 756.623413,173.743164 770.907532,196.469910 
	C776.336548,205.107635 780.998840,214.227310 786.124390,223.743866 
	C786.530945,224.564285 786.823608,224.768158 787.116333,224.972031 
	C787.116333,224.972031 787.037598,224.965530 787.046570,225.249069 
	C787.412781,226.015137 787.770020,226.497665 788.127319,226.980194 
	C788.127258,226.980209 788.040039,226.975021 788.048462,227.253830 
	C788.413696,228.015182 788.770447,228.497711 789.127197,228.980255 
	C789.127197,228.980270 789.040039,228.974960 789.048584,229.253601 
	C789.413757,230.015030 789.770386,230.497803 790.126953,230.980591 
	C790.126953,230.980606 790.039795,230.975189 790.048340,231.253815 
	C790.413635,232.015152 790.770325,232.497879 791.127014,232.980591 
	C791.127014,232.980576 791.039795,232.975189 791.048340,233.253815 
	C791.413574,234.015121 791.770203,234.497818 792.126892,234.980530 
	C792.126892,234.980515 792.039795,234.975189 792.048218,235.254013 
	C792.413513,236.015335 792.770386,236.497818 793.127197,236.980316 
	C793.127197,236.980316 793.040161,236.974625 793.047974,237.253723 
	C793.412964,238.015244 793.770142,238.497665 794.127258,238.980103 
	C794.127258,238.980103 794.041260,238.974075 794.039673,239.232300 
	C794.310974,239.991547 794.583862,240.492599 794.856812,240.993622 
	C804.382141,259.160889 811.271484,278.388000 816.923340,298.017303 
	C820.996948,312.165527 824.465393,326.525848 827.377747,340.958221 
	C829.598328,351.962830 830.383362,363.249908 832.053040,374.374390 
	C835.344177,396.302124 834.039673,418.371368 833.819702,440.363434 
	C833.697754,452.564941 831.901184,464.824066 829.967285,476.914551 
	C827.456360,492.612427 825.105957,508.465759 820.779785,523.711121 
	C815.178894,543.448914 807.782288,562.682983 800.958984,582.063538 
	C799.462646,586.313721 797.124817,590.267639 794.787048,594.875977 
	C794.287170,595.965759 794.174866,596.537659 794.062561,597.109497 
	C794.062561,597.109497 794.040527,597.024902 793.803284,597.175537 
	C793.397583,597.920715 793.229126,598.515381 793.060669,599.110046 
	C793.060730,599.110046 793.039551,599.024353 792.803345,599.175659 
	C792.398071,599.921204 792.229004,600.515381 792.059937,601.109619 
	C792.059937,601.109619 792.039307,601.023804 791.803589,601.176025 
	C791.398621,601.922119 791.229309,602.515930 791.060059,603.109741 
	C791.060059,603.109741 791.039307,603.023804 790.803772,603.176086 
	C790.398865,603.922180 790.229492,604.515930 790.060059,605.109741 
	C790.060059,605.109741 790.039185,605.023865 789.803711,605.176147 
	C789.398926,605.922241 789.229614,606.516052 789.060364,607.109924 
	C789.060364,607.109924 789.039490,607.024109 788.803223,607.175415 
	C788.398010,607.921143 788.229126,608.515503 788.060303,609.109863 
	C788.060242,609.109863 788.039612,609.023926 787.803345,609.175537 
	C787.398254,609.921448 787.229492,610.515686 787.060730,611.109924 
	C787.060730,611.109924 787.037231,611.034058 786.826111,611.138733 
	C786.420593,611.542969 786.226196,611.842590 786.031860,612.142212 
	C780.043274,622.707764 774.426819,633.506287 767.988220,643.790100 
	C754.771423,664.899841 739.823120,684.721436 721.804810,702.819214 
	C721.217834,703.496094 721.080750,703.783691 721.040894,704.117676 
	C721.040894,704.117676 721.027405,704.029480 720.820190,704.129883 
	C720.418823,704.525879 720.224670,704.821411 720.030518,705.116943 
	C720.030518,705.116943 720.023987,705.024353 719.818726,705.127563 
	C719.419128,705.526184 719.224792,705.821655 719.030457,706.117065 
	C719.030457,706.117065 719.024109,706.024109 718.819092,706.127686 
	C718.419495,706.526672 718.224915,706.822021 718.030334,707.117432 
	C718.030334,707.117432 718.023865,707.024170 717.819153,707.127930 
	C717.419678,707.526917 717.224915,707.822083 717.030212,708.117310 
	C717.030212,708.117310 717.024048,708.023987 716.819458,708.128052 
	C716.419922,708.527161 716.225098,708.822327 716.030212,709.117432 
	C716.030212,709.117432 716.023987,709.023926 715.819580,709.128235 
	C715.420166,709.527588 715.225159,709.822571 715.030090,710.117554 
	C715.030090,710.117554 715.023865,710.023926 714.819580,710.128296 
	C714.420227,710.527588 714.225159,710.822571 714.030090,711.117554 
	C714.030090,711.117554 714.023865,711.023926 713.819702,711.128418 
	C713.420349,711.527832 713.225220,711.822693 713.030029,712.117554 
	C713.030029,712.117554 713.023865,712.023865 712.819702,712.128418 
	C712.420410,712.527771 712.225220,712.822632 712.030029,713.117493 
	C712.030029,713.117493 712.023987,713.023926 711.819763,713.128357 
	C711.420410,713.527710 711.225281,713.822632 711.030151,714.117493 
	C711.030090,714.117493 711.023987,714.023926 710.819702,714.128296 
	C710.420288,714.527588 710.225220,714.822571 710.030090,715.117493 
	C710.030090,715.117493 710.023987,715.023926 709.819580,715.128174 
	C709.420166,715.527405 709.225159,715.822388 709.030151,716.117371 
	C709.030151,716.117371 709.023987,716.023865 708.819458,716.128052 
	C708.420044,716.527222 708.225098,716.822266 708.030090,717.117249 
	C708.030090,717.117249 708.024170,717.023865 707.819397,717.127747 
	C707.419800,717.526855 707.225037,717.822083 707.030212,718.117310 
	C707.030212,718.117310 707.024048,718.024048 706.819214,718.127686 
	C706.419678,718.526550 706.225037,718.821777 706.030334,719.117004 
	C706.030334,719.117004 706.024109,719.024048 705.818970,719.127441 
	C705.419373,719.526245 705.224854,719.821533 705.030334,720.116821 
	C705.030334,720.116821 705.024109,720.024170 704.818726,720.127258 
	C704.419067,720.525757 704.224792,720.821167 704.030518,721.116577 
	C704.030457,721.116516 704.029602,721.027527 703.839844,721.100403 
	C703.339600,721.315674 703.120239,721.545166 702.992004,721.861755 
	C683.703125,740.622925 662.256897,756.623413 639.530090,770.907532 
	C630.892334,776.336487 621.772705,780.998901 612.256104,786.124390 
	C611.435608,786.530945 611.231750,786.823608 611.027893,787.116333 
	C611.027893,787.116333 611.034424,787.037537 610.750854,787.046448 
	C609.984802,787.412659 609.502258,787.769958 609.019714,788.127258 
	C609.019714,788.127258 609.024963,788.040100 608.746094,788.048523 
	C607.984741,788.413696 607.502197,788.770447 607.019714,789.127258 
	C607.019714,789.127258 607.025024,789.040100 606.746399,789.048584 
	C605.984985,789.413696 605.502197,789.770325 605.019409,790.126953 
	C605.019409,790.126953 605.024780,790.039795 604.746216,790.048340 
	C603.984863,790.413635 603.502136,790.770325 603.019409,791.127014 
	C603.019409,791.127014 603.024780,791.039856 602.746216,791.048401 
	C601.984924,791.413635 601.502197,791.770264 601.019470,792.126892 
	C601.019470,792.126892 601.024780,792.039856 600.745972,792.048279 
	C599.984619,792.413513 599.502136,792.770386 599.019653,793.127197 
	C599.019653,793.127197 599.025330,793.040100 598.746216,793.047913 
	C597.984741,793.412903 597.502319,793.770081 597.019897,794.127258 
	C597.019897,794.127258 597.025879,794.041199 596.767700,794.039673 
	C596.008545,794.310974 595.507568,794.583862 595.006531,794.856812 
M612.523438,224.031082 
	C548.875183,187.642563 485.215271,151.274353 421.617279,114.798187 
	C418.796783,113.180511 416.848785,113.807884 414.376648,115.224503 
	C328.003265,164.719696 241.611771,214.183304 155.157211,263.536438 
	C152.098984,265.282257 150.769348,267.224976 151.062469,270.597351 
	C151.205978,272.248230 151.016190,273.926056 151.016129,275.591705 
	C151.012451,371.906891 151.061768,468.222137 150.889130,564.536987 
	C150.878967,570.206116 152.458160,573.307434 157.568695,576.187317 
	C243.717697,624.733643 329.737274,673.509766 415.722809,722.345398 
	C418.135010,723.715393 419.616974,723.662048 421.933624,722.325745 
	C442.077271,710.706543 462.325806,699.269470 482.518646,687.735413 
	C548.900330,649.818665 615.264282,611.870911 681.673157,574.001831 
	C684.484741,572.398560 686.024902,570.820557 686.020630,567.197937 
	C685.903687,468.383392 685.905884,369.568634 686.005249,270.754059 
	C686.008972,267.059174 684.684814,265.120667 681.575500,263.362854 
	C658.728333,250.446182 635.976868,237.360199 612.523438,224.031082 
z"/>
<path fill="#8B5B2C" opacity="1.000000" stroke="none" 
	d="
M792.071228,234.664993 
	C791.770203,234.497818 791.413574,234.015121 791.058350,233.211288 
	C791.378418,233.376587 791.696960,233.863022 792.071228,234.664993 
z"/>
<path fill="#8B5B2C" opacity="1.000000" stroke="none" 
	d="
M41.081970,595.321594 
	C41.416130,595.507568 41.689018,596.008545 41.949768,596.809570 
	C41.631981,596.618591 41.326340,596.127625 41.081970,595.321594 
z"/>
<path fill="#8B5B2C" opacity="1.000000" stroke="none" 
	d="
M235.023987,792.350342 
	C235.484573,792.229004 236.078796,792.398071 236.827759,792.847290 
	C236.374191,792.965332 235.765900,792.803040 235.023987,792.350342 
z"/>
<path fill="#8B5B2C" opacity="1.000000" stroke="none" 
	d="
M599.335144,793.071960 
	C599.502136,792.770386 599.984619,792.413513 600.788391,792.058228 
	C600.623352,792.378723 600.136963,792.697693 599.335144,793.071960 
z"/>
<path fill="#8B5B2C" opacity="1.000000" stroke="none" 
	d="
M237.023499,793.351196 
	C237.484604,793.229126 238.079300,793.397522 238.828110,793.846802 
	C238.373840,793.965637 237.765472,793.803650 237.023499,793.351196 
z"/>
<path fill="#8B5B2C" opacity="1.000000" stroke="none" 
	d="
M597.335510,794.072571 
	C597.502319,793.770081 597.984741,793.412903 598.788696,793.058105 
	C598.623840,793.379639 598.137451,793.698730 597.335510,794.072571 
z"/>
<path fill="#8B5B2C" opacity="1.000000" stroke="none" 
	d="
M794.918091,240.678558 
	C794.583862,240.492599 794.310974,239.991547 794.050232,239.190491 
	C794.368042,239.381470 794.673706,239.872482 794.918091,240.678558 
z"/>
<path fill="#8B5B2C" opacity="1.000000" stroke="none" 
	d="
M41.647530,239.025421 
	C41.825169,239.462387 41.712860,240.034256 41.371853,240.797165 
	C41.214626,240.378906 41.286102,239.769608 41.647530,239.025421 
z"/>
<path fill="#8B5B2C" opacity="1.000000" stroke="none" 
	d="
M794.072571,238.664474 
	C793.770142,238.497665 793.412964,238.015244 793.058228,237.211304 
	C793.379639,237.376160 793.698792,237.862503 794.072571,238.664474 
z"/>
<path fill="#8B5B2C" opacity="1.000000" stroke="none" 
	d="
M42.648746,237.023529 
	C42.770809,237.484604 42.602383,238.079285 42.153172,238.828094 
	C42.034340,238.373871 42.196301,237.765503 42.648746,237.023529 
z"/>
<path fill="#8B5B2C" opacity="1.000000" stroke="none" 
	d="
M793.071899,236.664825 
	C792.770386,236.497818 792.413513,236.015335 792.058228,235.211548 
	C792.378723,235.376617 792.697693,235.862976 793.071899,236.664825 
z"/>
<path fill="#8B5B2C" opacity="1.000000" stroke="none" 
	d="
M43.649635,235.023987 
	C43.771023,235.484589 43.601971,236.078827 43.152679,236.827759 
	C43.034691,236.374176 43.196945,235.765915 43.649635,235.023987 
z"/>
<path fill="#8B5B2C" opacity="1.000000" stroke="none" 
	d="
M794.352478,596.974609 
	C794.174866,596.537659 794.287170,595.965759 794.628174,595.203003 
	C794.785400,595.621277 794.713928,596.230469 794.352478,596.974609 
z"/>
<path fill="#8B5B2C" opacity="1.000000" stroke="none" 
	d="
M44.649323,233.023590 
	C44.770706,233.484085 44.601391,234.077927 44.152420,234.827240 
	C44.034718,234.374130 44.196674,233.765549 44.649323,233.023590 
z"/>
<path fill="#8B5B2C" opacity="1.000000" stroke="none" 
	d="
M791.071289,232.665039 
	C790.770325,232.497879 790.413635,232.015152 790.058350,231.211273 
	C790.378418,231.376587 790.697021,231.863037 791.071289,232.665039 
z"/>
<path fill="#8B5B2C" opacity="1.000000" stroke="none" 
	d="
M45.649326,231.023590 
	C45.770645,231.484024 45.601261,232.077835 45.152283,232.827194 
	C45.034668,232.374161 45.196648,231.765564 45.649326,231.023590 
z"/>
<path fill="#8B5B2C" opacity="1.000000" stroke="none" 
	d="
M790.071167,230.665222 
	C789.770386,230.497803 789.413757,230.015030 789.058655,229.211121 
	C789.378601,229.376602 789.697021,229.863235 790.071167,230.665222 
z"/>
<path fill="#8B5B2C" opacity="1.000000" stroke="none" 
	d="
M46.649307,229.023972 
	C46.770363,229.483917 46.601120,230.077759 46.152298,230.827179 
	C46.034817,230.374466 46.196911,229.766159 46.649307,229.023972 
z"/>
<path fill="#8B5B2C" opacity="1.000000" stroke="none" 
	d="
M789.072144,228.664841 
	C788.770447,228.497711 788.413696,228.015182 788.058533,227.211304 
	C788.379089,227.376465 788.698059,227.862946 789.072144,228.664841 
z"/>
<path fill="#8B5B2C" opacity="1.000000" stroke="none" 
	d="
M47.649624,227.024155 
	C47.770905,227.484467 47.602043,228.078842 47.152840,228.827820 
	C47.034828,228.374359 47.197155,227.766281 47.649624,227.024155 
z"/>
<path fill="#8B5B2C" opacity="1.000000" stroke="none" 
	d="
M788.072021,226.664642 
	C787.770020,226.497665 787.412781,226.015137 787.058044,225.211273 
	C787.379272,225.376328 787.697998,225.862717 788.072021,226.664642 
z"/>
<path fill="#8B5B2C" opacity="1.000000" stroke="none" 
	d="
M48.648666,225.023499 
	C48.770500,225.484283 48.601746,226.078537 48.152672,226.827576 
	C48.034267,226.373917 48.196175,225.765442 48.648666,225.023499 
z"/>
<path fill="#8B5B2C" opacity="1.000000" stroke="none" 
	d="
M239.025406,794.352539 
	C239.462372,794.174927 240.034256,794.287231 240.797134,794.628296 
	C240.378860,794.785461 239.769592,794.713928 239.025406,794.352539 
z"/>
<path fill="#8B5B2C" opacity="1.000000" stroke="none" 
	d="
M595.321594,794.918030 
	C595.507568,794.583862 596.008545,794.310974 596.809570,794.050232 
	C596.618591,794.367981 596.127625,794.673645 595.321594,794.918030 
z"/>
<path fill="#8B5B2C" opacity="1.000000" stroke="none" 
	d="
M788.350403,608.975830 
	C788.229126,608.515503 788.398010,607.921143 788.847168,607.172119 
	C788.965149,607.625610 788.802795,608.233704 788.350403,608.975830 
z"/>
<path fill="#8B5B2C" opacity="1.000000" stroke="none" 
	d="
M603.334961,791.071289 
	C603.502136,790.770325 603.984863,790.413635 604.788696,790.058350 
	C604.623352,790.378418 604.136902,790.697021 603.334961,791.071289 
z"/>
<path fill="#8B5B2C" opacity="1.000000" stroke="none" 
	d="
M231.023651,790.350708 
	C231.484085,790.229431 232.077881,790.398743 232.827209,790.847778 
	C232.374176,790.965393 231.765610,790.803406 231.023651,790.350708 
z"/>
<path fill="#8B5B2C" opacity="1.000000" stroke="none" 
	d="
M605.334717,790.071167 
	C605.502197,789.770325 605.984985,789.413696 606.788940,789.058594 
	C606.623413,789.378540 606.136719,789.696960 605.334717,790.071167 
z"/>
<path fill="#8B5B2C" opacity="1.000000" stroke="none" 
	d="
M229.023956,789.350769 
	C229.483948,789.229614 230.077789,789.398865 230.827209,789.847778 
	C230.374451,789.965271 229.766129,789.803162 229.023956,789.350769 
z"/>
<path fill="#8B5B2C" opacity="1.000000" stroke="none" 
	d="
M607.335083,789.072144 
	C607.502197,788.770447 607.984741,788.413696 608.788635,788.058472 
	C608.623474,788.379028 608.136963,788.697998 607.335083,789.072144 
z"/>
<path fill="#8B5B2C" opacity="1.000000" stroke="none" 
	d="
M227.024139,788.350403 
	C227.484467,788.229065 228.078842,788.397949 228.827820,788.847168 
	C228.374329,788.965210 227.766251,788.802917 227.024139,788.350403 
z"/>
<path fill="#8B5B2C" opacity="1.000000" stroke="none" 
	d="
M609.335266,788.072021 
	C609.502258,787.769958 609.984802,787.412659 610.788696,787.057983 
	C610.623657,787.379333 610.137268,787.698059 609.335266,788.072021 
z"/>
<path fill="#8B5B2C" opacity="1.000000" stroke="none" 
	d="
M225.023499,787.351318 
	C225.484283,787.229492 226.078537,787.398254 226.827576,787.847351 
	C226.373901,787.965759 225.765427,787.803833 225.023499,787.351318 
z"/>
<path fill="#8B5B2C" opacity="1.000000" stroke="none" 
	d="
M787.351318,610.976440 
	C787.229492,610.515686 787.398254,609.921448 787.847351,609.172424 
	C787.965759,609.626099 787.803833,610.234558 787.351318,610.976440 
z"/>
<path fill="#8B5B2C" opacity="1.000000" stroke="none" 
	d="
M47.927956,609.335266 
	C48.230026,609.502258 48.587311,609.984802 48.942074,610.788696 
	C48.620762,610.623657 48.301968,610.137207 47.927956,609.335266 
z"/>
<path fill="#8B5B2C" opacity="1.000000" stroke="none" 
	d="
M601.334961,792.071228 
	C601.502197,791.770264 601.984924,791.413635 602.788696,791.058350 
	C602.623352,791.378357 602.136902,791.696960 601.334961,792.071228 
z"/>
<path fill="#8B5B2C" opacity="1.000000" stroke="none" 
	d="
M233.023651,791.350708 
	C233.484131,791.229309 234.078003,791.398621 234.827271,791.847656 
	C234.374130,791.965332 233.765594,791.803406 233.023651,791.350708 
z"/>
<path fill="#8B5B2C" opacity="1.000000" stroke="none" 
	d="
M46.927902,607.335083 
	C47.229591,607.502258 47.586346,607.984802 47.941574,608.788696 
	C47.621025,608.623474 47.301994,608.137024 46.927902,607.335083 
z"/>
<path fill="#8B5B2C" opacity="1.000000" stroke="none" 
	d="
M789.350586,606.976074 
	C789.229614,606.516052 789.398926,605.922241 789.847717,605.172791 
	C789.965149,605.625488 789.803040,606.233826 789.350586,606.976074 
z"/>
<path fill="#8B5B2C" opacity="1.000000" stroke="none" 
	d="
M45.928886,605.334717 
	C46.229736,605.502197 46.586342,605.984985 46.941441,606.788940 
	C46.621510,606.623413 46.303078,606.136719 45.928886,605.334717 
z"/>
<path fill="#8B5B2C" opacity="1.000000" stroke="none" 
	d="
M790.350769,604.976318 
	C790.229492,604.515930 790.398865,603.922180 790.847778,603.172852 
	C790.965393,603.625854 790.803406,604.234375 790.350769,604.976318 
z"/>
<path fill="#8B5B2C" opacity="1.000000" stroke="none" 
	d="
M44.928734,603.334961 
	C45.229755,603.502136 45.586449,603.984924 45.941742,604.788757 
	C45.621689,604.623413 45.303043,604.136902 44.928734,603.334961 
z"/>
<path fill="#8B5B2C" opacity="1.000000" stroke="none" 
	d="
M791.350708,602.976379 
	C791.229309,602.515930 791.398621,601.922119 791.847656,601.172852 
	C791.965332,601.625916 791.803406,602.234436 791.350708,602.976379 
z"/>
<path fill="#8B5B2C" opacity="1.000000" stroke="none" 
	d="
M43.928791,601.335022 
	C44.229824,601.502197 44.586491,601.984924 44.941730,602.788757 
	C44.621677,602.623413 44.303051,602.137024 43.928791,601.335022 
z"/>
<path fill="#8B5B2C" opacity="1.000000" stroke="none" 
	d="
M792.350464,600.975952 
	C792.229004,600.515381 792.398071,599.921204 792.847412,599.172241 
	C792.965393,599.625793 792.803162,600.234070 792.350464,600.975952 
z"/>
<path fill="#8B5B2C" opacity="1.000000" stroke="none" 
	d="
M42.928059,599.335144 
	C43.229652,599.502136 43.586525,599.984680 43.941895,600.788452 
	C43.621372,600.623352 43.302357,600.136963 42.928059,599.335144 
z"/>
<path fill="#8B5B2C" opacity="1.000000" stroke="none" 
	d="
M793.351196,598.976440 
	C793.229126,598.515381 793.397583,597.920715 793.846802,597.171936 
	C793.965637,597.626160 793.803650,598.234497 793.351196,598.976440 
z"/>
<path fill="#8B5B2C" opacity="1.000000" stroke="none" 
	d="
M41.927406,597.335510 
	C42.229874,597.502319 42.587032,597.984741 42.941872,598.788696 
	C42.620399,598.623840 42.301250,598.137451 41.927406,597.335510 
z"/>
<path fill="#8B5B2C" opacity="1.000000" stroke="none" 
	d="
M240.678619,41.081970 
	C240.492615,41.416122 239.991531,41.689011 239.190460,41.949764 
	C239.381500,41.631985 239.872528,41.326344 240.678619,41.081970 
z"/>
<path fill="#8B5B2C" opacity="1.000000" stroke="none" 
	d="
M610.976440,48.648643 
	C610.515686,48.770512 609.921387,48.601757 609.172363,48.152672 
	C609.626099,48.034237 610.234558,48.196129 610.976440,48.648643 
z"/>
<path fill="#8B5B2C" opacity="1.000000" stroke="none" 
	d="
M226.664673,47.927982 
	C226.497711,48.230042 226.015167,48.587315 225.211273,48.942078 
	C225.376297,48.620777 225.862686,48.301983 226.664673,47.927982 
z"/>
<path fill="#8B5B2C" opacity="1.000000" stroke="none" 
	d="
M608.975830,47.649628 
	C608.515503,47.770885 607.921204,47.602001 607.172180,47.152813 
	C607.625610,47.034836 608.233704,47.197166 608.975830,47.649628 
z"/>
<path fill="#8B5B2C" opacity="1.000000" stroke="none" 
	d="
M228.664856,46.927933 
	C228.497726,47.229626 228.015167,47.586372 227.211273,47.941597 
	C227.376450,47.621048 227.862930,47.302017 228.664856,46.927933 
z"/>
<path fill="#8B5B2C" opacity="1.000000" stroke="none" 
	d="
M606.976074,46.649323 
	C606.516052,46.770374 605.922241,46.601135 605.172791,46.152306 
	C605.625549,46.034821 606.233826,46.196926 606.976074,46.649323 
z"/>
<path fill="#8B5B2C" opacity="1.000000" stroke="none" 
	d="
M230.665253,45.928894 
	C230.497833,46.229740 230.015030,46.586342 229.211090,46.941437 
	C229.376587,46.621502 229.863235,46.303074 230.665253,45.928894 
z"/>
<path fill="#8B5B2C" opacity="1.000000" stroke="none" 
	d="
M604.976440,45.649307 
	C604.515930,45.770645 603.922180,45.601261 603.172791,45.152275 
	C603.625854,45.034645 604.234436,45.196613 604.976440,45.649307 
z"/>
<path fill="#8B5B2C" opacity="1.000000" stroke="none" 
	d="
M232.665054,44.928734 
	C232.497864,45.229763 232.015121,45.586452 231.211243,45.941730 
	C231.376587,45.621681 231.863037,45.303040 232.665054,44.928734 
z"/>
<path fill="#8B5B2C" opacity="1.000000" stroke="none" 
	d="
M234.664978,43.928802 
	C234.497818,44.229828 234.015091,44.586491 233.211243,44.941734 
	C233.376556,44.621693 233.863007,44.303066 234.664978,43.928802 
z"/>
<path fill="#8B5B2C" opacity="1.000000" stroke="none" 
	d="
M600.975952,43.649635 
	C600.515381,43.770988 599.921204,43.601898 599.172241,43.152615 
	C599.625793,43.034679 600.234070,43.196934 600.975952,43.649635 
z"/>
<path fill="#8B5B2C" opacity="1.000000" stroke="none" 
	d="
M236.664825,42.928055 
	C236.497818,43.229649 236.015320,43.586521 235.211517,43.941887 
	C235.376587,43.621365 235.862961,43.302345 236.664825,42.928055 
z"/>
<path fill="#8B5B2C" opacity="1.000000" stroke="none" 
	d="
M598.976440,42.648773 
	C598.515381,42.770798 597.920715,42.602364 597.171936,42.153160 
	C597.626160,42.034367 598.234558,42.196339 598.976440,42.648773 
z"/>
<path fill="#8B5B2C" opacity="1.000000" stroke="none" 
	d="
M238.664490,41.927410 
	C238.497681,42.229874 238.015244,42.587032 237.211304,42.941872 
	C237.376144,42.620399 237.862488,42.301250 238.664490,41.927410 
z"/>
<path fill="#8B5B2C" opacity="1.000000" stroke="none" 
	d="
M596.974609,41.647541 
	C596.537659,41.825184 595.965820,41.712887 595.203003,41.371868 
	C595.621277,41.214630 596.230469,41.286118 596.974609,41.647541 
z"/>
<path fill="#8B5B2C" opacity="1.000000" stroke="none" 
	d="
M602.976379,44.649315 
	C602.515930,44.770691 601.922119,44.601376 601.172852,44.152420 
	C601.625916,44.034729 602.234436,44.196682 602.976379,44.649315 
z"/>
<path fill="#8A5A2C" opacity="1.000000" stroke="none" 
	d="
M124.973450,714.289185 
	C125.177391,714.225159 125.472328,714.420227 125.869492,714.866455 
	C125.669296,714.927795 125.366867,714.737976 124.973450,714.289185 
z"/>
<path fill="#8A5A2C" opacity="1.000000" stroke="none" 
	d="
M711.289185,714.026428 
	C711.225281,713.822632 711.420410,713.527710 711.866577,713.130493 
	C711.927856,713.330627 711.738037,713.632996 711.289185,714.026428 
z"/>
<path fill="#8A5A2C" opacity="1.000000" stroke="none" 
	d="
M123.973579,713.289124 
	C124.177361,713.225281 124.472244,713.420410 124.869461,713.866577 
	C124.669418,713.927795 124.367043,713.737976 123.973579,713.289124 
z"/>
<path fill="#8A5A2C" opacity="1.000000" stroke="none" 
	d="
M712.289062,713.026428 
	C712.225220,712.822632 712.420410,712.527771 712.866638,712.130615 
	C712.927795,712.330627 712.737915,712.632996 712.289062,713.026428 
z"/>
<path fill="#8A5A2C" opacity="1.000000" stroke="none" 
	d="
M122.973579,712.289124 
	C123.177330,712.225281 123.472198,712.420410 123.869431,712.866577 
	C123.669418,712.927734 123.367058,712.737915 122.973579,712.289124 
z"/>
<path fill="#8A5A2C" opacity="1.000000" stroke="none" 
	d="
M713.289062,712.026489 
	C713.225220,711.822693 713.420349,711.527832 713.866577,711.130615 
	C713.927734,711.330566 713.737915,711.632996 713.289062,712.026489 
z"/>
<path fill="#8A5A2C" opacity="1.000000" stroke="none" 
	d="
M121.973572,711.289062 
	C122.177399,711.225159 122.472282,711.420349 122.869476,711.866577 
	C122.669403,711.927795 122.367020,711.737915 121.973572,711.289062 
z"/>
<path fill="#8A5A2C" opacity="1.000000" stroke="none" 
	d="
M714.289185,711.026489 
	C714.225159,710.822571 714.420227,710.527588 714.866455,710.130432 
	C714.927795,710.330688 714.737976,710.633118 714.289185,711.026489 
z"/>
<path fill="#8A5A2C" opacity="1.000000" stroke="none" 
	d="
M120.973511,710.289185 
	C121.177490,710.225159 121.472427,710.420288 121.869537,710.866516 
	C121.669304,710.927856 121.366898,710.738037 120.973511,710.289185 
z"/>
<path fill="#8A5A2C" opacity="1.000000" stroke="none" 
	d="
M715.289185,710.026611 
	C715.225159,709.822571 715.420166,709.527588 715.866394,709.130432 
	C715.927856,709.330750 715.738098,709.633240 715.289185,710.026611 
z"/>
<path fill="#8A5A2C" opacity="1.000000" stroke="none" 
	d="
M119.973480,709.289307 
	C120.177605,709.225159 120.472595,709.420166 120.869637,709.866394 
	C120.669243,709.927856 120.366791,709.738098 119.973480,709.289307 
z"/>
<path fill="#8A5A2C" opacity="1.000000" stroke="none" 
	d="
M716.289368,709.026672 
	C716.225098,708.822327 716.419922,708.527161 716.866150,708.130249 
	C716.927856,708.330933 716.738220,708.633423 716.289368,709.026672 
z"/>
<path fill="#8A5A2C" opacity="1.000000" stroke="none" 
	d="
M118.973396,708.289307 
	C119.177734,708.225098 119.472794,708.420044 119.869720,708.866333 
	C119.669106,708.927917 119.366608,708.738220 118.973396,708.289307 
z"/>
<path fill="#8A5A2C" opacity="1.000000" stroke="none" 
	d="
M717.289429,708.026733 
	C717.224915,707.822083 717.419678,707.526917 717.865845,707.130127 
	C717.927734,707.330994 717.738220,707.633545 717.289429,708.026733 
z"/>
<path fill="#8A5A2C" opacity="1.000000" stroke="none" 
	d="
M117.973373,707.289429 
	C118.177986,707.224976 118.473137,707.419800 118.869904,707.866089 
	C118.668983,707.927979 118.366447,707.738342 117.973373,707.289429 
z"/>
<path fill="#8A5A2C" opacity="1.000000" stroke="none" 
	d="
M116.973343,706.289612 
	C117.178268,706.224915 117.473495,706.419556 117.870079,706.865784 
	C117.668839,706.927917 117.366241,706.738464 116.973343,706.289612 
z"/>
<path fill="#8A5A2C" opacity="1.000000" stroke="none" 
	d="
M718.289612,707.026917 
	C718.224915,706.822021 718.419495,706.526672 718.865601,706.129883 
	C718.927673,706.331116 718.738281,706.633728 718.289612,707.026917 
z"/>
<path fill="#8A5A2C" opacity="1.000000" stroke="none" 
	d="
M706.289673,719.026611 
	C706.225037,718.821777 706.419678,718.526550 706.865845,718.129883 
	C706.927917,718.331116 706.738464,718.633728 706.289673,719.026611 
z"/>
<path fill="#8B5B2C" opacity="1.000000" stroke="none" 
	d="
M611.288147,787.023926 
	C611.231750,786.823608 611.435608,786.530945 611.891968,786.134094 
	C611.945740,786.330505 611.747070,786.631042 611.288147,787.023926 
z"/>
<path fill="#8B5B2C" opacity="1.000000" stroke="none" 
	d="
M223.959839,786.287842 
	C224.157394,786.226257 224.457001,786.420654 224.865265,786.865723 
	C224.669907,786.925537 224.365891,786.734680 223.959839,786.287842 
z"/>
<path fill="#8A5A2C" opacity="1.000000" stroke="none" 
	d="
M703.261719,721.886597 
	C703.120239,721.545166 703.339600,721.315674 703.883911,721.106445 
	C703.922302,721.330200 703.726868,721.620789 703.261719,721.886597 
z"/>
<path fill="#8A5A2C" opacity="1.000000" stroke="none" 
	d="
M131.973953,721.294800 
	C132.216202,721.080933 132.503830,721.217957 132.874908,721.656921 
	C132.691635,721.757446 132.378601,721.653137 131.973953,721.294800 
z"/>
<path fill="#8A5A2C" opacity="1.000000" stroke="none" 
	d="
M704.289978,721.026733 
	C704.224792,720.821167 704.419067,720.525757 704.865112,720.129517 
	C704.927673,720.331421 704.738525,720.634155 704.289978,721.026733 
z"/>
<path fill="#8A5A2C" opacity="1.000000" stroke="none" 
	d="
M130.973114,720.289978 
	C131.178680,720.224670 131.474228,720.418823 131.870499,720.864746 
	C131.668518,720.927490 131.365799,720.738464 130.973114,720.289978 
z"/>
<path fill="#8A5A2C" opacity="1.000000" stroke="none" 
	d="
M705.289795,720.026733 
	C705.224854,719.821533 705.419373,719.526245 705.865479,719.129761 
	C705.927917,719.331238 705.738586,719.633911 705.289795,720.026733 
z"/>
<path fill="#8A5A2C" opacity="1.000000" stroke="none" 
	d="
M129.973114,719.289795 
	C130.178375,719.224670 130.473816,719.419006 130.870331,719.864990 
	C130.668701,719.927551 130.365997,719.738342 129.973114,719.289795 
z"/>
<path fill="#8A5A2C" opacity="1.000000" stroke="none" 
	d="
M710.289185,715.026489 
	C710.225220,714.822571 710.420288,714.527588 710.866577,714.130493 
	C710.927856,714.330688 710.738037,714.633057 710.289185,715.026489 
z"/>
<path fill="#8A5A2C" opacity="1.000000" stroke="none" 
	d="
M128.973145,718.289551 
	C129.178040,718.224854 129.473373,718.419434 129.870087,718.865601 
	C129.668839,718.927734 129.366196,718.738281 128.973145,718.289551 
z"/>
<path fill="#8A5A2C" opacity="1.000000" stroke="none" 
	d="
M707.289429,718.026733 
	C707.225037,717.822083 707.419800,717.526855 707.866089,717.130066 
	C707.927979,717.331055 707.738342,717.633606 707.289429,718.026733 
z"/>
<path fill="#8A5A2C" opacity="1.000000" stroke="none" 
	d="
M127.973228,717.289429 
	C128.177826,717.224976 128.473038,717.419678 128.869904,717.865845 
	C128.668976,717.927734 128.366409,717.738220 127.973228,717.289429 
z"/>
<path fill="#8A5A2C" opacity="1.000000" stroke="none" 
	d="
M708.289307,717.026611 
	C708.225098,716.822266 708.420044,716.527222 708.866333,716.130249 
	C708.927917,716.330933 708.738220,716.633423 708.289307,717.026611 
z"/>
<path fill="#8A5A2C" opacity="1.000000" stroke="none" 
	d="
M126.973320,716.289307 
	C127.177681,716.225037 127.472801,716.419922 127.869766,716.866150 
	C127.669106,716.927856 127.366592,716.738220 126.973320,716.289307 
z"/>
<path fill="#8A5A2C" opacity="1.000000" stroke="none" 
	d="
M709.289246,716.026489 
	C709.225159,715.822388 709.420166,715.527405 709.866394,715.130371 
	C709.927856,715.330811 709.738098,715.633240 709.289246,716.026489 
z"/>
<path fill="#8A5A2C" opacity="1.000000" stroke="none" 
	d="
M125.973412,715.289246 
	C126.177544,715.225159 126.472580,715.420105 126.869652,715.866333 
	C126.669235,715.927795 126.366783,715.738098 125.973412,715.289246 
z"/>
<path fill="#8A5A2C" opacity="1.000000" stroke="none" 
	d="
M717.026611,127.710617 
	C716.822205,127.774918 716.527100,127.580002 716.130249,127.133743 
	C716.330933,127.072067 716.633423,127.261734 717.026611,127.710617 
z"/>
<path fill="#8A5A2C" opacity="1.000000" stroke="none" 
	d="
M711.026489,121.710861 
	C710.822571,121.774826 710.527649,121.579750 710.130493,121.133545 
	C710.330688,121.072220 710.633057,121.262024 711.026489,121.710861 
z"/>
<path fill="#8A5A2C" opacity="1.000000" stroke="none" 
	d="
M124.710930,121.973564 
	C124.774796,122.177399 124.579620,122.472282 124.133377,122.869461 
	C124.072166,122.669380 124.262032,122.366997 124.710930,121.973564 
z"/>
<path fill="#8A5A2C" opacity="1.000000" stroke="none" 
	d="
M712.026489,122.710953 
	C711.822632,122.774803 711.527771,122.579643 711.130493,122.133438 
	C711.330566,122.072235 711.632996,122.262093 712.026489,122.710953 
z"/>
<path fill="#8A5A2C" opacity="1.000000" stroke="none" 
	d="
M123.710953,122.973572 
	C123.774788,123.177361 123.579605,123.472237 123.133377,123.869446 
	C123.072197,123.669403 123.262062,123.367027 123.710953,122.973572 
z"/>
<path fill="#8A5A2C" opacity="1.000000" stroke="none" 
	d="
M713.026489,123.710938 
	C712.822693,123.774773 712.527832,123.579590 712.130615,123.133385 
	C712.330627,123.072212 712.632996,123.262070 713.026489,123.710938 
z"/>
<path fill="#8A5A2C" opacity="1.000000" stroke="none" 
	d="
M122.710922,123.973541 
	C122.774796,124.177376 122.579643,124.472275 122.133438,124.869476 
	C122.072220,124.669380 122.262062,124.366989 122.710922,123.973541 
z"/>
<path fill="#8A5A2C" opacity="1.000000" stroke="none" 
	d="
M714.026428,124.710953 
	C713.822632,124.774796 713.527771,124.579605 713.130615,124.133377 
	C713.330627,124.072205 713.632996,124.262070 714.026428,124.710953 
z"/>
<path fill="#8A5A2C" opacity="1.000000" stroke="none" 
	d="
M121.710846,124.973480 
	C121.774818,125.177437 121.579742,125.472397 121.133537,125.869553 
	C121.072205,125.669319 121.261993,125.366905 121.710846,124.973480 
z"/>
<path fill="#8A5A2C" opacity="1.000000" stroke="none" 
	d="
M715.026489,125.710861 
	C714.822510,125.774811 714.527588,125.579697 714.130493,125.133476 
	C714.330688,125.072174 714.633057,125.261978 715.026489,125.710861 
z"/>
<path fill="#8A5A2C" opacity="1.000000" stroke="none" 
	d="
M120.710762,125.973404 
	C120.774879,126.177544 120.579895,126.472580 120.133705,126.869652 
	C120.072220,126.669228 120.261940,126.366768 120.710762,125.973404 
z"/>
<path fill="#8A5A2C" opacity="1.000000" stroke="none" 
	d="
M716.026489,126.710739 
	C715.822327,126.774834 715.527344,126.579796 715.130371,126.133545 
	C715.330750,126.072090 715.633179,126.261848 716.026489,126.710739 
z"/>
<path fill="#8A5A2C" opacity="1.000000" stroke="none" 
	d="
M119.710648,126.973328 
	C119.774940,127.177681 119.580078,127.472809 119.133919,127.869781 
	C119.072243,127.669121 119.261871,127.366608 119.710648,126.973328 
z"/>
<path fill="#8A5A2C" opacity="1.000000" stroke="none" 
	d="
M125.710831,120.973526 
	C125.774780,121.177467 125.579674,121.472389 125.133453,121.869530 
	C125.072151,121.669334 125.261963,121.366920 125.710831,120.973526 
z"/>
<path fill="#8A5A2C" opacity="1.000000" stroke="none" 
	d="
M118.710495,127.973251 
	C118.775002,128.177841 118.580284,128.473053 118.134155,128.869904 
	C118.072250,128.668976 118.261757,128.366425 118.710495,127.973251 
z"/>
<path fill="#8A5A2C" opacity="1.000000" stroke="none" 
	d="
M718.026733,128.710464 
	C717.822144,128.774933 717.526978,128.580139 717.130127,128.133926 
	C717.330933,128.072067 717.633545,128.261627 718.026733,128.710464 
z"/>
<path fill="#8A5A2C" opacity="1.000000" stroke="none" 
	d="
M117.710358,128.973175 
	C117.775108,129.178055 117.580566,129.473389 117.134506,129.870102 
	C117.072350,129.668869 117.261703,129.366241 117.710358,128.973175 
z"/>
<path fill="#8A5A2C" opacity="1.000000" stroke="none" 
	d="
M719.026611,129.710327 
	C718.821777,129.775040 718.526550,129.580383 718.129883,129.134186 
	C718.331055,129.072083 718.633667,129.261536 719.026611,129.710327 
z"/>
<path fill="#8A5A2C" opacity="1.000000" stroke="none" 
	d="
M116.710190,129.973114 
	C116.775230,130.178345 116.580879,130.473785 116.134872,130.870300 
	C116.072418,130.668686 116.261612,130.365997 116.710190,129.973114 
z"/>
<path fill="#8A5A2C" opacity="1.000000" stroke="none" 
	d="
M720.026733,130.710144 
	C719.821533,130.775116 719.526184,130.580658 719.129761,130.134521 
	C719.331238,130.072113 719.633911,130.261398 720.026733,130.710144 
z"/>
<path fill="#8A5A2C" opacity="1.000000" stroke="none" 
	d="
M115.710037,130.973114 
	C115.775337,131.178680 115.581192,131.474213 115.135239,131.870483 
	C115.072495,131.668503 115.261543,131.365784 115.710037,130.973114 
z"/>
<path fill="#8B5B2C" opacity="1.000000" stroke="none" 
	d="
M787.023926,224.711792 
	C786.823608,224.768158 786.530945,224.564285 786.134094,224.108002 
	C786.330505,224.054260 786.631042,224.252914 787.023926,224.711792 
z"/>
<path fill="#8B5B2C" opacity="1.000000" stroke="none" 
	d="
M49.712097,223.959900 
	C49.773724,224.157440 49.579388,224.457031 49.134369,224.865265 
	C49.074505,224.669922 49.265324,224.365921 49.712097,223.959900 
z"/>
<path fill="#8A5A2C" opacity="1.000000" stroke="none" 
	d="
M721.026672,131.710007 
	C720.821106,131.775223 720.525696,131.580963 720.129517,131.134918 
	C720.331421,131.072250 720.634155,131.261383 721.026672,131.710007 
z"/>
<path fill="#8A5A2C" opacity="1.000000" stroke="none" 
	d="
M114.705185,131.973953 
	C114.919296,132.216263 114.782227,132.503860 114.343102,132.874908 
	C114.242592,132.691650 114.346916,132.378616 114.705185,131.973953 
z"/>
<path fill="#8A5A2C" opacity="1.000000" stroke="none" 
	d="
M131.709961,114.973305 
	C131.775208,115.178848 131.580963,115.474251 131.134903,115.870453 
	C131.072220,115.668556 131.261337,115.365860 131.709961,114.973305 
z"/>
<path fill="#8A5A2C" opacity="1.000000" stroke="none" 
	d="
M719.289856,706.026855 
	C719.224792,705.821655 719.419128,705.526184 719.865112,705.129639 
	C719.927551,705.331299 719.738403,705.633972 719.289856,706.026855 
z"/>
<path fill="#8A5A2C" opacity="1.000000" stroke="none" 
	d="
M115.973297,705.289795 
	C116.178513,705.224854 116.473816,705.419373 116.870224,705.865540 
	C116.668678,705.927917 116.366020,705.738586 115.973297,705.289795 
z"/>
<path fill="#8A5A2C" opacity="1.000000" stroke="none" 
	d="
M720.289917,705.026917 
	C720.224670,704.821411 720.418823,704.525879 720.864746,704.129517 
	C720.927490,704.331421 720.738403,704.634155 720.289917,705.026917 
z"/>
<path fill="#8A5A2C" opacity="1.000000" stroke="none" 
	d="
M114.973282,704.289917 
	C115.178833,704.224731 115.474213,704.418945 115.870422,704.864990 
	C115.668541,704.927734 115.365829,704.738586 114.973282,704.289917 
z"/>
<path fill="#8A5A2C" opacity="1.000000" stroke="none" 
	d="
M721.294800,704.026001 
	C721.080750,703.783691 721.217834,703.496094 721.656982,703.125183 
	C721.757446,703.308472 721.653137,703.621460 721.294800,704.026001 
z"/>
<path fill="#8A5A2C" opacity="1.000000" stroke="none" 
	d="
M114.113434,703.261597 
	C114.454781,703.120239 114.684235,703.339600 114.893585,703.883911 
	C114.669823,703.922302 114.379173,703.726807 114.113434,703.261597 
z"/>
<path fill="#8B5B2C" opacity="1.000000" stroke="none" 
	d="
M786.287842,612.040161 
	C786.226196,611.842590 786.420593,611.542969 786.865662,611.134705 
	C786.925476,611.330017 786.734619,611.634094 786.287842,612.040161 
z"/>
<path fill="#8B5B2C" opacity="1.000000" stroke="none" 
	d="
M48.976162,611.288086 
	C49.176525,611.231750 49.469215,611.435730 49.865974,611.892090 
	C49.669525,611.945801 49.369007,611.747070 48.976162,611.288086 
z"/>
<path fill="#8B5B2C" opacity="1.000000" stroke="none" 
	d="
M224.711823,48.976173 
	C224.768188,49.176533 224.564301,49.469212 224.107971,49.865959 
	C224.054230,49.669518 224.252899,49.369007 224.711823,48.976173 
z"/>
<path fill="#8B5B2C" opacity="1.000000" stroke="none" 
	d="
M612.040100,49.712093 
	C611.842529,49.773735 611.542969,49.579395 611.134705,49.134361 
	C611.330017,49.074486 611.634033,49.265301 612.040100,49.712093 
z"/>
<path fill="#8A5A2C" opacity="1.000000" stroke="none" 
	d="
M132.738464,114.113434 
	C132.879761,114.454796 132.660370,114.684258 132.116089,114.893585 
	C132.077713,114.669823 132.273239,114.379181 132.738464,114.113434 
z"/>
<path fill="#8A5A2C" opacity="1.000000" stroke="none" 
	d="
M704.026062,114.705162 
	C703.783691,114.919296 703.496094,114.782227 703.125061,114.343102 
	C703.308350,114.242577 703.621399,114.346886 704.026062,114.705162 
z"/>
<path fill="#8A5A2C" opacity="1.000000" stroke="none" 
	d="
M721.886597,132.738403 
	C721.545227,132.879807 721.315796,132.660446 721.106445,132.116119 
	C721.330200,132.077713 721.620850,132.273209 721.886597,132.738403 
z"/>
<path fill="#8A5A2C" opacity="1.000000" stroke="none" 
	d="
M705.026978,115.710014 
	C704.821411,115.775314 704.525879,115.581177 704.129517,115.135239 
	C704.331421,115.072487 704.634216,115.261528 705.026978,115.710014 
z"/>
<path fill="#8A5A2C" opacity="1.000000" stroke="none" 
	d="
M130.710144,115.973312 
	C130.775116,116.178551 130.580658,116.473846 130.134521,116.870247 
	C130.072128,116.668694 130.261429,116.366035 130.710144,115.973312 
z"/>
<path fill="#8A5A2C" opacity="1.000000" stroke="none" 
	d="
M706.026855,116.710190 
	C705.821655,116.775215 705.526184,116.580864 705.129700,116.134872 
	C705.331299,116.072418 705.633972,116.261612 706.026855,116.710190 
z"/>
<path fill="#8A5A2C" opacity="1.000000" stroke="none" 
	d="
M129.710342,116.973343 
	C129.775040,117.178246 129.580383,117.473457 129.134186,117.870071 
	C129.072098,117.668869 129.261551,117.366264 129.710342,116.973343 
z"/>
<path fill="#8A5A2C" opacity="1.000000" stroke="none" 
	d="
M707.026855,117.710335 
	C706.822021,117.775093 706.526672,117.580544 706.129883,117.134483 
	C706.331116,117.072327 706.633789,117.261681 707.026855,117.710335 
z"/>
<path fill="#8A5A2C" opacity="1.000000" stroke="none" 
	d="
M128.710510,117.973373 
	C128.774979,118.177971 128.580170,118.473106 128.133942,118.869896 
	C128.072098,118.668999 128.261673,118.366455 128.710510,117.973373 
z"/>
<path fill="#8A5A2C" opacity="1.000000" stroke="none" 
	d="
M708.026733,118.710487 
	C707.822144,118.774979 707.526978,118.580238 707.130066,118.134125 
	C707.330933,118.072258 707.633545,118.261757 708.026733,118.710487 
z"/>
<path fill="#8A5A2C" opacity="1.000000" stroke="none" 
	d="
M127.710632,118.973412 
	C127.774895,119.177750 127.579971,119.472801 127.133743,119.869736 
	C127.072113,119.669113 127.261780,119.366623 127.710632,118.973412 
z"/>
<path fill="#8A5A2C" opacity="1.000000" stroke="none" 
	d="
M709.026611,119.710632 
	C708.822266,119.774933 708.527161,119.580048 708.130188,119.133881 
	C708.330811,119.072227 708.633362,119.261841 709.026611,119.710632 
z"/>
<path fill="#8A5A2C" opacity="1.000000" stroke="none" 
	d="
M126.710747,119.973465 
	C126.774834,120.177597 126.579796,120.472580 126.133553,120.869621 
	C126.072105,120.669235 126.261864,120.366776 126.710747,119.973465 
z"/>
<path fill="#8A5A2C" opacity="1.000000" stroke="none" 
	d="
M710.026611,120.710770 
	C709.822449,120.774887 709.527405,120.579910 709.130310,120.133698 
	C709.330750,120.072205 709.633240,120.261940 710.026611,120.710770 
z"/>
<path fill="#FEFDFD" opacity="1.000000" stroke="none" 
	d="
M612.859375,224.179321 
	C635.976868,237.360199 658.728333,250.446182 681.575500,263.362854 
	C684.684814,265.120667 686.008972,267.059174 686.005249,270.754059 
	C685.905884,369.568634 685.903687,468.383392 686.020630,567.197937 
	C686.024902,570.820557 684.484741,572.398560 681.673157,574.001831 
	C615.264282,611.870911 548.900330,649.818665 482.518646,687.735413 
	C462.325806,699.269470 442.077271,710.706543 421.933624,722.325745 
	C419.616974,723.662048 418.135010,723.715393 415.722809,722.345398 
	C329.737274,673.509766 243.717697,624.733643 157.568695,576.187317 
	C152.458160,573.307434 150.878967,570.206116 150.889130,564.536987 
	C151.061768,468.222137 151.012451,371.906891 151.016129,275.591705 
	C151.016190,273.926056 151.205978,272.248230 151.062469,270.597351 
	C150.769348,267.224976 152.098984,265.282257 155.157211,263.536438 
	C241.611771,214.183304 328.003265,164.719696 414.376648,115.224503 
	C416.848785,113.807884 418.796783,113.180511 421.617279,114.798187 
	C485.215271,151.274353 548.875183,187.642563 612.859375,224.179321 
M429.570343,400.565430 
	C446.720184,390.404083 463.840698,380.192871 481.025299,370.090668 
	C536.453125,337.506683 591.905823,304.965057 647.338501,272.389282 
	C648.559509,271.671692 649.655334,270.741028 651.303040,269.554443 
	C576.782898,226.959854 502.881989,184.719223 428.396484,142.144470 
	C428.239807,144.138535 428.121552,144.940201 428.121674,145.741821 
	C428.133575,230.696869 428.154327,315.651917 428.063232,401.596924 
	C428.076599,412.806671 428.089966,424.016418 428.113312,436.135010 
	C428.113312,522.140259 428.113312,608.145508 428.113312,695.131409 
	C503.679749,651.985535 578.256653,609.404724 653.507507,566.439087 
	C578.324768,522.393433 503.671417,478.657959 429.005707,433.995941 
	C429.001526,422.967987 428.997345,411.940063 429.570343,400.565430 
M354.620483,444.103851 
	C369.405457,435.458954 384.190460,426.814056 399.610596,417.797791 
	C322.942261,372.880127 247.262985,328.541901 171.191956,283.974182 
	C171.191956,373.588165 171.191956,462.331665 171.191956,551.952332 
	C232.495163,515.936584 293.261414,480.236267 354.620483,444.103851 
M528.159424,364.631714 
	C498.310303,382.138672 468.461212,399.645630 437.608124,417.741455 
	C514.323792,462.689667 589.892273,506.965729 665.874573,551.484253 
	C665.874573,461.834534 665.874573,373.126129 665.874573,283.700562 
	C619.818665,310.738464 574.285522,337.469482 528.159424,364.631714 
M399.059143,440.524414 
	C327.365906,482.661194 255.672638,524.797974 183.446121,567.248169 
	C258.855042,609.958130 333.562469,652.270813 408.705688,694.830322 
	C408.705688,607.707031 408.705688,521.671692 408.705688,435.084412 
	C405.402863,436.926819 402.538757,438.524475 399.059143,440.524414 
M330.029480,354.472839 
	C356.115051,369.769989 382.200592,385.067139 408.700317,400.607178 
	C408.700317,313.954376 408.700317,228.412125 408.700317,141.976974 
	C334.153198,184.641617 260.204956,226.963531 185.373093,269.791138 
	C234.014664,298.252380 281.714203,326.162415 330.029480,354.472839 
z"/>
<path fill="#927B2D" opacity="1.000000" stroke="none" 
	d="
M354.324097,444.319916 
	C293.261414,480.236267 232.495163,515.936584 171.191956,551.952332 
	C171.191956,462.331665 171.191956,373.588165 171.191956,283.974182 
	C247.262985,328.541901 322.942261,372.880127 399.610596,417.797791 
	C384.190460,426.814056 369.405457,435.458954 354.324097,444.319916 
z"/>
<path fill="#927B2D" opacity="1.000000" stroke="none" 
	d="
M528.455872,364.416107 
	C574.285522,337.469482 619.818665,310.738464 665.874573,283.700562 
	C665.874573,373.126129 665.874573,461.834534 665.874573,551.484253 
	C589.892273,506.965729 514.323792,462.689667 437.608124,417.741455 
	C468.461212,399.645630 498.310303,382.138672 528.455872,364.416107 
z"/>
<path fill="#927B2E" opacity="1.000000" stroke="none" 
	d="
M429.018097,434.922485 
	C503.671417,478.657959 578.324768,522.393433 653.507507,566.439087 
	C578.256653,609.404724 503.679749,651.985535 428.113312,695.131409 
	C428.113312,608.145508 428.113312,522.140259 428.342773,435.621948 
	C428.572235,435.108887 429.018097,434.922485 429.018097,434.922485 
z"/>
<path fill="#927B2E" opacity="1.000000" stroke="none" 
	d="
M399.366882,440.323303 
	C402.538757,438.524475 405.402863,436.926819 408.705688,435.084412 
	C408.705688,521.671692 408.705688,607.707031 408.705688,694.830322 
	C333.562469,652.270813 258.855042,609.958130 183.446121,567.248169 
	C255.672638,524.797974 327.365906,482.661194 399.366882,440.323303 
z"/>
<path fill="#927B2E" opacity="1.000000" stroke="none" 
	d="
M428.174591,400.606964 
	C428.154327,315.651917 428.133575,230.696869 428.121674,145.741821 
	C428.121552,144.940201 428.239807,144.138535 428.396484,142.144470 
	C502.881989,184.719223 576.782898,226.959854 651.303040,269.554443 
	C649.655334,270.741028 648.559509,271.671692 647.338501,272.389282 
	C591.905823,304.965057 536.453125,337.506683 481.025299,370.090668 
	C463.840698,380.192871 446.720184,390.404083 429.089722,400.628571 
	C428.609131,400.691711 428.174591,400.606964 428.174591,400.606964 
z"/>
<path fill="#927B2D" opacity="1.000000" stroke="none" 
	d="
M329.721619,354.272644 
	C281.714203,326.162415 234.014664,298.252380 185.373093,269.791138 
	C260.204956,226.963531 334.153198,184.641617 408.700317,141.976974 
	C408.700317,228.412125 408.700317,313.954376 408.700317,400.607178 
	C382.200592,385.067139 356.115051,369.769989 329.721619,354.272644 
z"/>
<path fill="#EEE9EA" opacity="1.000000" stroke="none" 
	d="
M428.118896,401.101929 
	C428.174591,400.606964 428.609131,400.691711 428.801147,400.801910 
	C428.997345,411.940063 429.001526,422.967987 429.011902,434.459229 
	C429.018097,434.922485 428.572235,435.108887 428.337769,435.167542 
	C428.089966,424.016418 428.076599,412.806671 428.118896,401.101929 
z"/>
</svg>