<svg version="1.1" id="Layer_1" xmlns="http://www.w3.org/2000/svg" xmlns:xlink="http://www.w3.org/1999/xlink" x="0px" y="0px"
	 width="100%" viewBox="0 0 834 834" enable-background="new 0 0 834 834" xml:space="preserve">
<path fill="#FFFFFF" opacity="1.000000" stroke="none" 
	d="
M469.000000,835.000000 
	C312.666718,835.000000 156.833420,835.000000 1.000104,835.000000 
	C1.000070,557.000122 1.000070,279.000244 1.000035,1.000291 
	C278.999786,1.000194 556.999573,1.000194 834.999512,1.000097 
	C834.999695,278.999695 834.999695,556.999390 834.999878,834.999512 
	C713.166687,835.000000 591.333313,835.000000 469.000000,835.000000 
M192.368393,67.948044 
	C167.610886,83.222633 145.396469,101.703964 124.617554,121.954857 
	C118.933167,127.494797 113.505791,133.325577 108.279060,139.301544 
	C100.726990,147.936157 92.784157,156.348404 86.234535,165.713287 
	C75.571404,180.959869 65.707718,196.780106 55.857937,212.577286 
	C43.303162,232.712738 34.005527,254.439148 26.042233,276.713654 
	C17.971485,299.288727 11.215371,322.255951 7.967934,346.099518 
	C5.876287,361.456909 2.918962,376.796631 2.270883,392.224976 
	C1.470958,411.268188 2.268543,430.413361 3.144161,449.479218 
	C3.682792,461.207428 4.920379,473.012756 7.154734,484.529175 
	C10.787478,503.253235 14.715261,521.990112 19.920053,540.323669 
	C29.015774,572.362793 42.911022,602.415894 59.954746,631.057190 
	C76.645615,659.105591 96.357941,684.805115 118.919388,708.323853 
	C125.565643,715.252136 132.601761,721.839111 139.800369,728.196228 
	C148.267715,735.673645 156.652557,743.381165 165.886292,749.823425 
	C181.149536,760.472412 196.925293,770.411194 212.739166,780.240479 
	C232.885483,792.762573 254.610199,802.042419 276.894104,809.996277 
	C299.480988,818.058228 322.442719,824.809937 346.283081,828.058777 
	C361.804749,830.173950 377.327271,833.286926 392.910980,833.716064 
	C418.679871,834.425598 444.581635,835.417480 470.217865,830.997070 
	C484.936615,828.459167 499.839569,826.647827 514.306030,823.076965 
	C531.520447,818.827881 548.608521,813.747498 565.296997,807.760864 
	C591.413208,798.391968 616.085266,785.788635 639.514343,770.906982 
	C657.536804,759.459717 675.292419,747.524780 690.723206,732.657837 
	C706.514832,717.442993 722.849304,702.593140 737.000122,685.930908 
	C750.502930,670.031555 762.018860,652.343018 773.468567,634.826721 
	C788.927734,611.176575 800.640625,585.576294 810.050171,558.930847 
	C817.984009,536.464233 824.735046,513.684143 828.014038,490.019440 
	C830.163940,474.503418 833.263733,458.983826 833.735657,443.399139 
	C834.669800,412.551453 835.223511,381.565094 828.930847,351.074585 
	C825.106995,332.546692 821.330811,313.947266 816.144714,295.776276 
	C807.730042,266.293091 795.260742,238.424774 780.023682,211.764709 
	C761.768250,179.823669 739.761169,150.778427 714.001343,124.564178 
	C708.437073,118.901741 702.626831,113.455505 696.649109,108.230942 
	C688.012329,100.682335 679.593323,92.749077 670.228027,86.200409 
	C654.980103,75.538361 639.167358,65.662064 623.364258,55.821457 
	C603.223694,43.279972 581.499756,33.985157 559.220459,26.028803 
	C536.640076,17.964880 513.675354,11.210077 489.831635,7.963867 
	C474.474243,5.873026 459.134399,2.918131 443.706085,2.270691 
	C424.662811,1.471554 405.517639,2.268398 386.451874,3.144750 
	C374.723602,3.683836 362.915802,4.914083 351.402405,7.160084 
	C332.365173,10.873816 313.328094,14.924932 294.688049,20.229292 
	C280.299896,24.323708 266.448212,30.373920 252.486877,35.881290 
	C231.469635,44.172020 211.881042,55.219810 192.368393,67.948044 
z"/>
<path fill="#7D222B" opacity="1.000000" stroke="none" 
	d="
M192.671387,67.732468 
	C211.881042,55.219810 231.469635,44.172020 252.486877,35.881290 
	C266.448212,30.373920 280.299896,24.323708 294.688049,20.229292 
	C313.328094,14.924932 332.365173,10.873816 351.402405,7.160084 
	C362.915802,4.914083 374.723602,3.683836 386.451874,3.144750 
	C405.517639,2.268398 424.662811,1.471554 443.706085,2.270691 
	C459.134399,2.918131 474.474243,5.873026 489.831635,7.963867 
	C513.675354,11.210077 536.640076,17.964880 559.220459,26.028803 
	C581.499756,33.985157 603.223694,43.279972 623.364258,55.821457 
	C639.167358,65.662064 654.980103,75.538361 670.228027,86.200409 
	C679.593323,92.749077 688.012329,100.682335 696.649109,108.230942 
	C702.626831,113.455505 708.437073,118.901741 714.001343,124.564178 
	C739.761169,150.778427 761.768250,179.823669 780.023682,211.764709 
	C795.260742,238.424774 807.730042,266.293091 816.144714,295.776276 
	C821.330811,313.947266 825.106995,332.546692 828.930847,351.074585 
	C835.223511,381.565094 834.669800,412.551453 833.735657,443.399139 
	C833.263733,458.983826 830.163940,474.503418 828.014038,490.019440 
	C824.735046,513.684143 817.984009,536.464233 810.050171,558.930847 
	C800.640625,585.576294 788.927734,611.176575 773.468567,634.826721 
	C762.018860,652.343018 750.502930,670.031555 737.000122,685.930908 
	C722.849304,702.593140 706.514832,717.442993 690.723206,732.657837 
	C675.292419,747.524780 657.536804,759.459717 639.514343,770.906982 
	C616.085266,785.788635 591.413208,798.391968 565.296997,807.760864 
	C548.608521,813.747498 531.520447,818.827881 514.306030,823.076965 
	C499.839569,826.647827 484.936615,828.459167 470.217865,830.997070 
	C444.581635,835.417480 418.679871,834.425598 392.910980,833.716064 
	C377.327271,833.286926 361.804749,830.173950 346.283081,828.058777 
	C322.442719,824.809937 299.480988,818.058228 276.894104,809.996277 
	C254.610199,802.042419 232.885483,792.762573 212.739166,780.240479 
	C196.925293,770.411194 181.149536,760.472412 165.886292,749.823425 
	C156.652557,743.381165 148.267715,735.673645 139.800369,728.196228 
	C132.601761,721.839111 125.565643,715.252136 118.919388,708.323853 
	C96.357941,684.805115 76.645615,659.105591 59.954746,631.057190 
	C42.911022,602.415894 29.015774,572.362793 19.920053,540.323669 
	C14.715261,521.990112 10.787478,503.253235 7.154734,484.529175 
	C4.920379,473.012756 3.682792,461.207428 3.144161,449.479218 
	C2.268543,430.413361 1.470958,411.268188 2.270883,392.224976 
	C2.918962,376.796631 5.876287,361.456909 7.967934,346.099518 
	C11.215371,322.255951 17.971485,299.288727 26.042233,276.713654 
	C34.005527,254.439148 43.303162,232.712738 55.857937,212.577286 
	C65.707718,196.780106 75.571404,180.959869 86.234535,165.713287 
	C92.784157,156.348404 100.726990,147.936157 108.279060,139.301544 
	C113.505791,133.325577 118.933167,127.494797 124.617554,121.954857 
	C145.396469,101.703964 167.610886,83.222633 192.671387,67.732468 
M150.308578,266.690857 
	C150.205933,268.008270 150.013611,269.325684 150.013428,270.643097 
	C149.999237,369.500641 149.996094,468.358154 150.036972,567.215698 
	C150.037628,568.791626 150.592667,570.367310 151.206772,572.564819 
	C152.335403,573.267212 153.440460,574.011169 154.596024,574.666077 
	C240.976608,623.621338 327.381836,672.533264 413.678650,721.635620 
	C417.587067,723.859436 420.190491,723.719604 423.932343,721.577515 
	C509.670807,672.494202 595.471863,623.520081 681.329834,574.646118 
	C684.786560,572.678406 686.104309,570.614746 686.099304,566.577576 
	C685.977112,468.090363 685.979980,369.602966 686.089478,271.115723 
	C686.093872,267.184784 684.986450,264.963623 681.492676,262.971527 
	C595.249390,213.797028 509.065796,164.517838 422.929840,115.155563 
	C419.661377,113.282509 417.301849,113.121284 413.912079,115.069901 
	C346.565399,153.784348 279.124390,192.334717 211.724136,230.956085 
	C191.396576,242.604111 171.134171,254.365891 150.308578,266.690857 
z"/>
<path fill="#FEFDFD" opacity="1.000000" stroke="none" 
	d="
M150.841919,266.075562 
	C171.134171,254.365891 191.396576,242.604111 211.724136,230.956085 
	C279.124390,192.334717 346.565399,153.784348 413.912079,115.069901 
	C417.301849,113.121284 419.661377,113.282509 422.929840,115.155563 
	C509.065796,164.517838 595.249390,213.797028 681.492676,262.971527 
	C684.986450,264.963623 686.093872,267.184784 686.089478,271.115723 
	C685.979980,369.602966 685.977112,468.090363 686.099304,566.577576 
	C686.104309,570.614746 684.786560,572.678406 681.329834,574.646118 
	C595.471863,623.520081 509.670807,672.494202 423.932343,721.577515 
	C420.190491,723.719604 417.587067,723.859436 413.678650,721.635620 
	C327.381836,672.533264 240.976608,623.621338 154.596024,574.666077 
	C153.440460,574.011169 152.335403,573.267212 151.112549,571.794861 
	C151.016174,471.204224 151.014938,371.383545 151.004822,271.562866 
	C151.004639,269.733765 150.898575,267.904663 150.841919,266.075562 
M429.732361,399.869934 
	C503.404236,356.617401 577.076111,313.364868 651.182434,269.857269 
	C649.602722,268.943420 648.743958,268.441528 647.880493,267.947876 
	C598.188538,239.538528 548.508301,211.108734 498.798553,182.730453 
	C475.565582,169.467224 452.275604,156.303757 428.610443,142.762833 
	C428.581970,144.207703 428.553467,145.652588 428.588715,148.018509 
	C428.594849,167.342926 428.612061,186.667328 428.605042,205.991745 
	C428.581970,269.295166 428.550049,332.598602 428.131836,396.458771 
	C428.436646,397.626831 428.741455,398.794891 429.732361,399.869934 
M428.143005,690.434021 
	C428.432373,691.596558 428.721710,692.759155 429.705963,693.858215 
	C503.974457,651.477051 578.242920,609.095825 652.972412,566.451599 
	C578.312378,522.709106 504.178436,479.274902 429.684601,435.329498 
	C429.295837,436.250031 428.907074,437.170563 428.585083,439.012695 
	C428.592407,463.835999 428.613129,488.659302 428.604401,513.482605 
	C428.583710,572.291382 428.549103,631.100098 428.143005,690.434021 
M173.992126,550.033508 
	C248.938919,506.045074 323.885712,462.056610 399.201752,417.851440 
	C397.705444,416.938507 396.865601,416.407867 396.008881,415.906067 
	C340.197449,383.216095 284.395294,350.510284 228.566025,317.850830 
	C210.207886,307.111511 191.779373,296.492462 173.008087,285.239594 
	C169.050766,284.679016 171.089554,287.779755 171.088058,288.939270 
	C170.977173,374.888275 170.985916,460.837372 170.990021,546.786499 
	C170.990082,547.950134 171.052139,549.113708 171.085236,550.277344 
	C171.829041,550.236450 172.572845,550.195557 173.992126,550.033508 
M458.787323,429.736511 
	C527.683472,470.092957 596.579651,510.449402 665.583862,550.869141 
	C665.583862,461.645386 665.583862,373.167511 665.583862,284.289917 
	C589.726501,328.845032 514.351868,373.116608 438.381195,417.738251 
	C445.323090,421.799377 451.752655,425.560822 458.787323,429.736511 
M408.792480,544.500000 
	C408.792480,508.325867 408.792480,472.151703 408.792480,435.111420 
	C333.307098,479.451233 258.857178,523.182800 183.859543,567.236084 
	C259.202789,609.906860 333.692932,652.094482 408.792450,694.627258 
	C408.792450,644.114319 408.792450,594.807190 408.792480,544.500000 
M253.245499,309.261200 
	C304.911072,339.537720 356.576660,369.814270 408.522522,400.255066 
	C408.522522,313.942657 408.522522,228.565292 408.522522,142.336716 
	C334.166412,184.887405 260.383209,227.110260 185.863281,269.754700 
	C208.517975,283.054504 230.555939,295.992249 253.245499,309.261200 
z"/>
<path fill="#652D30" opacity="1.000000" stroke="none" 
	d="
M150.575256,266.383209 
	C150.898575,267.904663 151.004639,269.733765 151.004822,271.562866 
	C151.014938,371.383545 151.016174,471.204224 150.953659,571.484009 
	C150.592667,570.367310 150.037628,568.791626 150.036972,567.215698 
	C149.996094,468.358154 149.999237,369.500641 150.013428,270.643097 
	C150.013611,269.325684 150.205933,268.008270 150.575256,266.383209 
z"/>
<path fill="#7D222B" opacity="1.000000" stroke="none" 
	d="
M458.484772,429.529358 
	C451.752655,425.560822 445.323090,421.799377 438.381195,417.738251 
	C514.351868,373.116608 589.726501,328.845032 665.583862,284.289917 
	C665.583862,373.167511 665.583862,461.645386 665.583862,550.869141 
	C596.579651,510.449402 527.683472,470.092957 458.484772,429.529358 
z"/>
<path fill="#7D222B" opacity="1.000000" stroke="none" 
	d="
M173.383026,285.818420 
	C191.779373,296.492462 210.207886,307.111511 228.566025,317.850830 
	C284.395294,350.510284 340.197449,383.216095 396.008881,415.906067 
	C396.865601,416.407867 397.705444,416.938507 399.201752,417.851440 
	C323.885712,462.056610 248.938919,506.045074 173.306366,549.826294 
	C172.413742,548.163635 172.026321,546.708374 172.025818,545.252930 
	C171.996689,460.437683 171.991699,375.622467 172.057068,290.807251 
	C172.058350,289.143982 172.921814,287.481354 173.383026,285.818420 
z"/>
<path fill="#7D232C" opacity="1.000000" stroke="none" 
	d="
M408.792480,545.000000 
	C408.792450,594.807190 408.792450,644.114319 408.792450,694.627258 
	C333.692932,652.094482 259.202789,609.906860 183.859543,567.236084 
	C258.857178,523.182800 333.307098,479.451233 408.792480,435.111420 
	C408.792480,472.151703 408.792480,508.325867 408.792480,545.000000 
z"/>
<path fill="#7D232B" opacity="1.000000" stroke="none" 
	d="
M430.044495,435.840698 
	C504.178436,479.274902 578.312378,522.709106 652.972412,566.451599 
	C578.242920,609.095825 503.974457,651.477051 429.345123,693.481445 
	C428.829559,692.039429 428.674866,690.974121 428.520142,689.908875 
	C428.549103,631.100098 428.583710,572.291382 428.604401,513.482605 
	C428.613129,488.659302 428.592407,463.835999 428.723145,438.238403 
	C429.255646,436.922974 429.650085,436.381836 430.044495,435.840698 
z"/>
<path fill="#7D232C" opacity="1.000000" stroke="none" 
	d="
M252.919708,309.095581 
	C230.555939,295.992249 208.517975,283.054504 185.863281,269.754700 
	C260.383209,227.110260 334.166412,184.887405 408.522522,142.336716 
	C408.522522,228.565292 408.522522,313.942657 408.522522,400.255066 
	C356.576660,369.814270 304.911072,339.537720 252.919708,309.095581 
z"/>
<path fill="#7D232B" opacity="1.000000" stroke="none" 
	d="
M429.011475,143.095062 
	C452.275604,156.303757 475.565582,169.467224 498.798553,182.730453 
	C548.508301,211.108734 598.188538,239.538528 647.880493,267.947876 
	C648.743958,268.441528 649.602722,268.943420 651.182434,269.857269 
	C577.076111,313.364868 503.404236,356.617401 429.365082,399.503601 
	C428.839050,398.058868 428.680298,396.980438 428.521545,395.902039 
	C428.550049,332.598602 428.581970,269.295166 428.605042,205.991745 
	C428.612061,186.667328 428.594849,167.342926 428.718811,147.184082 
	C428.903076,145.264801 428.957275,144.179947 429.011475,143.095062 
z"/>
<path fill="#652D33" opacity="1.000000" stroke="none" 
	d="
M173.195557,285.528992 
	C172.921814,287.481354 172.058350,289.143982 172.057068,290.807251 
	C171.991699,375.622467 171.996689,460.437683 172.025818,545.252930 
	C172.026321,546.708374 172.413742,548.163635 172.968628,549.886841 
	C172.572845,550.195557 171.829041,550.236450 171.085236,550.277344 
	C171.052139,549.113708 170.990082,547.950134 170.990021,546.786499 
	C170.985916,460.837372 170.977173,374.888275 171.088058,288.939270 
	C171.089554,287.779755 169.050766,284.679016 173.195557,285.528992 
z"/>
<path fill="#D0A5AA" opacity="1.000000" stroke="none" 
	d="
M428.810974,142.928955 
	C428.957275,144.179947 428.903076,145.264801 428.686951,146.723572 
	C428.553467,145.652588 428.581970,144.207703 428.810974,142.928955 
z"/>
<path fill="#D1A6AC" opacity="1.000000" stroke="none" 
	d="
M428.331604,690.171448 
	C428.674866,690.974121 428.829559,692.039429 428.997681,693.513184 
	C428.721710,692.759155 428.432373,691.596558 428.331604,690.171448 
z"/>
<path fill="#D0A5AA" opacity="1.000000" stroke="none" 
	d="
M428.326691,396.180420 
	C428.680298,396.980438 428.839050,398.058868 429.022034,399.550110 
	C428.741455,398.794891 428.436646,397.626831 428.326691,396.180420 
z"/>
<path fill="#D1A6AC" opacity="1.000000" stroke="none" 
	d="
M429.864563,435.585083 
	C429.650085,436.381836 429.255646,436.922974 428.689758,437.777588 
	C428.907074,437.170563 429.295837,436.250031 429.864563,435.585083 
z"/>
</svg>