<svg version="1.1" id="Layer_1" xmlns="http://www.w3.org/2000/svg" xmlns:xlink="http://www.w3.org/1999/xlink" x="0px" y="0px"
	 width="100%" viewBox="0 0 834 834" enable-background="new 0 0 834 834" xml:space="preserve">
<path fill="#FFFFFF" opacity="1.000000" stroke="none" 
	d="
M835.000000,319.000000 
	C835.000000,491.333252 835.000000,663.166504 835.000000,834.999817 
	C557.000183,834.999878 279.000366,834.999878 1.000422,834.999939 
	C1.000282,557.000305 1.000282,279.000610 1.000141,1.000683 
	C278.999573,1.000456 556.999146,1.000456 834.999390,1.000228 
	C835.000000,106.833336 835.000000,212.666672 835.000000,319.000000 
M719.935608,130.451752 
	C719.630493,130.270523 719.325378,130.089310 719.016846,129.983109 
	C719.016846,129.983109 719.091797,129.978943 718.934814,129.452637 
	C718.629822,129.270966 718.324768,129.089294 718.016479,128.983444 
	C718.016479,128.983444 718.092285,128.979355 717.934204,128.453369 
	C717.629272,128.271317 717.324341,128.089249 717.016235,127.983757 
	C717.016235,127.983757 717.092773,127.979683 716.933716,127.453888 
	C716.628845,127.271523 716.324036,127.089157 716.015991,126.983925 
	C716.015991,126.983925 716.093079,126.979935 715.933350,126.454353 
	C715.628540,126.271751 715.323792,126.089149 715.015930,125.984123 
	C715.015930,125.984123 715.093445,125.980125 714.933105,125.454704 
	C714.628357,125.271935 714.323547,125.089157 714.015808,124.984276 
	C714.015808,124.984276 714.093628,124.980247 713.932922,124.454910 
	C713.628235,124.272049 713.323486,124.089195 713.015747,123.984360 
	C713.015747,123.984360 713.093689,123.980301 712.932800,123.455063 
	C712.628113,123.272163 712.323364,123.089272 712.015747,122.984352 
	C712.015747,122.984352 712.093689,122.980286 711.932983,122.455017 
	C711.628235,122.272148 711.323547,122.089287 711.015869,121.984352 
	C711.015869,121.984352 711.093689,121.980209 710.933228,121.454849 
	C710.628479,121.272095 710.323669,121.089340 710.015991,120.984177 
	C710.015991,120.984177 710.093506,120.980064 709.933533,120.454536 
	C709.628723,120.271988 709.323914,120.089432 709.016052,119.984077 
	C709.016052,119.984077 709.093201,119.979858 708.934021,119.454170 
	C708.629150,119.271866 708.324280,119.089569 708.016357,118.983864 
	C708.016357,118.983864 708.092896,118.979553 707.934448,118.453659 
	C707.629517,118.271690 707.324646,118.089722 707.016602,117.983574 
	C707.016602,117.983574 707.092407,117.979218 706.935120,117.453056 
	C706.630127,117.271461 706.325134,117.089867 706.017029,116.983292 
	C706.017029,116.983292 706.091980,116.978752 705.935974,116.452240 
	C705.630859,116.271133 705.325745,116.090019 705.017151,115.983269 
	C705.017151,115.983269 705.091370,115.978233 704.936707,115.451408 
	C704.631531,115.270760 704.326294,115.090111 704.020996,114.984207 
	C704.020996,114.984207 704.087585,114.950127 703.839294,114.358681 
	C703.231018,114.188705 702.622681,114.018730 701.760925,113.242455 
	C691.173706,104.147217 681.135437,94.292809 669.864136,86.143692 
	C654.853638,75.291039 639.027893,65.533920 623.289612,55.727856 
	C603.180847,43.198666 581.477051,33.925430 559.224243,25.984062 
	C536.716797,17.951813 513.671997,12.065878 490.118134,7.685906 
	C469.474335,3.847073 448.693787,3.188809 427.906097,2.142426 
	C418.019440,1.644766 408.050781,2.549486 398.129456,3.029525 
	C387.275208,3.554702 376.353394,3.719429 365.604462,5.132564 
	C350.941406,7.060279 336.155701,9.034956 321.890869,12.775359 
	C302.003235,17.990133 282.058502,23.646669 263.044556,31.350973 
	C243.507660,39.267159 224.596207,49.061661 206.277069,59.547199 
	C190.361588,68.656937 175.311813,79.414764 160.538864,90.336189 
	C151.068237,97.337685 142.793900,105.957344 133.356430,113.987350 
	C132.875076,114.308372 132.393723,114.629395 131.979126,114.984161 
	C131.979126,114.984161 131.977936,114.909378 131.450989,115.063583 
	C131.270233,115.368767 131.089493,115.673950 130.983047,115.983116 
	C130.983047,115.983116 130.978378,115.908844 130.451752,116.064407 
	C130.270538,116.369507 130.089310,116.674614 129.983047,116.983124 
	C129.983047,116.983124 129.978943,116.908203 129.452652,117.065163 
	C129.270981,117.370163 129.089294,117.675171 128.983429,117.983459 
	C128.983429,117.983459 128.979355,117.907692 128.453354,118.065773 
	C128.271301,118.370697 128.089233,118.675621 127.983727,118.983757 
	C127.983727,118.983757 127.979691,118.907242 127.453918,119.066246 
	C127.271545,119.371109 127.089165,119.675972 126.983963,119.983963 
	C126.983963,119.983963 126.979927,119.906837 126.454361,120.066620 
	C126.271751,120.371429 126.089149,120.676247 125.984123,120.984108 
	C125.984123,120.984108 125.980125,120.906563 125.454720,121.066902 
	C125.271950,121.371674 125.089180,121.676437 124.984268,121.984222 
	C124.984268,121.984222 124.980255,121.906395 124.454941,122.067078 
	C124.272079,122.371811 124.089218,122.676552 123.984337,122.984268 
	C123.984337,122.984268 123.980301,122.906334 123.455040,123.067123 
	C123.272148,123.371849 123.089256,123.676575 122.984344,123.984253 
	C122.984344,123.984253 122.980293,123.906326 122.455009,124.067047 
	C122.272148,124.371780 122.089287,124.676506 121.984299,124.984177 
	C121.984299,124.984177 121.980202,124.906357 121.454834,125.066818 
	C121.272087,125.371582 121.089340,125.676353 120.984215,125.984055 
	C120.984215,125.984055 120.980057,125.906494 120.454559,126.066475 
	C120.272003,126.371292 120.089447,126.676109 119.984047,126.983871 
	C119.984047,126.983871 119.979851,126.906761 119.454178,127.066040 
	C119.271889,127.370911 119.089592,127.675789 118.983849,127.983620 
	C118.983849,127.983620 118.979553,127.907127 118.453651,128.065521 
	C118.271683,128.370453 118.089714,128.675385 117.983597,128.983337 
	C117.983597,128.983337 117.979210,128.907562 117.453026,129.064850 
	C117.271439,129.369858 117.089851,129.674866 116.983231,129.982941 
	C116.983231,129.982941 116.978767,129.908051 116.452271,130.063995 
	C116.271156,130.369095 116.090042,130.674194 115.983246,130.982925 
	C115.983246,130.982925 115.978241,130.908676 115.451408,131.063248 
	C115.270760,131.368439 115.090111,131.673645 114.984161,131.978897 
	C114.984161,131.978897 114.950127,131.912399 114.358742,132.160721 
	C114.188766,132.768967 114.018799,133.377213 113.242538,134.239044 
	C106.548248,141.921417 99.765511,149.528809 93.176628,157.300537 
	C75.055367,178.674927 60.498093,202.442352 47.478405,227.120804 
	C36.081284,248.723740 27.040792,271.385162 19.952021,294.782318 
	C13.631884,315.642487 8.306760,336.730316 5.954289,358.469727 
	C4.668827,370.348846 2.359921,382.208069 2.198140,394.099182 
	C1.851779,419.557190 0.657889,445.107361 4.989172,470.414734 
	C7.486039,485.003754 9.035172,499.844666 12.775596,514.109497 
	C17.990366,533.997131 23.646774,553.941833 31.351049,572.955750 
	C39.267220,592.492615 49.061760,611.403992 59.547318,629.723083 
	C68.657043,645.638550 79.414848,660.688293 90.336273,675.461182 
	C97.337730,684.931763 105.957367,693.206116 113.987350,702.643555 
	C114.308372,703.124939 114.629395,703.606262 114.984253,704.020813 
	C114.984253,704.020813 114.909378,704.022217 115.063644,704.549011 
	C115.368813,704.729736 115.673988,704.910461 115.983116,705.016968 
	C115.983116,705.016968 115.908844,705.021729 116.064415,705.548279 
	C116.369507,705.729492 116.674599,705.910706 116.983101,706.016968 
	C116.983101,706.016968 116.908203,706.021179 117.065186,706.547424 
	C117.370178,706.729126 117.675163,706.910767 117.983513,707.016541 
	C117.983513,707.016541 117.907692,707.020691 118.065765,707.546631 
	C118.370689,707.728699 118.675621,707.910767 118.983772,708.016235 
	C118.983772,708.016235 118.907242,708.020325 119.066238,708.546082 
	C119.371101,708.728455 119.675972,708.910828 119.984024,709.015991 
	C119.984024,709.015991 119.906845,709.020020 120.066574,709.545593 
	C120.371399,709.728210 120.676224,709.910828 120.984192,710.015747 
	C120.984192,710.015747 120.906563,710.019836 121.066879,710.545227 
	C121.371651,710.728027 121.676430,710.910767 121.984192,711.015747 
	C121.984192,711.015747 121.906395,711.019714 122.067093,711.545044 
	C122.371826,711.727905 122.676559,711.910767 122.984261,712.015686 
	C122.984261,712.015686 122.906342,712.019653 123.067139,712.544922 
	C123.371864,712.727783 123.676590,712.910645 123.984268,713.015625 
	C123.984268,713.015625 123.906334,713.019653 124.067032,713.544983 
	C124.371758,713.727844 124.676491,713.910706 124.984215,714.015686 
	C124.984215,714.015686 124.906364,714.019714 125.066788,714.545105 
	C125.371567,714.727844 125.676346,714.910583 125.984077,715.015686 
	C125.984077,715.015686 125.906494,715.019897 126.066429,715.545471 
	C126.371254,715.728027 126.676079,715.910583 126.983894,716.015930 
	C126.983894,716.015930 126.906761,716.020142 127.066055,716.545837 
	C127.370926,716.728088 127.675804,716.910400 127.983551,717.016235 
	C127.983551,717.016235 127.907135,717.020508 128.065506,717.546326 
	C128.370438,717.728333 128.675385,717.910278 128.983307,718.016418 
	C128.983307,718.016418 128.907562,718.020935 129.064865,718.547058 
	C129.369858,718.728638 129.674850,718.910217 129.982849,719.016846 
	C129.982849,719.016846 129.908051,719.021362 130.064026,719.547729 
	C130.369110,719.728821 130.674194,719.909973 130.982880,720.016785 
	C130.982880,720.016785 130.908676,720.021851 131.063293,720.548645 
	C131.368484,720.729248 131.673676,720.909912 131.978973,721.015686 
	C131.978973,721.015686 131.912415,721.049866 132.160706,721.641357 
	C132.768951,721.811279 133.377197,721.981262 134.239029,722.757446 
	C141.921280,729.451599 149.528625,736.234192 157.300217,742.822998 
	C178.674545,760.944336 202.442062,775.501526 227.120483,788.521301 
	C248.723450,799.918518 271.384888,808.959045 294.782043,816.047974 
	C315.642181,822.368103 336.730042,827.693298 358.469482,830.045715 
	C370.348633,831.331238 382.207916,833.640320 394.099030,833.801819 
	C419.557037,834.147583 445.107300,835.342957 470.414673,831.010864 
	C485.003632,828.513550 499.844696,826.964844 514.109497,823.224487 
	C533.997131,818.009705 553.941833,812.353210 572.955750,804.648926 
	C592.492615,796.732788 611.403992,786.938171 629.723083,776.452576 
	C645.638550,767.342834 660.688354,756.585205 675.461304,745.663818 
	C684.931885,738.662415 693.206116,730.042664 702.643616,722.012634 
	C703.125000,721.691650 703.606323,721.370605 704.020813,721.015747 
	C704.020813,721.015747 704.022156,721.090637 704.549011,720.936340 
	C704.729736,720.631165 704.910461,720.325989 705.016968,720.016968 
	C705.016968,720.016968 705.021729,720.091125 705.548279,719.935547 
	C705.729492,719.630432 705.910706,719.325378 706.017029,719.016907 
	C706.017029,719.016907 706.021118,719.091797 706.547363,718.934814 
	C706.729065,718.629822 706.910706,718.324829 707.016663,718.016541 
	C707.016663,718.016541 707.020691,718.092285 707.546631,717.934204 
	C707.728699,717.629272 707.910767,717.324341 708.016296,717.016357 
	C708.016296,717.016357 708.020325,717.092773 708.546143,716.933777 
	C708.728516,716.628906 708.910889,716.324036 709.016113,716.016052 
	C709.016113,716.016052 709.020020,716.093079 709.545532,715.933350 
	C709.728149,715.628540 709.910767,715.323730 710.015869,715.015930 
	C710.015869,715.015930 710.019836,715.093445 710.545288,714.933105 
	C710.728088,714.628357 710.910828,714.323608 711.015686,714.015747 
	C711.015686,714.015747 711.019653,714.093628 711.545044,713.932922 
	C711.727905,713.628235 711.910767,713.323486 712.015686,713.015808 
	C712.015686,713.015808 712.019653,713.093689 712.544922,712.932861 
	C712.727844,712.628174 712.910706,712.323425 713.015686,712.015808 
	C713.015686,712.015808 713.019653,712.093689 713.544983,711.932983 
	C713.727844,711.628235 713.910706,711.323547 714.015686,711.015930 
	C714.015686,711.015930 714.019714,711.093689 714.545105,710.933228 
	C714.727844,710.628479 714.910645,710.323669 715.015869,710.015991 
	C715.015869,710.015991 715.019897,710.093506 715.545471,709.933472 
	C715.728027,709.628662 715.910583,709.323914 716.016052,709.016113 
	C716.016052,709.016113 716.020142,709.093201 716.545776,708.933960 
	C716.728088,708.629089 716.910400,708.324219 717.016235,708.016479 
	C717.016235,708.016479 717.020447,708.092896 717.546387,707.934509 
	C717.728333,707.629578 717.910278,707.324646 718.016479,707.016724 
	C718.016479,707.016724 718.020874,707.092407 718.547058,706.935120 
	C718.728577,706.630066 718.910156,706.325073 719.016785,706.017151 
	C719.016785,706.017151 719.021362,706.091980 719.547852,705.936035 
	C719.728943,705.630920 719.910034,705.325806 720.016724,705.017151 
	C720.016724,705.017151 720.021851,705.091370 720.548706,704.936707 
	C720.729309,704.631470 720.909912,704.326294 721.015686,704.020996 
	C721.015686,704.020996 721.049866,704.087585 721.641296,703.839233 
	C721.811279,703.230957 721.981262,702.622681 722.757507,701.760925 
	C729.451843,694.078552 736.234619,686.471130 742.823547,678.699402 
	C760.944702,657.325012 775.501953,633.557556 788.521667,608.879211 
	C799.918823,587.276245 808.959290,564.614868 816.047974,541.217712 
	C822.368103,520.357544 827.693298,499.269684 830.045837,477.530273 
	C831.331238,465.651154 833.626953,453.792969 833.804504,441.900543 
	C834.184692,416.441559 835.262268,390.893219 831.003357,365.586426 
	C828.546997,350.990662 826.964783,336.155243 823.224426,321.890411 
	C818.009583,302.002838 812.353149,282.058136 804.648926,263.044220 
	C796.732727,243.507401 786.938293,224.595978 776.452759,206.276871 
	C767.343018,190.361404 756.585144,175.311722 745.663757,160.538834 
	C738.662292,151.068222 730.042603,142.793900 722.012695,133.356384 
	C721.691650,132.875031 721.370605,132.393692 721.015747,131.979187 
	C721.015747,131.979187 721.090637,131.977936 720.936401,131.450974 
	C720.631226,131.270218 720.325989,131.089462 720.016846,130.983063 
	C720.016846,130.983063 720.091125,130.978394 719.935608,130.451752 
z"/>
<path fill="#66787C" opacity="1.000000" stroke="none" 
	d="
M133.983292,113.851624 
	C142.793900,105.957344 151.068237,97.337685 160.538864,90.336189 
	C175.311813,79.414764 190.361588,68.656937 206.277069,59.547199 
	C224.596207,49.061661 243.507660,39.267159 263.044556,31.350973 
	C282.058502,23.646669 302.003235,17.990133 321.890869,12.775359 
	C336.155701,9.034956 350.941406,7.060279 365.604462,5.132564 
	C376.353394,3.719429 387.275208,3.554702 398.129456,3.029525 
	C408.050781,2.549486 418.019440,1.644766 427.906097,2.142426 
	C448.693787,3.188809 469.474335,3.847073 490.118134,7.685906 
	C513.671997,12.065878 536.716797,17.951813 559.224243,25.984062 
	C581.477051,33.925430 603.180847,43.198666 623.289612,55.727856 
	C639.027893,65.533920 654.853638,75.291039 669.864136,86.143692 
	C681.135437,94.292809 691.173706,104.147217 702.041504,113.826286 
	C702.910583,114.590126 703.499084,114.770126 704.087585,114.950134 
	C704.087585,114.950127 704.020996,114.984207 704.115356,115.197952 
	C704.503601,115.600548 704.797485,115.789398 705.091370,115.978241 
	C705.091370,115.978233 705.017151,115.983269 705.114014,116.196899 
	C705.504578,116.599945 705.798279,116.789345 706.091980,116.978745 
	C706.091980,116.978752 706.017029,116.983292 706.114502,117.196304 
	C706.505493,117.599289 706.798950,117.789253 707.092407,117.979218 
	C707.092407,117.979218 707.016602,117.983574 707.114807,118.195953 
	C707.506287,118.598740 707.799622,118.789146 708.092896,118.979553 
	C708.092896,118.979553 708.016357,118.983864 708.114990,119.195686 
	C708.506836,119.598289 708.799988,119.789070 709.093201,119.979858 
	C709.093201,119.979858 709.016052,119.984077 709.115234,120.195412 
	C709.507385,120.597855 709.800476,120.788956 710.093506,120.980064 
	C710.093506,120.980064 710.015991,120.984177 710.115356,121.195236 
	C710.507690,121.597603 710.800720,121.788910 711.093689,121.980209 
	C711.093689,121.980209 711.015869,121.984352 711.115356,122.195160 
	C711.507874,122.597404 711.800781,122.788841 712.093689,122.980278 
	C712.093689,122.980286 712.015747,122.984352 712.115417,123.195099 
	C712.507935,123.597328 712.800842,123.788811 713.093689,123.980301 
	C713.093689,123.980301 713.015747,123.984360 713.115356,124.195160 
	C713.507874,124.597389 713.800720,124.788818 714.093628,124.980255 
	C714.093628,124.980247 714.015808,124.984276 714.115234,125.195183 
	C714.507629,125.597443 714.800537,125.788788 715.093445,125.980133 
	C715.093445,125.980125 715.015930,125.984123 715.115173,126.195213 
	C715.507324,126.597511 715.800171,126.788719 716.093079,126.979935 
	C716.093079,126.979935 716.015991,126.983925 716.114868,127.195435 
	C716.506714,127.597847 716.799744,127.788757 717.092773,127.979675 
	C717.092773,127.979683 717.016235,127.983757 717.114624,128.195724 
	C717.506042,128.598251 717.799194,128.788803 718.092285,128.979355 
	C718.092285,128.979355 718.016479,128.983444 718.114258,129.196014 
	C718.505310,129.598694 718.798584,129.788818 719.091797,129.978943 
	C719.091797,129.978943 719.016846,129.983109 719.113953,130.196335 
	C719.504395,130.599182 719.797729,130.788803 720.091125,130.978409 
	C720.091125,130.978394 720.016846,130.983063 720.113342,131.196930 
	C720.503418,131.599854 720.797058,131.788895 721.090637,131.977936 
	C721.090637,131.977936 721.015747,131.979187 721.028442,132.266663 
	C721.410217,133.030518 721.779297,133.506912 722.148376,133.983307 
	C730.042603,142.793900 738.662292,151.068222 745.663757,160.538834 
	C756.585144,175.311722 767.343018,190.361404 776.452759,206.276871 
	C786.938293,224.595978 796.732727,243.507401 804.648926,263.044220 
	C812.353149,282.058136 818.009583,302.002838 823.224426,321.890411 
	C826.964783,336.155243 828.546997,350.990662 831.003357,365.586426 
	C835.262268,390.893219 834.184692,416.441559 833.804504,441.900543 
	C833.626953,453.792969 831.331238,465.651154 830.045837,477.530273 
	C827.693298,499.269684 822.368103,520.357544 816.047974,541.217712 
	C808.959290,564.614868 799.918823,587.276245 788.521667,608.879211 
	C775.501953,633.557556 760.944702,657.325012 742.823547,678.699402 
	C736.234619,686.471130 729.451843,694.078552 722.173706,702.041504 
	C721.409851,702.910645 721.229858,703.499084 721.049866,704.087585 
	C721.049866,704.087585 721.015686,704.020996 720.802002,704.115356 
	C720.399536,704.503662 720.210693,704.797546 720.021851,705.091370 
	C720.021851,705.091370 720.016724,705.017151 719.803101,705.114014 
	C719.400146,705.504639 719.210754,705.798279 719.021362,706.091980 
	C719.021362,706.091980 719.016785,706.017151 718.803772,706.114624 
	C718.400818,706.505554 718.210876,706.799011 718.020874,707.092407 
	C718.020874,707.092407 718.016479,707.016724 717.804077,707.114807 
	C717.401245,707.506226 717.210815,707.799561 717.020447,708.092896 
	C717.020447,708.092896 717.016235,708.016479 716.804382,708.115112 
	C716.401733,708.506897 716.210938,708.800049 716.020142,709.093201 
	C716.020142,709.093201 716.016052,709.016113 715.804626,709.115234 
	C715.402100,709.507385 715.210999,709.800415 715.019897,710.093506 
	C715.019897,710.093506 715.015869,710.015991 714.804810,710.115356 
	C714.402344,710.507690 714.210999,710.800720 714.019714,711.093689 
	C714.019714,711.093689 714.015686,711.015930 713.804871,711.115479 
	C713.402588,711.507874 713.211121,711.800781 713.019653,712.093689 
	C713.019653,712.093689 713.015686,712.015808 712.804871,712.115356 
	C712.402588,712.507874 712.211121,712.800781 712.019653,713.093689 
	C712.019653,713.093689 712.015686,713.015808 711.804871,713.115356 
	C711.402588,713.507874 711.211121,713.800720 711.019653,714.093628 
	C711.019653,714.093628 711.015686,714.015747 710.804810,714.115234 
	C710.402588,714.507690 710.211243,714.800598 710.019897,715.093445 
	C710.019836,715.093445 710.015869,715.015930 709.804688,715.115112 
	C709.402344,715.507263 709.211182,715.800171 709.020020,716.093079 
	C709.020020,716.093079 709.016113,716.016052 708.804565,716.114868 
	C708.402100,716.506653 708.211243,716.799744 708.020325,717.092773 
	C708.020325,717.092773 708.016296,717.016357 707.804321,717.114624 
	C707.401733,717.506042 707.211182,717.799133 707.020630,718.092285 
	C707.020691,718.092285 707.016663,718.016541 706.804016,718.114258 
	C706.401306,718.505310 706.211182,718.798523 706.021118,719.091797 
	C706.021118,719.091797 706.017029,719.016907 705.803711,719.113892 
	C705.400879,719.504333 705.211304,719.797729 705.021729,720.091125 
	C705.021729,720.091125 705.016968,720.016968 704.803101,720.113403 
	C704.400146,720.503479 704.211182,720.797058 704.022217,721.090637 
	C704.022156,721.090637 704.020813,721.015747 703.733398,721.028442 
	C702.969482,721.410217 702.493042,721.779297 702.016663,722.148376 
	C693.206116,730.042664 684.931885,738.662415 675.461304,745.663818 
	C660.688354,756.585205 645.638550,767.342834 629.723083,776.452576 
	C611.403992,786.938171 592.492615,796.732788 572.955750,804.648926 
	C553.941833,812.353210 533.997131,818.009705 514.109497,823.224487 
	C499.844696,826.964844 485.003632,828.513550 470.414673,831.010864 
	C445.107300,835.342957 419.557037,834.147583 394.099030,833.801819 
	C382.207916,833.640320 370.348633,831.331238 358.469482,830.045715 
	C336.730042,827.693298 315.642181,822.368103 294.782043,816.047974 
	C271.384888,808.959045 248.723450,799.918518 227.120483,788.521301 
	C202.442062,775.501526 178.674545,760.944336 157.300217,742.822998 
	C149.528625,736.234192 141.921280,729.451599 133.958466,722.173645 
	C133.089401,721.409851 132.500916,721.229858 131.912415,721.049866 
	C131.912415,721.049866 131.978973,721.015686 131.884598,720.802002 
	C131.496368,720.399475 131.202530,720.210632 130.908676,720.021851 
	C130.908676,720.021851 130.982880,720.016785 130.885956,719.803101 
	C130.495377,719.400146 130.201706,719.210754 129.908051,719.021362 
	C129.908051,719.021362 129.982849,719.016846 129.885437,718.803711 
	C129.494522,718.400757 129.201050,718.210815 128.907562,718.020935 
	C128.907562,718.020935 128.983307,718.016418 128.885178,717.804077 
	C128.493744,717.401306 128.200424,717.210938 127.907127,717.020508 
	C127.907135,717.020508 127.983551,717.016235 127.884903,716.804382 
	C127.493095,716.401733 127.199921,716.210938 126.906754,716.020142 
	C126.906761,716.020142 126.983894,716.015930 126.884773,715.804626 
	C126.492592,715.402161 126.199532,715.211060 125.906479,715.019897 
	C125.906494,715.019897 125.984077,715.015686 125.884674,714.804688 
	C125.492302,714.402344 125.199333,714.210999 124.906372,714.019714 
	C124.906364,714.019714 124.984215,714.015686 124.884659,713.804810 
	C124.492172,713.402527 124.199257,713.211121 123.906334,713.019653 
	C123.906334,713.019653 123.984268,713.015625 123.884636,712.804810 
	C123.492126,712.402527 123.199249,712.211060 122.906357,712.019653 
	C122.906342,712.019653 122.984261,712.015686 122.884644,711.804871 
	C122.492149,711.402649 122.199265,711.211182 121.906387,711.019714 
	C121.906395,711.019714 121.984192,711.015747 121.884705,710.804810 
	C121.492332,710.402588 121.199448,710.211182 120.906563,710.019836 
	C120.906563,710.019836 120.984192,710.015747 120.884933,709.804688 
	C120.492722,709.402405 120.199776,709.211243 119.906830,709.020020 
	C119.906845,709.020020 119.984024,709.015991 119.885147,708.804504 
	C119.493263,708.402100 119.200256,708.211243 118.907242,708.020325 
	C118.907242,708.020325 118.983772,708.016235 118.885437,707.804321 
	C118.493973,707.401794 118.200836,707.211243 117.907700,707.020691 
	C117.907692,707.020691 117.983513,707.016541 117.885727,706.803955 
	C117.494690,706.401306 117.201447,706.211243 116.908203,706.021179 
	C116.908203,706.021179 116.983101,706.016968 116.886047,705.803711 
	C116.495598,705.400940 116.202209,705.211365 115.908829,705.021729 
	C115.908844,705.021729 115.983116,705.016968 115.886673,704.802979 
	C115.496613,704.400085 115.203011,704.211121 114.909393,704.022217 
	C114.909378,704.022217 114.984253,704.020813 114.971542,703.733337 
	C114.589767,702.969482 114.220695,702.493042 113.851624,702.016663 
	C105.957367,693.206116 97.337730,684.931763 90.336273,675.461182 
	C79.414848,660.688293 68.657043,645.638550 59.547318,629.723083 
	C49.061760,611.403992 39.267220,592.492615 31.351049,572.955750 
	C23.646774,553.941833 17.990366,533.997131 12.775596,514.109497 
	C9.035172,499.844666 7.486039,485.003754 4.989172,470.414734 
	C0.657889,445.107361 1.851779,419.557190 2.198140,394.099182 
	C2.359921,382.208069 4.668827,370.348846 5.954289,358.469727 
	C8.306760,336.730316 13.631884,315.642487 19.952021,294.782318 
	C27.040792,271.385162 36.081284,248.723740 47.478405,227.120804 
	C60.498093,202.442352 75.055367,178.674927 93.176628,157.300537 
	C99.765511,149.528809 106.548248,141.921417 113.826355,133.958435 
	C114.590157,133.089355 114.770142,132.500885 114.950134,131.912399 
	C114.950127,131.912399 114.984161,131.978897 115.197906,131.884552 
	C115.600510,131.496368 115.789375,131.202530 115.978241,130.908676 
	C115.978241,130.908676 115.983246,130.982925 116.196869,130.885971 
	C116.599922,130.495361 116.789345,130.201706 116.978767,129.908051 
	C116.978767,129.908051 116.983231,129.982941 117.196259,129.885437 
	C117.599266,129.494476 117.789238,129.201019 117.979210,128.907562 
	C117.979210,128.907562 117.983597,128.983337 118.195969,128.885193 
	C118.598747,128.493759 118.789154,128.200439 118.979553,127.907127 
	C118.979553,127.907127 118.983849,127.983620 119.195679,127.884964 
	C119.598282,127.493126 119.789070,127.199944 119.979851,126.906761 
	C119.979851,126.906761 119.984047,126.983871 120.195419,126.884773 
	C120.597878,126.492615 120.788963,126.199554 120.980057,125.906494 
	C120.980057,125.906494 120.984215,125.984055 121.195259,125.884674 
	C121.597603,125.492317 121.788910,125.199341 121.980209,124.906357 
	C121.980202,124.906357 121.984299,124.984177 122.195145,124.884613 
	C122.597427,124.492142 122.788857,124.199234 122.980293,123.906326 
	C122.980293,123.906326 122.984344,123.984253 123.195107,123.884613 
	C123.597343,123.492088 123.788818,123.199211 123.980301,122.906326 
	C123.980301,122.906334 123.984337,122.984268 124.195122,122.884644 
	C124.597359,122.492149 124.788803,122.199272 124.980255,121.906387 
	C124.980255,121.906395 124.984268,121.984222 125.195168,121.884735 
	C125.597420,121.492363 125.788773,121.199463 125.980125,120.906563 
	C125.980125,120.906563 125.984123,120.984108 126.195274,120.884903 
	C126.597595,120.492737 126.788757,120.199791 126.979927,119.906837 
	C126.979927,119.906837 126.983963,119.983963 127.195465,119.885132 
	C127.597885,119.493286 127.788788,119.200264 127.979691,118.907242 
	C127.979691,118.907242 127.983727,118.983757 128.195724,118.885414 
	C128.598267,118.493942 128.788803,118.200813 128.979340,117.907684 
	C128.979355,117.907692 128.983429,117.983459 129.195999,117.885704 
	C129.598694,117.494698 129.788818,117.201447 129.978943,116.908203 
	C129.978943,116.908203 129.983047,116.983124 130.196304,116.886055 
	C130.599167,116.495605 130.788773,116.202225 130.978378,115.908844 
	C130.978378,115.908844 130.983047,115.983116 131.196930,115.886627 
	C131.599854,115.496559 131.788895,115.202972 131.977936,114.909378 
	C131.977936,114.909378 131.979126,114.984161 132.266602,114.971504 
	C133.030487,114.589775 133.506897,114.220695 133.983292,113.851624 
M409.097382,118.732117 
	C409.097382,118.732117 408.985199,118.935822 408.281830,119.058617 
	C374.430786,138.447327 340.581757,157.839630 306.728180,177.223923 
	C257.564972,205.374374 208.493027,233.687210 159.118591,261.462250 
	C152.642700,265.105225 150.922165,269.283691 150.930649,276.001617 
	C151.051895,371.996002 151.013474,467.990570 151.013626,563.985107 
	C151.013626,564.985046 151.027283,565.985168 151.013504,566.984863 
	C150.966156,570.422424 152.234329,572.820129 155.466187,574.602478 
	C166.223541,580.535339 176.788605,586.815491 187.481628,592.866577 
	C230.932404,617.455383 274.402679,642.009644 317.867218,666.574158 
	C350.641083,685.096741 383.406067,703.635071 416.233063,722.062988 
	C417.520111,722.785461 419.805298,723.136292 420.959473,722.483215 
	C449.428162,706.377380 477.801056,690.102295 506.202698,673.877869 
	C538.016479,655.704285 569.846619,637.559387 601.660522,619.386047 
	C628.239929,604.202942 654.797241,588.981018 681.391418,573.823975 
	C684.152466,572.250366 685.845520,570.570374 685.841614,566.925171 
	C685.735474,468.264221 685.745361,369.603149 685.800171,270.942139 
	C685.802063,267.603210 684.844116,265.519897 681.750977,263.770386 
	C659.076233,250.945160 636.543518,237.869110 613.921082,224.950958 
	C564.255554,196.590363 514.567627,168.268967 464.879120,139.948624 
	C453.218292,133.302460 441.518890,126.724045 429.446136,119.640022 
	C428.536987,119.320793 427.627838,119.001556 426.286316,118.129402 
	C418.411896,112.466484 417.552704,112.496941 409.097382,118.732117 
z"/>
<path fill="#786C56" opacity="1.000000" stroke="none" 
	d="
M133.669861,113.919487 
	C133.506897,114.220695 133.030487,114.589775 132.233231,114.954636 
	C132.393723,114.629395 132.875076,114.308372 133.669861,113.919487 
z"/>
<path fill="#786C56" opacity="1.000000" stroke="none" 
	d="
M702.330139,722.080505 
	C702.493042,721.779297 702.969482,721.410217 703.766785,721.045349 
	C703.606323,721.370605 703.125000,721.691650 702.330139,722.080505 
z"/>
<path fill="#786C56" opacity="1.000000" stroke="none" 
	d="
M132.036560,721.345581 
	C132.500916,721.229858 133.089401,721.409851 133.831665,721.870544 
	C133.377197,721.981262 132.768951,721.811279 132.036560,721.345581 
z"/>
<path fill="#786C56" opacity="1.000000" stroke="none" 
	d="
M721.345581,703.963379 
	C721.229858,703.499084 721.409851,702.910645 721.870605,702.168274 
	C721.981262,702.622681 721.811279,703.230957 721.345581,703.963379 
z"/>
<path fill="#786C56" opacity="1.000000" stroke="none" 
	d="
M113.919487,702.330078 
	C114.220695,702.493042 114.589767,702.969482 114.954628,703.766724 
	C114.629395,703.606262 114.308372,703.124939 113.919487,702.330078 
z"/>
<path fill="#786C56" opacity="1.000000" stroke="none" 
	d="
M703.963440,114.654404 
	C703.499084,114.770126 702.910583,114.590126 702.168213,114.129433 
	C702.622681,114.018730 703.231018,114.188705 703.963440,114.654404 
z"/>
<path fill="#786C56" opacity="1.000000" stroke="none" 
	d="
M722.080566,133.669846 
	C721.779297,133.506912 721.410217,133.030518 721.045410,132.233246 
	C721.370605,132.393692 721.691650,132.875031 722.080566,133.669846 
z"/>
<path fill="#786C56" opacity="1.000000" stroke="none" 
	d="
M114.654434,132.036560 
	C114.770142,132.500885 114.590157,133.089355 114.129501,133.831650 
	C114.018799,133.377213 114.188766,132.768967 114.654434,132.036560 
z"/>
<path fill="#786C56" opacity="1.000000" stroke="none" 
	d="
M119.986694,709.282837 
	C120.199776,709.211243 120.492722,709.402405 120.883362,709.843506 
	C120.676224,709.910828 120.371399,709.728210 119.986694,709.282837 
z"/>
<path fill="#786C56" opacity="1.000000" stroke="none" 
	d="
M123.986679,713.282349 
	C124.199257,713.211121 124.492172,713.402527 124.883163,713.843750 
	C124.676491,713.910706 124.371758,713.727844 123.986679,713.282349 
z"/>
<path fill="#786C56" opacity="1.000000" stroke="none" 
	d="
M712.282288,713.013306 
	C712.211121,712.800781 712.402588,712.507874 712.843872,712.116821 
	C712.910706,712.323425 712.727844,712.628174 712.282288,713.013306 
z"/>
<path fill="#786C56" opacity="1.000000" stroke="none" 
	d="
M122.986755,712.282227 
	C123.199249,712.211060 123.492126,712.402527 123.883163,712.843750 
	C123.676590,712.910645 123.371864,712.727783 122.986755,712.282227 
z"/>
<path fill="#786C56" opacity="1.000000" stroke="none" 
	d="
M713.282349,712.013306 
	C713.211121,711.800781 713.402588,711.507874 713.843811,711.116882 
	C713.910706,711.323547 713.727844,711.628235 713.282349,712.013306 
z"/>
<path fill="#786C56" opacity="1.000000" stroke="none" 
	d="
M121.986740,711.282349 
	C122.199265,711.211182 122.492149,711.402649 122.883163,711.843872 
	C122.676559,711.910767 122.371826,711.727905 121.986740,711.282349 
z"/>
<path fill="#786C56" opacity="1.000000" stroke="none" 
	d="
M714.282410,711.013428 
	C714.210999,710.800720 714.402344,710.507690 714.843506,710.116821 
	C714.910645,710.323669 714.727844,710.628479 714.282410,711.013428 
z"/>
<path fill="#786C56" opacity="1.000000" stroke="none" 
	d="
M120.986725,710.282532 
	C121.199448,710.211182 121.492332,710.402588 121.883217,710.843750 
	C121.676430,710.910767 121.371651,710.728027 120.986725,710.282532 
z"/>
<path fill="#786C56" opacity="1.000000" stroke="none" 
	d="
M715.282654,710.013489 
	C715.210999,709.800415 715.402100,709.507385 715.843140,709.116699 
	C715.910583,709.323914 715.728027,709.628662 715.282654,710.013489 
z"/>
<path fill="#786C56" opacity="1.000000" stroke="none" 
	d="
M711.282349,714.013306 
	C711.211121,713.800720 711.402588,713.507874 711.843872,713.116821 
	C711.910767,713.323486 711.727905,713.628235 711.282349,714.013306 
z"/>
<path fill="#786C56" opacity="1.000000" stroke="none" 
	d="
M716.282959,709.013550 
	C716.210938,708.800049 716.401733,708.506897 716.842590,708.116577 
	C716.910400,708.324219 716.728088,708.629089 716.282959,709.013550 
z"/>
<path fill="#786C56" opacity="1.000000" stroke="none" 
	d="
M118.986740,708.283203 
	C119.200256,708.211243 119.493263,708.402100 119.883560,708.843140 
	C119.675972,708.910828 119.371101,708.728455 118.986740,708.283203 
z"/>
<path fill="#786C56" opacity="1.000000" stroke="none" 
	d="
M717.283447,708.013672 
	C717.210815,707.799561 717.401245,707.506226 717.841919,707.116333 
	C717.910278,707.324646 717.728333,707.629578 717.283447,708.013672 
z"/>
<path fill="#786C56" opacity="1.000000" stroke="none" 
	d="
M117.986740,707.283691 
	C118.200836,707.211243 118.493973,707.401794 118.883827,707.842590 
	C118.675621,707.910767 118.370689,707.728699 117.986740,707.283691 
z"/>
<path fill="#786C56" opacity="1.000000" stroke="none" 
	d="
M718.283936,707.013794 
	C718.210876,706.799011 718.400818,706.505554 718.841248,706.116089 
	C718.910156,706.325073 718.728577,706.630066 718.283936,707.013794 
z"/>
<path fill="#786C56" opacity="1.000000" stroke="none" 
	d="
M116.986694,706.284302 
	C117.201447,706.211243 117.494690,706.401306 117.884048,706.841919 
	C117.675163,706.910767 117.370178,706.729126 116.986694,706.284302 
z"/>
<path fill="#786C56" opacity="1.000000" stroke="none" 
	d="
M719.284607,706.014038 
	C719.210754,705.798279 719.400146,705.504639 719.840332,705.115845 
	C719.910034,705.325806 719.728943,705.630920 719.284607,706.014038 
z"/>
<path fill="#786C56" opacity="1.000000" stroke="none" 
	d="
M707.283630,718.013245 
	C707.211182,717.799133 707.401733,717.506042 707.842529,717.116211 
	C707.910767,717.324341 707.728699,717.629272 707.283630,718.013245 
z"/>
<path fill="#786C56" opacity="1.000000" stroke="none" 
	d="
M707.013794,117.716141 
	C706.798950,117.789253 706.505493,117.599289 706.116089,117.158798 
	C706.325134,117.089867 706.630127,117.271461 707.013794,117.716141 
z"/>
<path fill="#786C56" opacity="1.000000" stroke="none" 
	d="
M128.716339,117.986725 
	C128.788803,118.200813 128.598267,118.493942 128.157440,118.883804 
	C128.089233,118.675621 128.271301,118.370697 128.716339,117.986725 
z"/>
<path fill="#786C56" opacity="1.000000" stroke="none" 
	d="
M704.285645,721.013489 
	C704.211182,720.797058 704.400146,720.503479 704.840210,720.115356 
	C704.910461,720.325989 704.729736,720.631165 704.285645,721.013489 
z"/>
<path fill="#786C56" opacity="1.000000" stroke="none" 
	d="
M130.985992,720.285278 
	C131.202530,720.210632 131.496368,720.399475 131.884537,720.839355 
	C131.673676,720.909912 131.368484,720.729248 130.985992,720.285278 
z"/>
<path fill="#786C56" opacity="1.000000" stroke="none" 
	d="
M705.285034,720.013306 
	C705.211304,719.797729 705.400879,719.504333 705.841187,719.115601 
	C705.910706,719.325378 705.729492,719.630432 705.285034,720.013306 
z"/>
<path fill="#786C56" opacity="1.000000" stroke="none" 
	d="
M129.986023,719.284546 
	C130.201706,719.210754 130.495377,719.400146 130.884171,719.840271 
	C130.674194,719.909973 130.369110,719.728821 129.986023,719.284546 
z"/>
<path fill="#786C56" opacity="1.000000" stroke="none" 
	d="
M706.284241,719.013306 
	C706.211182,718.798523 706.401306,718.505310 706.841858,718.115967 
	C706.910706,718.324829 706.729065,718.629822 706.284241,719.013306 
z"/>
<path fill="#786C56" opacity="1.000000" stroke="none" 
	d="
M128.986206,718.283997 
	C129.201050,718.210815 129.494522,718.400757 129.883911,718.841187 
	C129.674850,718.910217 129.369858,718.728638 128.986206,718.283997 
z"/>
<path fill="#786C56" opacity="1.000000" stroke="none" 
	d="
M115.986618,705.285034 
	C116.202209,705.211365 116.495598,705.400940 116.884338,705.841187 
	C116.674599,705.910706 116.369507,705.729492 115.986618,705.285034 
z"/>
<path fill="#786C56" opacity="1.000000" stroke="none" 
	d="
M127.986313,717.283447 
	C128.200424,717.210938 128.493744,717.401306 128.883698,717.841919 
	C128.675385,717.910278 128.370438,717.728333 127.986313,717.283447 
z"/>
<path fill="#786C56" opacity="1.000000" stroke="none" 
	d="
M708.283203,717.013306 
	C708.211243,716.799744 708.402100,716.506653 708.843140,716.116394 
	C708.910889,716.324036 708.728516,716.628906 708.283203,717.013306 
z"/>
<path fill="#786C56" opacity="1.000000" stroke="none" 
	d="
M126.986404,716.282959 
	C127.199921,716.210938 127.493095,716.401733 127.883469,716.842651 
	C127.675804,716.910400 127.370926,716.728088 126.986404,716.282959 
z"/>
<path fill="#786C56" opacity="1.000000" stroke="none" 
	d="
M709.282776,716.013184 
	C709.211182,715.800171 709.402344,715.507263 709.843445,715.116699 
	C709.910767,715.323730 709.728149,715.628540 709.282776,716.013184 
z"/>
<path fill="#786C56" opacity="1.000000" stroke="none" 
	d="
M125.986450,715.282715 
	C126.199532,715.211060 126.492592,715.402161 126.883278,715.843262 
	C126.676079,715.910583 126.371254,715.728027 125.986450,715.282715 
z"/>
<path fill="#786C56" opacity="1.000000" stroke="none" 
	d="
M710.282593,715.013306 
	C710.211243,714.800598 710.402588,714.507690 710.843750,714.116821 
	C710.910828,714.323608 710.728088,714.628357 710.282593,715.013306 
z"/>
<path fill="#786C56" opacity="1.000000" stroke="none" 
	d="
M124.986580,714.282410 
	C125.199333,714.210999 125.492302,714.402344 125.883194,714.843506 
	C125.676346,714.910583 125.371567,714.727844 124.986580,714.282410 
z"/>
<path fill="#786C56" opacity="1.000000" stroke="none" 
	d="
M715.013306,125.717422 
	C714.800537,125.788788 714.507629,125.597443 714.116760,125.156235 
	C714.323547,125.089157 714.628357,125.271935 715.013306,125.717422 
z"/>
<path fill="#786C56" opacity="1.000000" stroke="none" 
	d="
M719.013306,129.715790 
	C718.798584,129.788818 718.505310,129.598694 718.115967,129.158096 
	C718.324768,129.089294 718.629822,129.270966 719.013306,129.715790 
z"/>
<path fill="#786C56" opacity="1.000000" stroke="none" 
	d="
M117.716118,128.986206 
	C117.789238,129.201019 117.599266,129.494476 117.158768,129.883911 
	C117.089851,129.674866 117.271439,129.369858 117.716118,128.986206 
z"/>
<path fill="#786C56" opacity="1.000000" stroke="none" 
	d="
M718.013245,128.716370 
	C717.799194,128.788803 717.506042,128.598251 717.116211,128.157440 
	C717.324341,128.089249 717.629272,128.271317 718.013245,128.716370 
z"/>
<path fill="#786C56" opacity="1.000000" stroke="none" 
	d="
M118.716599,127.986328 
	C118.789154,128.200439 118.598747,128.493759 118.158043,128.883698 
	C118.089714,128.675385 118.271683,128.370453 118.716599,127.986328 
z"/>
<path fill="#786C56" opacity="1.000000" stroke="none" 
	d="
M717.013245,127.716782 
	C716.799744,127.788757 716.506714,127.597847 716.116455,127.156860 
	C716.324036,127.089157 716.628845,127.271523 717.013245,127.716782 
z"/>
<path fill="#786C56" opacity="1.000000" stroke="none" 
	d="
M119.717010,126.986404 
	C119.789070,127.199944 119.598282,127.493126 119.157402,127.883484 
	C119.089592,127.675789 119.271889,127.370911 119.717010,126.986404 
z"/>
<path fill="#786C56" opacity="1.000000" stroke="none" 
	d="
M716.013184,126.717140 
	C715.800171,126.788719 715.507324,126.597511 715.116699,126.156425 
	C715.323792,126.089149 715.628540,126.271751 716.013184,126.717140 
z"/>
<path fill="#786C56" opacity="1.000000" stroke="none" 
	d="
M120.717300,125.986481 
	C120.788963,126.199554 120.597878,126.492615 120.156845,126.883301 
	C120.089447,126.676109 120.272003,126.371292 120.717300,125.986481 
z"/>
<path fill="#786C56" opacity="1.000000" stroke="none" 
	d="
M116.715515,129.986023 
	C116.789345,130.201706 116.599922,130.495361 116.159714,130.884155 
	C116.090042,130.674194 116.271156,130.369095 116.715515,129.986023 
z"/>
<path fill="#786C56" opacity="1.000000" stroke="none" 
	d="
M121.717522,124.986588 
	C121.788910,125.199341 121.597603,125.492317 121.156448,125.883209 
	C121.089340,125.676353 121.272087,125.371582 121.717522,124.986588 
z"/>
<path fill="#786C56" opacity="1.000000" stroke="none" 
	d="
M714.013306,124.717583 
	C713.800720,124.788818 713.507874,124.597389 713.116821,124.156143 
	C713.323486,124.089195 713.628235,124.272049 714.013306,124.717583 
z"/>
<path fill="#786C56" opacity="1.000000" stroke="none" 
	d="
M122.717651,123.986687 
	C122.788857,124.199234 122.597427,124.492142 122.156212,124.883148 
	C122.089287,124.676506 122.272148,124.371780 122.717651,123.986687 
z"/>
<path fill="#786C56" opacity="1.000000" stroke="none" 
	d="
M713.013245,123.717682 
	C712.800842,123.788811 712.507935,123.597328 712.116882,123.156113 
	C712.323364,123.089272 712.628113,123.272163 713.013245,123.717682 
z"/>
<path fill="#786C56" opacity="1.000000" stroke="none" 
	d="
M123.717667,122.986725 
	C123.788818,123.199211 123.597343,123.492088 123.156113,123.883133 
	C123.089256,123.676575 123.272148,123.371849 123.717667,122.986725 
z"/>
<path fill="#786C56" opacity="1.000000" stroke="none" 
	d="
M712.013306,122.717644 
	C711.800781,122.788841 711.507874,122.597404 711.116821,122.156204 
	C711.323547,122.089287 711.628235,122.272148 712.013306,122.717644 
z"/>
<path fill="#786C56" opacity="1.000000" stroke="none" 
	d="
M124.717590,121.986732 
	C124.788803,122.199272 124.597359,122.492149 124.156128,122.883163 
	C124.089218,122.676552 124.272079,122.371811 124.717590,121.986732 
z"/>
<path fill="#786C56" opacity="1.000000" stroke="none" 
	d="
M131.714462,114.986481 
	C131.788895,115.202972 131.599854,115.496559 131.159775,115.884644 
	C131.089493,115.673950 131.270233,115.368767 131.714462,114.986481 
z"/>
<path fill="#786C56" opacity="1.000000" stroke="none" 
	d="
M720.285278,705.014038 
	C720.210693,704.797546 720.399536,704.503662 720.839478,704.115417 
	C720.909912,704.326294 720.729309,704.631470 720.285278,705.014038 
z"/>
<path fill="#786C56" opacity="1.000000" stroke="none" 
	d="
M114.986526,704.285583 
	C115.203011,704.211121 115.496613,704.400085 115.884689,704.840088 
	C115.673988,704.910461 115.368813,704.729736 114.986526,704.285583 
z"/>
<path fill="#786C56" opacity="1.000000" stroke="none" 
	d="
M708.013672,118.716614 
	C707.799622,118.789146 707.506287,118.598740 707.116333,118.158035 
	C707.324646,118.089722 707.629517,118.271690 708.013672,118.716614 
z"/>
<path fill="#786C56" opacity="1.000000" stroke="none" 
	d="
M127.716805,118.986740 
	C127.788788,119.200264 127.597885,119.493286 127.156883,119.883568 
	C127.089165,119.675972 127.271545,119.371109 127.716805,118.986740 
z"/>
<path fill="#786C56" opacity="1.000000" stroke="none" 
	d="
M709.013611,119.717010 
	C708.799988,119.789070 708.506836,119.598289 708.116516,119.157394 
	C708.324280,119.089569 708.629150,119.271866 709.013611,119.717010 
z"/>
<path fill="#786C56" opacity="1.000000" stroke="none" 
	d="
M129.715790,116.986679 
	C129.788818,117.201447 129.598694,117.494698 129.158096,117.884064 
	C129.089294,117.675171 129.270981,117.370163 129.715790,116.986679 
z"/>
<path fill="#786C56" opacity="1.000000" stroke="none" 
	d="
M126.717148,119.986725 
	C126.788757,120.199791 126.597595,120.492737 126.156479,120.883377 
	C126.089149,120.676247 126.271751,120.371429 126.717148,119.986725 
z"/>
<path fill="#786C56" opacity="1.000000" stroke="none" 
	d="
M706.013977,116.715492 
	C705.798279,116.789345 705.504578,116.599945 705.115723,116.159721 
	C705.325745,116.090019 705.630859,116.271133 706.013977,116.715492 
z"/>
<path fill="#786C56" opacity="1.000000" stroke="none" 
	d="
M711.013428,121.717529 
	C710.800720,121.788910 710.507690,121.597603 710.116821,121.156433 
	C710.323669,121.089340 710.628479,121.272095 711.013428,121.717529 
z"/>
<path fill="#786C56" opacity="1.000000" stroke="none" 
	d="
M705.014038,115.714828 
	C704.797485,115.789398 704.503601,115.600548 704.115417,115.160583 
	C704.326294,115.090111 704.631531,115.270760 705.014038,115.714828 
z"/>
<path fill="#786C56" opacity="1.000000" stroke="none" 
	d="
M130.715057,115.986626 
	C130.788773,116.202225 130.599167,116.495605 130.158829,116.884354 
	C130.089310,116.674614 130.270538,116.369507 130.715057,115.986626 
z"/>
<path fill="#786C56" opacity="1.000000" stroke="none" 
	d="
M710.013550,120.717300 
	C709.800476,120.788956 709.507385,120.597855 709.116699,120.156815 
	C709.323914,120.089432 709.628723,120.271988 710.013550,120.717300 
z"/>
<path fill="#786C56" opacity="1.000000" stroke="none" 
	d="
M125.717422,120.986732 
	C125.788773,121.199463 125.597420,121.492363 125.156235,121.883232 
	C125.089180,121.676437 125.271950,121.371674 125.717422,120.986732 
z"/>
<path fill="#786C56" opacity="1.000000" stroke="none" 
	d="
M721.013550,131.714447 
	C720.797058,131.788895 720.503418,131.599854 720.115356,131.159760 
	C720.325989,131.089462 720.631226,131.270218 721.013550,131.714447 
z"/>
<path fill="#786C56" opacity="1.000000" stroke="none" 
	d="
M115.714828,130.985962 
	C115.789375,131.202530 115.600510,131.496368 115.160553,131.884521 
	C115.090111,131.673645 115.270760,131.368439 115.714828,130.985962 
z"/>
<path fill="#786C56" opacity="1.000000" stroke="none" 
	d="
M720.013367,130.715088 
	C719.797729,130.788803 719.504395,130.599182 719.115662,130.158829 
	C719.325378,130.089310 719.630493,130.270523 720.013367,130.715088 
z"/>
<path fill="#FEFEFD" opacity="1.000000" stroke="none" 
	d="
M429.837219,120.114471 
	C441.518890,126.724045 453.218292,133.302460 464.879120,139.948624 
	C514.567627,168.268967 564.255554,196.590363 613.921082,224.950958 
	C636.543518,237.869110 659.076233,250.945160 681.750977,263.770386 
	C684.844116,265.519897 685.802063,267.603210 685.800171,270.942139 
	C685.745361,369.603149 685.735474,468.264221 685.841614,566.925171 
	C685.845520,570.570374 684.152466,572.250366 681.391418,573.823975 
	C654.797241,588.981018 628.239929,604.202942 601.660522,619.386047 
	C569.846619,637.559387 538.016479,655.704285 506.202698,673.877869 
	C477.801056,690.102295 449.428162,706.377380 420.959473,722.483215 
	C419.805298,723.136292 417.520111,722.785461 416.233063,722.062988 
	C383.406067,703.635071 350.641083,685.096741 317.867218,666.574158 
	C274.402679,642.009644 230.932404,617.455383 187.481628,592.866577 
	C176.788605,586.815491 166.223541,580.535339 155.466187,574.602478 
	C152.234329,572.820129 150.966156,570.422424 151.013504,566.984863 
	C151.027283,565.985168 151.013626,564.985046 151.013626,563.985107 
	C151.013474,467.990570 151.051895,371.996002 150.930649,276.001617 
	C150.922165,269.283691 152.642700,265.105225 159.118591,261.462250 
	C208.493027,233.687210 257.564972,205.374374 306.728180,177.223923 
	C340.581757,157.839630 374.430786,138.447327 408.911743,119.307434 
	C413.355133,119.700668 417.168610,119.845085 421.316742,119.994736 
	C422.097687,120.001595 422.543945,120.003220 423.420380,120.001816 
	C427.177582,119.509979 428.164551,121.017853 428.065125,124.241547 
	C427.871429,130.524200 428.039215,136.818024 428.039673,143.568207 
	C428.043427,229.628998 428.064850,315.228790 428.055359,401.308563 
	C428.037262,412.900696 428.050049,424.012848 428.043457,435.585480 
	C428.024078,522.149902 428.024078,608.253906 428.024078,695.428284 
	C503.529388,652.320618 578.264282,609.652771 653.656616,566.609558 
	C651.743347,565.313110 650.462952,564.334412 649.082520,563.526367 
	C611.110474,541.298584 573.129944,519.085327 535.147156,496.875885 
	C499.777588,476.194397 464.403870,455.520020 429.021606,434.384766 
	C429.010956,422.958710 429.010712,411.990356 429.294708,400.828735 
	C441.295807,393.753143 453.012451,386.870575 464.729462,379.988495 
	C523.660645,345.374756 582.594910,310.766174 641.515320,276.134033 
	C644.746338,274.234955 647.862427,272.140198 651.838135,269.626892 
	C577.271484,227.018951 503.650421,184.951355 429.835510,142.519150 
	C429.706848,134.807846 429.772034,127.461159 429.837219,120.114471 
M509.559601,375.129059 
	C485.839417,389.052643 462.119263,402.976257 438.237396,416.994751 
	C442.960693,422.409607 662.903503,550.578674 666.319824,550.364868 
	C666.319824,461.659576 666.319824,372.960541 666.319824,283.142914 
	C663.518494,284.769592 661.493103,285.937347 659.475647,287.118469 
	C641.893738,297.411469 624.291382,307.669739 606.739563,318.013885 
	C593.858826,325.605164 581.072876,333.357452 568.194702,340.953156 
	C548.912720,352.325806 529.586853,363.623993 509.559601,375.129059 
M170.983292,514.500000 
	C170.983292,526.725281 170.983292,538.950500 170.983292,552.178955 
	C247.607391,507.172729 323.339355,462.690521 399.783356,417.790039 
	C322.976807,372.790771 247.338654,328.476013 170.983276,283.741058 
	C170.983276,360.992798 170.983276,437.246399 170.983292,514.500000 
M233.341095,537.875916 
	C216.831970,547.524841 200.322861,557.173767 183.135178,567.219238 
	C258.839752,610.100586 333.613495,652.454651 408.578003,694.916748 
	C408.578003,607.919067 408.578003,521.640625 408.578003,434.799896 
	C349.995575,469.240692 291.973053,503.352325 233.341095,537.875916 
M241.247528,237.766174 
	C222.872498,248.228699 204.497482,258.691223 185.092545,269.740173 
	C260.069824,313.673492 334.075134,357.037262 408.655731,400.738129 
	C408.655731,314.063171 408.655731,228.429245 408.655731,141.823853 
	C352.606659,173.927765 297.234436,205.643982 241.247528,237.766174 
z"/>
<path fill="#F6F4F2" opacity="1.000000" stroke="none" 
	d="
M422.990234,120.004845 
	C422.543945,120.003220 422.097687,120.001595 421.026794,119.700211 
	C416.711456,119.177101 413.020691,118.953758 409.329926,118.730415 
	C417.552704,112.496941 418.411896,112.466484 426.089966,118.495148 
	C424.925812,119.242218 423.958008,119.623528 422.990234,120.004845 
z"/>
<path fill="#ECE7E7" opacity="1.000000" stroke="none" 
	d="
M423.420380,120.001816 
	C423.958008,119.623528 424.925812,119.242218 426.306152,118.771614 
	C427.627838,119.001556 428.536987,119.320793 429.641663,119.877243 
	C429.772034,127.461159 429.706848,134.807846 429.508362,142.573578 
	C428.935822,143.030807 428.496582,143.069016 428.057312,143.107208 
	C428.039215,136.818024 427.871429,130.524200 428.065125,124.241547 
	C428.164551,121.017853 427.177582,119.509979 423.420380,120.001816 
z"/>
<path fill="#ECE7E7" opacity="1.000000" stroke="none" 
	d="
M409.213654,118.731262 
	C413.020691,118.953758 416.711456,119.177101 420.692139,119.694977 
	C417.168610,119.845085 413.355133,119.700668 409.263428,119.246033 
	C408.985199,118.935822 409.097382,118.732117 409.213654,118.731262 
z"/>
<path fill="#67797C" opacity="1.000000" stroke="none" 
	d="
M509.919617,375.041473 
	C529.586853,363.623993 548.912720,352.325806 568.194702,340.953156 
	C581.072876,333.357452 593.858826,325.605164 606.739563,318.013885 
	C624.291382,307.669739 641.893738,297.411469 659.475647,287.118469 
	C661.493103,285.937347 663.518494,284.769592 666.319824,283.142914 
	C666.319824,372.960541 666.319824,461.659576 666.319824,550.364868 
	C662.903503,550.578674 442.960693,422.409607 438.237396,416.994751 
	C462.119263,402.976257 485.839417,389.052643 509.919617,375.041473 
z"/>
<path fill="#66787C" opacity="1.000000" stroke="none" 
	d="
M170.983276,514.000000 
	C170.983276,437.246399 170.983276,360.992798 170.983276,283.741058 
	C247.338654,328.476013 322.976807,372.790771 399.783356,417.790039 
	C323.339355,462.690521 247.607391,507.172729 170.983292,552.178955 
	C170.983292,538.950500 170.983292,526.725281 170.983276,514.000000 
z"/>
<path fill="#67787C" opacity="1.000000" stroke="none" 
	d="
M429.031982,434.842529 
	C464.403870,455.520020 499.777588,476.194397 535.147156,496.875885 
	C573.129944,519.085327 611.110474,541.298584 649.082520,563.526367 
	C650.462952,564.334412 651.743347,565.313110 653.656616,566.609558 
	C578.264282,609.652771 503.529388,652.320618 428.024078,695.428284 
	C428.024078,608.253906 428.024078,522.149902 428.287842,435.522156 
	C428.711761,434.946411 428.871857,434.894470 429.031982,434.842529 
z"/>
<path fill="#66787C" opacity="1.000000" stroke="none" 
	d="
M233.645813,537.669922 
	C291.973053,503.352325 349.995575,469.240692 408.578003,434.799896 
	C408.578003,521.640625 408.578003,607.919067 408.578003,694.916748 
	C333.613495,652.454651 258.839752,610.100586 183.135178,567.219238 
	C200.322861,557.173767 216.831970,547.524841 233.645813,537.669922 
z"/>
<path fill="#67787C" opacity="1.000000" stroke="none" 
	d="
M428.039673,143.568207 
	C428.496582,143.069016 428.935822,143.030807 429.702240,142.938187 
	C503.650421,184.951355 577.271484,227.018951 651.838135,269.626892 
	C647.862427,272.140198 644.746338,274.234955 641.515320,276.134033 
	C582.594910,310.766174 523.660645,345.374756 464.729462,379.988495 
	C453.012451,386.870575 441.295807,393.753143 429.065247,400.772644 
	C428.551544,400.909790 428.086243,400.828613 428.086243,400.828613 
	C428.064850,315.228790 428.043427,229.628998 428.039673,143.568207 
z"/>
<path fill="#66787C" opacity="1.000000" stroke="none" 
	d="
M241.554886,237.563187 
	C297.234436,205.643982 352.606659,173.927765 408.655731,141.823853 
	C408.655731,228.429245 408.655731,314.063171 408.655731,400.738129 
	C334.075134,357.037262 260.069824,313.673492 185.092545,269.740173 
	C204.497482,258.691223 222.872498,248.228699 241.554886,237.563187 
z"/>
<path fill="#EFEAEB" opacity="1.000000" stroke="none" 
	d="
M428.055359,401.308563 
	C428.086243,400.828613 428.551544,400.909790 428.781006,400.965912 
	C429.010712,411.990356 429.010956,422.958710 429.021606,434.384766 
	C428.871857,434.894470 428.711761,434.946411 428.307251,435.061707 
	C428.050049,424.012848 428.037262,412.900696 428.055359,401.308563 
z"/>
</svg>