<svg version="1.1" id="Layer_1" xmlns="http://www.w3.org/2000/svg" xmlns:xlink="http://www.w3.org/1999/xlink" x="0px" y="0px"
	 width="100%" viewBox="0 0 834 834" enable-background="new 0 0 834 834" xml:space="preserve">
<path fill="#FFFFFF" opacity="1.000000" stroke="none" 
	d="
M471.000000,835.000000 
	C314.000061,835.000000 157.500092,835.000000 1.000105,835.000000 
	C1.000070,557.000122 1.000070,279.000244 1.000035,1.000291 
	C278.999786,1.000194 556.999573,1.000194 834.999512,1.000097 
	C834.999695,278.999695 834.999695,556.999390 834.999878,834.999512 
	C713.833313,835.000000 592.666687,835.000000 471.000000,835.000000 
M715.940613,126.449791 
	C715.634888,126.261543 715.329163,126.073296 715.020081,125.980499 
	C715.020081,125.980499 715.115417,125.975044 714.940369,125.450111 
	C714.634705,125.261642 714.328979,125.073181 714.020081,124.980553 
	C714.020081,124.980553 714.115784,124.975082 713.940186,124.450348 
	C713.634521,124.261765 713.328918,124.073174 713.020020,123.980682 
	C713.020020,123.980682 713.116028,123.975082 712.940186,123.450417 
	C712.634521,123.261818 712.328918,123.073219 712.020142,122.980713 
	C712.020142,122.980713 712.116089,122.975037 711.940247,122.450363 
	C711.634521,122.261871 711.328857,122.073380 711.020142,121.980804 
	C711.020142,121.980804 711.115967,121.974991 710.940430,121.450226 
	C710.634705,121.261925 710.328979,121.073616 710.020325,120.980736 
	C710.020325,120.980736 710.115601,120.974876 709.940674,120.449936 
	C709.634888,120.261932 709.329102,120.073936 709.020569,119.980766 
	C709.020569,119.980766 709.115234,119.974693 708.941162,119.449562 
	C708.635254,119.261955 708.329407,119.074348 708.020630,118.980698 
	C708.020630,118.980698 708.114441,118.974586 707.941528,118.449173 
	C707.635559,118.262077 707.329529,118.074989 707.020813,117.980751 
	C707.020813,117.980751 707.113525,117.974388 706.942078,117.448608 
	C706.635986,117.262138 706.329834,117.075661 706.020996,116.980644 
	C706.020996,116.980644 706.112305,116.974228 705.942688,116.448044 
	C705.636475,116.262268 705.330261,116.076500 705.021362,115.980484 
	C705.021362,115.980484 705.110962,115.973953 704.943176,115.447342 
	C704.636902,115.262215 704.330627,115.077095 704.029114,114.978783 
	C704.029114,114.978783 704.114624,114.963020 703.939026,114.444832 
	C703.621338,114.337257 703.303589,114.229675 702.379761,113.820686 
	C691.849976,104.638084 681.859924,94.729912 670.683594,86.416603 
	C643.355835,66.089325 614.331299,48.517731 582.815796,35.244846 
	C552.967712,22.674200 522.228943,13.476562 490.299866,7.716003 
	C468.845581,3.845274 447.278931,2.898405 425.656769,2.115851 
	C415.755707,1.757509 405.795898,2.451943 395.885986,3.052707 
	C383.276245,3.817141 370.626923,4.481331 358.111725,6.095891 
	C345.891449,7.672400 333.631500,9.673730 321.725281,12.778295 
	C304.512207,17.266642 287.354584,22.227196 270.619934,28.231178 
	C244.400757,37.637970 219.682907,50.340668 196.136490,65.266472 
	C173.565155,79.574203 152.222961,95.467621 132.469986,114.078064 
	C132.275284,114.373482 132.080597,114.668900 131.971725,114.977745 
	C131.971725,114.977745 131.974075,114.890900 131.447021,115.057220 
	C131.261383,115.363335 131.075745,115.669449 130.979782,115.979279 
	C130.979782,115.979279 130.974380,115.889709 130.447708,116.057785 
	C130.261322,116.363792 130.074951,116.669807 129.979919,116.979507 
	C129.979919,116.979507 129.974594,116.888229 129.448395,117.058311 
	C129.261368,117.364220 129.074356,117.670128 128.980103,117.979660 
	C128.980103,117.979660 128.974762,117.886963 128.448959,118.058746 
	C128.261429,118.364578 128.073883,118.670403 127.980255,118.979752 
	C127.980255,118.979752 127.974861,118.885948 127.449425,119.059105 
	C127.261482,119.364868 127.073547,119.670631 126.980392,119.979851 
	C126.980392,119.979851 126.974976,119.885162 126.449814,120.059418 
	C126.261559,120.365128 126.073296,120.670837 125.980492,120.979912 
	C125.980492,120.979912 125.975044,120.884560 125.450127,121.059647 
	C125.261658,121.365311 125.073181,121.670982 124.980583,121.979927 
	C124.980583,121.979927 124.975060,121.884155 124.450310,122.059792 
	C124.261734,122.365433 124.073151,122.671074 123.980667,122.979912 
	C123.980667,122.979912 123.975075,122.883942 123.450394,123.059814 
	C123.261810,123.365463 123.073219,123.671112 122.980713,123.979843 
	C122.980713,123.979843 122.975029,123.883881 122.450356,124.059746 
	C122.261856,124.365425 122.073364,124.671104 121.980759,124.979790 
	C121.980759,124.979790 121.974968,124.884026 121.450195,125.059547 
	C121.261894,125.365273 121.073593,125.670998 120.980743,125.979652 
	C120.980743,125.979652 120.974854,125.884338 120.449928,126.059273 
	C120.261932,126.365067 120.073944,126.670853 119.980736,126.979492 
	C119.980736,126.979492 119.974724,126.884857 119.449593,127.058914 
	C119.261986,127.364784 119.074371,127.670654 118.980659,127.979340 
	C118.980659,127.979340 118.974579,127.885590 118.449165,128.058487 
	C118.262070,128.364456 118.074974,128.670425 117.980637,128.979080 
	C117.980637,128.979080 117.974396,128.886490 117.448631,129.057953 
	C117.262146,129.364044 117.075661,129.670135 116.980568,129.978897 
	C116.980568,129.978897 116.974213,129.887695 116.448013,130.057358 
	C116.262260,130.363571 116.076500,130.669785 115.980461,130.978668 
	C115.980461,130.978668 115.973984,130.889145 115.447350,131.056824 
	C115.262215,131.363113 115.077080,131.669388 114.978760,131.970825 
	C114.978760,131.970825 114.963020,131.885315 114.444748,132.060974 
	C114.337196,132.378738 114.229645,132.696487 113.820618,133.620316 
	C104.638275,144.149673 94.636208,154.085342 86.474876,165.354156 
	C75.535011,180.459442 65.835190,196.481140 55.938259,212.318909 
	C43.052700,232.939285 33.556404,255.213882 25.466284,278.052551 
	C17.664762,300.076447 11.125567,322.495331 7.946843,345.732208 
	C5.823611,361.253296 2.718243,376.775970 2.273800,392.361267 
	C1.459715,420.908813 0.726344,449.574493 5.953375,477.915802 
	C8.191126,490.049011 9.677473,502.375519 12.782316,514.281128 
	C17.271088,531.493530 22.229832,548.651123 28.234308,565.384888 
	C37.641815,591.602600 50.342583,616.320251 65.268272,639.865662 
	C79.575829,662.436096 95.468697,683.777466 114.078117,703.530090 
	C114.373512,703.724792 114.668907,703.919495 114.977814,704.028320 
	C114.977814,704.028320 114.890915,704.025879 115.057182,704.553040 
	C115.363297,704.738647 115.669411,704.924316 115.979347,705.020203 
	C115.979347,705.020203 115.889709,705.025574 116.057816,705.552246 
	C116.363808,705.738647 116.669807,705.925049 116.979568,706.020081 
	C116.979568,706.020081 116.888237,706.025330 117.058266,706.551575 
	C117.364197,706.738586 117.670128,706.925598 117.979607,707.019897 
	C117.979607,707.019897 117.886978,707.025269 118.058754,707.551086 
	C118.364563,707.738647 118.670380,707.926208 118.979774,708.019775 
	C118.979774,708.019775 118.885925,708.025208 119.059105,708.550598 
	C119.364868,708.738525 119.670631,708.926453 119.979813,709.019531 
	C119.979813,709.019531 119.885147,709.025085 120.059433,709.550171 
	C120.365135,709.738464 120.670837,709.926697 120.979912,710.019409 
	C120.979912,710.019409 120.884552,710.025024 121.059685,710.549927 
	C121.365341,710.738403 121.670998,710.926819 121.979927,711.019409 
	C121.979927,711.019409 121.884155,711.024963 122.059792,711.549744 
	C122.365417,711.738403 122.671051,711.927002 122.980034,712.019409 
	C122.980034,712.019409 122.883942,712.024963 123.059814,712.549622 
	C123.365448,712.738220 123.671082,712.926880 123.979973,713.019226 
	C123.979973,713.019226 123.883888,713.024963 124.059738,713.549683 
	C124.365410,713.738159 124.671089,713.926697 124.979782,714.019287 
	C124.979782,714.019287 124.884026,714.025085 125.059532,714.549866 
	C125.365265,714.738098 125.670990,714.926392 125.979630,715.019165 
	C125.979630,715.019165 125.884338,715.025146 126.059212,715.550110 
	C126.365013,715.738098 126.670815,715.926086 126.979454,716.019226 
	C126.979454,716.019226 126.884850,716.025269 127.058884,716.550415 
	C127.364769,716.738037 127.670647,716.925659 127.979317,717.019348 
	C127.979317,717.019348 127.885574,717.025452 128.058472,717.550903 
	C128.364426,717.737976 128.670395,717.925110 128.979111,718.019409 
	C128.979111,718.019409 128.886505,718.025635 129.057953,718.551453 
	C129.364044,718.737915 129.670120,718.924377 129.978912,719.019348 
	C129.978912,719.019348 129.887695,719.025757 130.057343,719.551941 
	C130.363556,719.737732 130.669785,719.923584 130.978714,720.019592 
	C130.978714,720.019592 130.889145,720.026001 131.056839,720.552673 
	C131.363129,720.737732 131.669418,720.922852 131.970749,721.021240 
	C131.970749,721.021240 131.885315,721.036987 132.060989,721.555237 
	C132.378723,721.662781 132.696472,721.770325 133.620300,722.179382 
	C144.149673,731.361694 154.085327,741.363831 165.354172,749.525208 
	C180.459442,760.465027 196.481171,770.164856 212.318939,780.061768 
	C232.939346,792.947205 255.213898,802.443604 278.052551,810.533752 
	C300.076508,818.335266 322.495453,824.874451 345.732361,828.053162 
	C361.253510,830.176392 376.776154,833.282471 392.361450,833.726379 
	C420.908966,834.539490 449.574707,835.273132 477.915955,830.046509 
	C490.049225,827.809021 502.375641,826.322449 514.281250,823.217590 
	C531.493652,818.728882 548.651184,813.770203 565.384949,807.765686 
	C591.602600,798.358093 616.320312,785.657410 639.865784,770.731750 
	C662.436157,756.424133 683.777527,740.531250 703.530090,721.921875 
	C703.724792,721.626465 703.919495,721.331116 704.028320,721.022217 
	C704.028320,721.022217 704.025879,721.109131 704.552917,720.942810 
	C704.738586,720.636719 704.924255,720.330566 705.020325,720.020691 
	C705.020325,720.020691 705.025513,720.110229 705.552185,719.942200 
	C705.738647,719.636230 705.925110,719.330261 706.020264,719.020325 
	C706.020264,719.020325 706.025330,719.111633 706.551575,718.941711 
	C706.738586,718.635803 706.925598,718.329834 707.019836,718.020508 
	C707.019836,718.020508 707.025330,718.113159 707.551025,717.941284 
	C707.738647,717.635437 707.926208,717.329651 708.019897,717.020264 
	C708.019897,717.020264 708.025208,717.114014 708.550659,716.940857 
	C708.738586,716.635071 708.926453,716.329346 709.019409,716.020325 
	C709.019409,716.020325 709.025146,716.115051 709.550232,715.940613 
	C709.738464,715.634888 709.926697,715.329163 710.019531,715.020142 
	C710.019531,715.020142 710.024963,715.115417 710.549927,714.940430 
	C710.738403,714.634705 710.926880,714.329041 711.019409,714.020020 
	C711.019409,714.020020 711.024963,714.115784 711.549744,713.940186 
	C711.738403,713.634583 711.927002,713.328979 712.019531,713.020081 
	C712.019531,713.020081 712.024963,713.116028 712.549622,712.940125 
	C712.738220,712.634521 712.926880,712.328857 713.019287,712.020081 
	C713.019287,712.020081 713.024963,712.116089 713.549622,711.940308 
	C713.738098,711.634644 713.926636,711.328918 714.019226,711.020325 
	C714.019226,711.020325 714.025085,711.116028 714.549805,710.940430 
	C714.738037,710.634705 714.926331,710.328979 715.019226,710.020386 
	C715.019226,710.020386 715.025146,710.115601 715.550110,709.940674 
	C715.738098,709.634888 715.926086,709.329102 716.019287,709.020508 
	C716.019287,709.020508 716.025269,709.115173 716.550354,708.941101 
	C716.738037,708.635254 716.925659,708.329407 717.019348,708.020691 
	C717.019348,708.020691 717.025452,708.114441 717.550903,707.941467 
	C717.738037,707.635559 717.925110,707.329590 718.019409,707.020935 
	C718.019409,707.020935 718.025635,707.113525 718.551392,706.942078 
	C718.737854,706.635986 718.924316,706.329895 719.019348,706.021118 
	C719.019348,706.021118 719.025757,706.112305 719.551941,705.942688 
	C719.737793,705.636475 719.923645,705.330322 720.019653,705.021362 
	C720.019653,705.021362 720.026062,705.110962 720.552673,704.943176 
	C720.737732,704.636902 720.922852,704.330566 721.021240,704.029236 
	C721.021240,704.029236 721.036987,704.114624 721.555176,703.939026 
	C721.662781,703.621338 721.770325,703.303650 722.179321,702.379883 
	C731.361633,691.850586 741.363647,681.914917 749.524963,670.646179 
	C760.464905,655.540894 770.164734,639.519165 780.061646,623.681396 
	C792.947205,603.060974 802.443420,580.786377 810.533630,557.947693 
	C818.335205,535.923767 824.874329,513.504761 828.053223,490.267914 
	C830.176575,474.746826 833.275940,459.224518 833.727661,443.638702 
	C834.555115,415.090912 835.217285,386.427612 830.043030,358.085724 
	C827.827148,345.948456 826.322754,333.625214 823.218018,321.719543 
	C818.729248,304.507080 813.770386,287.349426 807.765991,270.615540 
	C798.358521,244.397751 785.657654,219.680038 770.731934,196.134567 
	C756.424255,173.564102 740.531555,152.222534 721.921997,132.469986 
	C721.626526,132.275299 721.331055,132.080597 721.022278,131.971725 
	C721.022278,131.971725 721.109131,131.974091 720.942810,131.447052 
	C720.636658,131.261414 720.330566,131.075775 720.020691,130.979736 
	C720.020691,130.979736 720.110229,130.974396 719.942200,130.447708 
	C719.636230,130.261322 719.330200,130.074936 719.020386,129.979858 
	C719.020386,129.979858 719.111633,129.974670 718.941650,129.448425 
	C718.635742,129.261398 718.329834,129.074371 718.020325,128.980240 
	C718.020325,128.980240 718.113159,128.974731 717.941284,128.448944 
	C717.635437,128.261429 717.329590,128.073898 717.020142,127.980286 
	C717.020142,127.980286 717.114014,127.974869 716.940918,127.449432 
	C716.635132,127.261490 716.329346,127.073547 716.020203,126.980484 
	C716.020203,126.980484 716.114990,126.974937 715.940613,126.449791 
z"/>
<path fill="#8D8E3D" opacity="1.000000" stroke="none" 
	d="
M133.017044,114.122208 
	C152.222961,95.467621 173.565155,79.574203 196.136490,65.266472 
	C219.682907,50.340668 244.400757,37.637970 270.619934,28.231178 
	C287.354584,22.227196 304.512207,17.266642 321.725281,12.778295 
	C333.631500,9.673730 345.891449,7.672400 358.111725,6.095891 
	C370.626923,4.481331 383.276245,3.817141 395.885986,3.052707 
	C405.795898,2.451943 415.755707,1.757509 425.656769,2.115851 
	C447.278931,2.898405 468.845581,3.845274 490.299866,7.716003 
	C522.228943,13.476562 552.967712,22.674200 582.815796,35.244846 
	C614.331299,48.517731 643.355835,66.089325 670.683594,86.416603 
	C681.859924,94.729912 691.849976,104.638084 702.807495,114.184822 
	C703.478943,114.791786 703.772095,114.929810 704.114624,114.963020 
	C704.114624,114.963020 704.029114,114.978783 704.123047,115.189560 
	C704.515015,115.591545 704.812988,115.782753 705.110962,115.973953 
	C705.110962,115.973953 705.021362,115.980484 705.119873,116.189644 
	C705.516418,116.590614 705.814331,116.782417 706.112305,116.974228 
	C706.112305,116.974228 706.020996,116.980644 706.120483,117.188805 
	C706.517761,117.589439 706.815674,117.781914 707.113525,117.974388 
	C707.113525,117.974388 707.020813,117.980751 707.120850,118.188171 
	C707.518799,118.588600 707.816589,118.781601 708.114441,118.974594 
	C708.114441,118.974586 708.020630,118.980698 708.121216,119.187531 
	C708.519653,119.587814 708.817444,119.781258 709.115234,119.974701 
	C709.115234,119.974693 709.020569,119.980766 709.121582,120.187057 
	C709.520264,120.587181 709.817932,120.781021 710.115601,120.974869 
	C710.115601,120.974876 710.020325,120.980736 710.121765,121.186646 
	C710.520813,121.586700 710.818359,121.780846 711.115967,121.974991 
	C711.115967,121.974991 711.020142,121.980804 711.121765,122.186447 
	C711.520935,122.586403 711.818542,122.780716 712.116089,122.975037 
	C712.116089,122.975037 712.020142,122.980713 712.121826,123.186279 
	C712.521057,123.586258 712.818542,123.780670 713.116028,123.975082 
	C713.116028,123.975082 713.020020,123.980682 713.121704,124.186249 
	C713.520874,124.586243 713.818359,124.780655 714.115784,124.975082 
	C714.115784,124.975082 714.020081,124.980553 714.121582,125.186325 
	C714.520508,125.586426 714.817993,125.780739 715.115417,125.975052 
	C715.115417,125.975044 715.020081,125.980499 715.121338,126.186577 
	C715.520020,126.586754 715.817505,126.780853 716.114990,126.974945 
	C716.114990,126.974937 716.020203,126.980484 716.120972,127.186935 
	C716.519104,127.587227 716.816589,127.781052 717.114014,127.974869 
	C717.114014,127.974869 717.020142,127.980286 717.120483,128.187332 
	C717.518250,128.587830 717.815674,128.781281 718.113159,128.974731 
	C718.113159,128.974731 718.020325,128.980240 718.119873,129.187881 
	C718.516907,129.588562 718.814270,129.781601 719.111633,129.974670 
	C719.111633,129.974670 719.020386,129.979858 719.119263,130.188431 
	C719.515564,130.589462 719.812866,130.781921 720.110229,130.974396 
	C720.110229,130.974396 720.020691,130.979736 720.118774,131.189270 
	C720.514282,131.590576 720.811707,131.782333 721.109131,131.974091 
	C721.109131,131.974091 721.022278,131.971725 721.093750,132.167725 
	C721.309143,132.683578 721.546692,132.901352 721.877747,133.017059 
	C740.531555,152.222534 756.424255,173.564102 770.731934,196.134567 
	C785.657654,219.680038 798.358521,244.397751 807.765991,270.615540 
	C813.770386,287.349426 818.729248,304.507080 823.218018,321.719543 
	C826.322754,333.625214 827.827148,345.948456 830.043030,358.085724 
	C835.217285,386.427612 834.555115,415.090912 833.727661,443.638702 
	C833.275940,459.224518 830.176575,474.746826 828.053223,490.267914 
	C824.874329,513.504761 818.335205,535.923767 810.533630,557.947693 
	C802.443420,580.786377 792.947205,603.060974 780.061646,623.681396 
	C770.164734,639.519165 760.464905,655.540894 749.524963,670.646179 
	C741.363647,681.914917 731.361633,691.850586 721.815186,702.807556 
	C721.208130,703.478943 721.070129,703.772095 721.036987,704.114624 
	C721.036987,704.114624 721.021240,704.029236 720.810425,704.123169 
	C720.408447,704.515076 720.217285,704.812988 720.026062,705.110962 
	C720.026062,705.110962 720.019653,705.021362 719.810547,705.119873 
	C719.409485,705.516357 719.217590,705.814331 719.025757,706.112305 
	C719.025757,706.112305 719.019348,706.021118 718.811096,706.120483 
	C718.410461,706.517700 718.218018,706.815613 718.025635,707.113525 
	C718.025635,707.113525 718.019409,707.020935 717.811951,707.120911 
	C717.411499,707.518738 717.218506,707.816589 717.025452,708.114441 
	C717.025452,708.114441 717.019348,708.020691 716.812500,708.121216 
	C716.412170,708.519531 716.218750,708.817383 716.025269,709.115173 
	C716.025269,709.115173 716.019287,709.020508 715.812927,709.121460 
	C715.412781,709.520203 715.218933,709.817871 715.025146,710.115601 
	C715.025146,710.115601 715.019226,710.020386 714.813354,710.121826 
	C714.413330,710.520874 714.219238,710.818420 714.025085,711.116028 
	C714.025085,711.116028 714.019226,711.020325 713.813538,711.121826 
	C713.413574,711.520935 713.219238,711.818542 713.024963,712.116089 
	C713.024963,712.116089 713.019287,712.020081 712.813721,712.121765 
	C712.413818,712.520996 712.219421,712.818542 712.025024,713.116028 
	C712.024963,713.116028 712.019531,713.020081 711.813843,713.121704 
	C711.413757,713.520813 711.219360,713.818298 711.024963,714.115784 
	C711.024963,714.115784 711.019409,714.020020 710.813599,714.121521 
	C710.413513,714.520508 710.219238,714.817932 710.024963,715.115417 
	C710.024963,715.115417 710.019531,715.020142 709.813354,715.121277 
	C709.413208,715.519958 709.219177,715.817505 709.025146,716.115051 
	C709.025146,716.115051 709.019409,716.020325 708.812988,716.120972 
	C708.412781,716.519043 708.218994,716.816528 708.025208,717.114014 
	C708.025208,717.114014 708.019897,717.020264 707.812805,717.120483 
	C707.412292,717.518188 707.218811,717.815674 707.025330,718.113159 
	C707.025330,718.113159 707.019836,718.020508 706.812134,718.119995 
	C706.411377,718.516846 706.218384,718.814270 706.025330,719.111633 
	C706.025330,719.111633 706.020264,719.020325 705.811646,719.119263 
	C705.410583,719.515564 705.218079,719.812866 705.025513,720.110229 
	C705.025513,720.110229 705.020325,720.020691 704.810791,720.118774 
	C704.409485,720.514282 704.217651,720.811707 704.025879,721.109131 
	C704.025879,721.109131 704.028320,721.022217 703.832336,721.093628 
	C703.316528,721.309082 703.098755,721.546631 702.983093,721.877747 
	C683.777527,740.531250 662.436157,756.424133 639.865784,770.731750 
	C616.320312,785.657410 591.602600,798.358093 565.384949,807.765686 
	C548.651184,813.770203 531.493652,818.728882 514.281250,823.217590 
	C502.375641,826.322449 490.049225,827.809021 477.915955,830.046509 
	C449.574707,835.273132 420.908966,834.539490 392.361450,833.726379 
	C376.776154,833.282471 361.253510,830.176392 345.732361,828.053162 
	C322.495453,824.874451 300.076508,818.335266 278.052551,810.533752 
	C255.213898,802.443604 232.939346,792.947205 212.318939,780.061768 
	C196.481171,770.164856 180.459442,760.465027 165.354172,749.525208 
	C154.085327,741.363831 144.149673,731.361694 133.192474,721.815247 
	C132.520996,721.208069 132.227875,721.070007 131.885315,721.036987 
	C131.885315,721.036987 131.970749,721.021240 131.876862,720.810425 
	C131.485031,720.408447 131.187088,720.217224 130.889130,720.026001 
	C130.889145,720.026001 130.978714,720.019592 130.880096,719.810486 
	C130.483551,719.409485 130.185623,719.217651 129.887695,719.025757 
	C129.887695,719.025757 129.978912,719.019348 129.879547,718.811157 
	C129.482285,718.410461 129.184402,718.218079 128.886505,718.025635 
	C128.886505,718.025635 128.979111,718.019409 128.879120,717.811951 
	C128.481277,717.411438 128.183441,717.218445 127.885582,717.025452 
	C127.885574,717.025452 127.979317,717.019348 127.878738,716.812500 
	C127.480385,716.412231 127.182610,716.218750 126.884842,716.025269 
	C126.884850,716.025269 126.979454,716.019226 126.878448,715.812866 
	C126.479752,715.412720 126.182053,715.218933 125.884338,715.025146 
	C125.884338,715.025146 125.979630,715.019165 125.878235,714.813232 
	C125.479240,714.413269 125.181633,714.219177 124.884018,714.025085 
	C124.884026,714.025085 124.979782,714.019287 124.878159,713.813599 
	C124.478981,713.413635 124.181435,713.219299 123.883888,713.024963 
	C123.883888,713.024963 123.979973,713.019226 123.878220,712.813721 
	C123.478958,712.413879 123.181442,712.219421 122.883942,712.024963 
	C122.883942,712.024963 122.980034,712.019409 122.878311,711.813843 
	C122.479111,711.413879 122.181633,711.219421 121.884155,711.024963 
	C121.884155,711.024963 121.979927,711.019409 121.878464,710.813599 
	C121.479523,710.413513 121.182053,710.219238 120.884567,710.025024 
	C120.884552,710.025024 120.979912,710.019409 120.878723,709.813354 
	C120.480072,709.413208 120.182610,709.219177 119.885147,709.025085 
	C119.885147,709.025085 119.979813,709.019531 119.879066,708.812988 
	C119.480858,708.412720 119.183395,708.218994 118.885925,708.025208 
	C118.885925,708.025208 118.979774,708.019775 118.879539,707.812744 
	C118.481857,707.412231 118.184410,707.218750 117.886971,707.025269 
	C117.886978,707.025269 117.979607,707.019897 117.880020,706.812134 
	C117.483040,706.411377 117.185631,706.218384 116.888229,706.025330 
	C116.888237,706.025330 116.979568,706.020081 116.880646,705.811523 
	C116.484390,705.410522 116.187050,705.218079 115.889709,705.025574 
	C115.889709,705.025574 115.979347,705.020203 115.881279,704.810730 
	C115.485786,704.409424 115.188354,704.217651 114.890915,704.025879 
	C114.890915,704.025879 114.977814,704.028320 114.906311,703.832336 
	C114.690865,703.316528 114.453331,703.098755 114.122200,702.983093 
	C95.468697,683.777466 79.575829,662.436096 65.268272,639.865662 
	C50.342583,616.320251 37.641815,591.602600 28.234308,565.384888 
	C22.229832,548.651123 17.271088,531.493530 12.782316,514.281128 
	C9.677473,502.375519 8.191126,490.049011 5.953375,477.915802 
	C0.726344,449.574493 1.459715,420.908813 2.273800,392.361267 
	C2.718243,376.775970 5.823611,361.253296 7.946843,345.732208 
	C11.125567,322.495331 17.664762,300.076447 25.466284,278.052551 
	C33.556404,255.213882 43.052700,232.939285 55.938259,212.318909 
	C65.835190,196.481140 75.535011,180.459442 86.474876,165.354156 
	C94.636208,154.085342 104.638275,144.149673 114.184761,133.192566 
	C114.791763,132.520996 114.929802,132.227829 114.963020,131.885315 
	C114.963020,131.885315 114.978760,131.970825 115.189537,131.876923 
	C115.591537,131.485046 115.782761,131.187103 115.973984,130.889145 
	C115.973984,130.889145 115.980461,130.978668 116.189606,130.880096 
	C116.590569,130.483582 116.782387,130.185638 116.974213,129.887695 
	C116.974213,129.887695 116.980568,129.978897 117.188812,129.879547 
	C117.589500,129.482285 117.781944,129.184387 117.974396,128.886490 
	C117.974396,128.886490 117.980637,128.979080 118.188110,128.879089 
	C118.588577,128.481247 118.781578,128.183411 118.974579,127.885590 
	C118.974579,127.885590 118.980659,127.979340 119.187500,127.878761 
	C119.587807,127.480408 119.781265,127.182632 119.974724,126.884857 
	C119.974724,126.884857 119.980736,126.979492 120.187057,126.878464 
	C120.587212,126.479744 120.781029,126.182037 120.974854,125.884338 
	C120.974854,125.884338 120.980743,125.979652 121.186676,125.878273 
	C121.586731,125.479271 121.780853,125.181648 121.974976,124.884033 
	C121.974968,124.884026 121.980759,124.979790 122.186432,124.878174 
	C122.586403,124.478996 122.780708,124.181435 122.975021,123.883881 
	C122.975029,123.883881 122.980713,123.979843 123.186295,123.878151 
	C123.586273,123.478951 123.780670,123.181442 123.975067,122.883942 
	C123.975075,122.883942 123.980667,122.979912 124.186272,122.878250 
	C124.586273,122.479111 124.780670,122.181633 124.975067,121.884155 
	C124.975060,121.884155 124.980583,121.979927 125.186363,121.878433 
	C125.586449,121.479485 125.780746,121.182022 125.975044,120.884560 
	C125.975044,120.884560 125.980492,120.979912 126.186569,120.878723 
	C126.586754,120.480072 126.780861,120.182617 126.974976,119.885162 
	C126.974976,119.885162 126.980392,119.979851 127.186905,119.879089 
	C127.587234,119.480865 127.781044,119.183403 127.974861,118.885948 
	C127.974861,118.885948 127.980255,118.979752 128.187317,118.879524 
	C128.587845,118.481857 128.781311,118.184410 128.974762,117.886963 
	C128.974762,117.886963 128.980103,117.979660 129.187820,117.880058 
	C129.588547,117.483047 129.781570,117.185638 129.974594,116.888229 
	C129.974594,116.888229 129.979919,116.979507 130.188446,116.880630 
	C130.589447,116.484413 130.781921,116.187065 130.974380,115.889709 
	C130.974380,115.889709 130.979782,115.979279 131.189270,115.881218 
	C131.590546,115.485741 131.782318,115.188324 131.974075,114.890900 
	C131.974075,114.890900 131.971725,114.977745 132.167725,114.906273 
	C132.683563,114.690842 132.901337,114.453308 133.017044,114.122208 
M160.770432,577.706116 
	C169.717285,582.809143 178.648605,587.939636 187.613419,593.010864 
	C261.480743,634.796692 335.439880,676.421997 409.096313,718.576233 
	C416.631317,722.888611 421.647705,722.530334 428.857391,718.338135 
	C472.358154,693.043823 516.190491,668.319946 559.892212,643.370911 
	C600.386536,620.252930 640.838257,597.060181 681.370544,574.009155 
	C684.634399,572.152954 685.938599,570.093506 685.933899,566.209900 
	C685.815125,468.219452 685.809143,370.228821 685.939209,272.238373 
	C685.945374,267.632965 684.466492,265.094910 680.473145,262.839447 
	C646.346069,243.563919 612.327576,224.095871 578.299377,204.645554 
	C526.254883,174.897232 474.221802,145.128891 422.213409,115.317551 
	C419.460785,113.739738 417.221893,113.710739 414.393951,115.363762 
	C397.901184,125.004280 381.307404,134.472519 364.724762,143.958740 
	C296.417847,183.034164 228.174484,222.222076 159.679749,260.965515 
	C152.810486,264.851044 150.848557,269.131439 150.865906,276.580139 
	C151.087250,371.570496 151.110291,466.561859 150.830231,561.551880 
	C150.807144,569.381897 152.558853,574.696655 160.770432,577.706116 
z"/>
<path fill="#8A6530" opacity="1.000000" stroke="none" 
	d="
M117.972855,707.288208 
	C118.184410,707.218750 118.481857,707.412231 118.877747,707.859741 
	C118.670380,707.926208 118.364563,707.738647 117.972855,707.288208 
z"/>
<path fill="#8A6530" opacity="1.000000" stroke="none" 
	d="
M713.287292,712.028198 
	C713.219238,711.818542 713.413574,711.520935 713.861450,711.123291 
	C713.926636,711.328918 713.738098,711.634644 713.287292,712.028198 
z"/>
<path fill="#8A6530" opacity="1.000000" stroke="none" 
	d="
M121.971970,711.287354 
	C122.181633,711.219421 122.479111,711.413879 122.876633,711.861938 
	C122.671051,711.927002 122.365417,711.738403 121.971970,711.287354 
z"/>
<path fill="#8A6530" opacity="1.000000" stroke="none" 
	d="
M714.287476,711.028198 
	C714.219238,710.818420 714.413330,710.520874 714.861023,710.123291 
	C714.926331,710.328979 714.738037,710.634705 714.287476,711.028198 
z"/>
<path fill="#8A6530" opacity="1.000000" stroke="none" 
	d="
M120.972137,710.287476 
	C121.182053,710.219238 121.479523,710.413513 121.876823,710.861572 
	C121.670998,710.926819 121.365341,710.738403 120.972137,710.287476 
z"/>
<path fill="#8A6530" opacity="1.000000" stroke="none" 
	d="
M715.287598,710.028137 
	C715.218933,709.817871 715.412781,709.520203 715.860352,709.122925 
	C715.926086,709.329102 715.738098,709.634888 715.287598,710.028137 
z"/>
<path fill="#8A6530" opacity="1.000000" stroke="none" 
	d="
M119.972290,709.287598 
	C120.182610,709.219177 120.480072,709.413208 120.877029,709.861084 
	C120.670837,709.926697 120.365135,709.738464 119.972290,709.287598 
z"/>
<path fill="#8A6530" opacity="1.000000" stroke="none" 
	d="
M716.287842,709.028137 
	C716.218750,708.817383 716.412170,708.519531 716.859436,708.122620 
	C716.925659,708.329407 716.738037,708.635254 716.287842,709.028137 
z"/>
<path fill="#8A6530" opacity="1.000000" stroke="none" 
	d="
M118.972519,708.287903 
	C119.183395,708.218994 119.480858,708.412720 119.877365,708.860413 
	C119.670631,708.926453 119.364868,708.738525 118.972519,708.287903 
z"/>
<path fill="#8A6530" opacity="1.000000" stroke="none" 
	d="
M717.288208,708.027954 
	C717.218506,707.816589 717.411499,707.518738 717.858337,707.122253 
	C717.925110,707.329590 717.738037,707.635559 717.288208,708.027954 
z"/>
<path fill="#8A6530" opacity="1.000000" stroke="none" 
	d="
M122.971878,712.287292 
	C123.181442,712.219421 123.478958,712.413879 123.876587,712.861877 
	C123.671082,712.926880 123.365448,712.738220 122.971878,712.287292 
z"/>
<path fill="#8A6530" opacity="1.000000" stroke="none" 
	d="
M718.288452,707.027832 
	C718.218018,706.815613 718.410461,706.517700 718.856812,706.121826 
	C718.924316,706.329895 718.737854,706.635986 718.288452,707.027832 
z"/>
<path fill="#8A6530" opacity="1.000000" stroke="none" 
	d="
M116.973244,706.288452 
	C117.185631,706.218384 117.483040,706.411377 117.878250,706.858521 
	C117.670128,706.925598 117.364197,706.738586 116.973244,706.288452 
z"/>
<path fill="#8A6530" opacity="1.000000" stroke="none" 
	d="
M719.288818,706.027466 
	C719.217590,705.814331 719.409485,705.516357 719.855408,705.121277 
	C719.923645,705.330322 719.737793,705.636475 719.288818,706.027466 
z"/>
<path fill="#8A6530" opacity="1.000000" stroke="none" 
	d="
M115.973763,705.288940 
	C116.187050,705.218079 116.484390,705.410522 116.878769,705.857300 
	C116.669807,705.925049 116.363808,705.738647 115.973763,705.288940 
z"/>
<path fill="#8A6530" opacity="1.000000" stroke="none" 
	d="
M720.289368,705.027100 
	C720.217285,704.812988 720.408447,704.515076 720.853760,704.120728 
	C720.922852,704.330566 720.737732,704.636902 720.289368,705.027100 
z"/>
<path fill="#8A6530" opacity="1.000000" stroke="none" 
	d="
M114.974052,704.289429 
	C115.188354,704.217651 115.485786,704.409424 115.879372,704.855591 
	C115.669411,704.924316 115.363297,704.738647 114.974052,704.289429 
z"/>
<path fill="#8A6530" opacity="1.000000" stroke="none" 
	d="
M721.296082,704.026855 
	C721.070129,703.772095 721.208130,703.478943 721.664429,703.110596 
	C721.770325,703.303650 721.662781,703.621338 721.296082,704.026855 
z"/>
<path fill="#8A6530" opacity="1.000000" stroke="none" 
	d="
M127.972031,717.288208 
	C128.183441,717.218445 128.481277,717.411438 128.877747,717.858398 
	C128.670395,717.925110 128.364426,717.737976 127.972031,717.288208 
z"/>
<path fill="#8A6530" opacity="1.000000" stroke="none" 
	d="
M703.256592,721.899780 
	C703.098755,721.546631 703.316528,721.309082 703.875244,721.100403 
	C703.919495,721.331116 703.724792,721.626465 703.256592,721.899780 
z"/>
<path fill="#8A6530" opacity="1.000000" stroke="none" 
	d="
M131.973145,721.296143 
	C132.227875,721.070007 132.520996,721.208069 132.889435,721.664490 
	C132.696472,721.770325 132.378723,721.662781 131.973145,721.296143 
z"/>
<path fill="#8A6530" opacity="1.000000" stroke="none" 
	d="
M704.289429,721.026001 
	C704.217651,720.811707 704.409485,720.514282 704.855591,720.120667 
	C704.924255,720.330566 704.738586,720.636719 704.289429,721.026001 
z"/>
<path fill="#8A6530" opacity="1.000000" stroke="none" 
	d="
M130.972992,720.289307 
	C131.187088,720.217224 131.485031,720.408447 131.879333,720.853760 
	C131.669418,720.922852 131.363129,720.737732 130.972992,720.289307 
z"/>
<path fill="#8A6530" opacity="1.000000" stroke="none" 
	d="
M705.288818,720.026245 
	C705.218079,719.812866 705.410583,719.515564 705.857300,719.121216 
	C705.925110,719.330261 705.738647,719.636230 705.288818,720.026245 
z"/>
<path fill="#8A6530" opacity="1.000000" stroke="none" 
	d="
M129.972519,719.288818 
	C130.185623,719.217651 130.483551,719.409485 130.878754,719.855347 
	C130.669785,719.923584 130.363556,719.737732 129.972519,719.288818 
z"/>
<path fill="#8A6530" opacity="1.000000" stroke="none" 
	d="
M706.288452,719.026672 
	C706.218384,718.814270 706.411377,718.516846 706.858521,718.121704 
	C706.925598,718.329834 706.738586,718.635803 706.288452,719.026672 
z"/>
<path fill="#8A6530" opacity="1.000000" stroke="none" 
	d="
M128.972229,718.288574 
	C129.184402,718.218079 129.482285,718.410461 129.878189,718.856873 
	C129.670120,718.924377 129.364044,718.737915 128.972229,718.288574 
z"/>
<path fill="#8A6530" opacity="1.000000" stroke="none" 
	d="
M707.288208,718.027222 
	C707.218811,717.815674 707.412292,717.518188 707.859741,717.122253 
	C707.926208,717.329651 707.738647,717.635437 707.288208,718.027222 
z"/>
<path fill="#8A6530" opacity="1.000000" stroke="none" 
	d="
M132.743515,114.100136 
	C132.901337,114.453308 132.683563,114.690842 132.124817,114.899559 
	C132.080597,114.668900 132.275284,114.373482 132.743515,114.100136 
z"/>
<path fill="#8A6530" opacity="1.000000" stroke="none" 
	d="
M708.287964,717.027466 
	C708.218994,716.816528 708.412781,716.519043 708.860474,716.122559 
	C708.926453,716.329346 708.738586,716.635071 708.287964,717.027466 
z"/>
<path fill="#8A6530" opacity="1.000000" stroke="none" 
	d="
M126.971863,716.287842 
	C127.182610,716.218750 127.480385,716.412231 127.877350,716.859497 
	C127.670647,716.925659 127.364769,716.738037 126.971863,716.287842 
z"/>
<path fill="#8A6530" opacity="1.000000" stroke="none" 
	d="
M709.287720,716.027832 
	C709.219177,715.817505 709.413208,715.519958 709.861084,715.122925 
	C709.926697,715.329163 709.738464,715.634888 709.287720,716.027832 
z"/>
<path fill="#8A6530" opacity="1.000000" stroke="none" 
	d="
M125.971779,715.287598 
	C126.182053,715.218933 126.479752,715.412720 126.877029,715.860352 
	C126.670815,715.926086 126.365013,715.738098 125.971779,715.287598 
z"/>
<path fill="#8A6530" opacity="1.000000" stroke="none" 
	d="
M710.287476,715.027954 
	C710.219238,714.817932 710.413513,714.520508 710.861572,714.123169 
	C710.926880,714.329041 710.738403,714.634705 710.287476,715.027954 
z"/>
<path fill="#8A6530" opacity="1.000000" stroke="none" 
	d="
M124.971771,714.287476 
	C125.181633,714.219177 125.479240,714.413269 125.876785,714.861023 
	C125.670990,714.926392 125.365265,714.738098 124.971771,714.287476 
z"/>
<path fill="#8A6530" opacity="1.000000" stroke="none" 
	d="
M711.287354,714.027954 
	C711.219360,713.818298 711.413757,713.520813 711.861938,713.123291 
	C711.927002,713.328979 711.738403,713.634583 711.287354,714.027954 
z"/>
<path fill="#8A6530" opacity="1.000000" stroke="none" 
	d="
M123.971817,713.287354 
	C124.181435,713.219299 124.478981,713.413635 124.876648,713.861572 
	C124.671089,713.926697 124.365410,713.738159 123.971817,713.287354 
z"/>
<path fill="#8A6530" opacity="1.000000" stroke="none" 
	d="
M712.287354,713.028076 
	C712.219421,712.818542 712.413818,712.520996 712.861816,712.123352 
	C712.926880,712.328857 712.738220,712.634521 712.287354,713.028076 
z"/>
<path fill="#8A6530" opacity="1.000000" stroke="none" 
	d="
M125.712585,120.972107 
	C125.780746,121.182022 125.586449,121.479485 125.138428,121.876801 
	C125.073181,121.670982 125.261658,121.365311 125.712585,120.972107 
z"/>
<path fill="#8A6530" opacity="1.000000" stroke="none" 
	d="
M715.027893,125.712585 
	C714.817993,125.780739 714.520508,125.586426 714.123169,125.138412 
	C714.328979,125.073181 714.634705,125.261642 715.027893,125.712585 
z"/>
<path fill="#8A6530" opacity="1.000000" stroke="none" 
	d="
M121.712585,124.971786 
	C121.780853,125.181648 121.586731,125.479271 121.138947,125.876808 
	C121.073593,125.670998 121.261894,125.365273 121.712585,124.971786 
z"/>
<path fill="#8A6530" opacity="1.000000" stroke="none" 
	d="
M714.027954,124.712708 
	C713.818359,124.780655 713.520874,124.586243 713.123352,124.138199 
	C713.328918,124.073174 713.634521,124.261765 714.027954,124.712708 
z"/>
<path fill="#8A6530" opacity="1.000000" stroke="none" 
	d="
M122.712692,123.971809 
	C122.780708,124.181435 122.586403,124.478996 122.138489,124.876663 
	C122.073364,124.671104 122.261856,124.365425 122.712692,123.971809 
z"/>
<path fill="#8A6530" opacity="1.000000" stroke="none" 
	d="
M713.028076,123.712753 
	C712.818542,123.780670 712.521057,123.586258 712.123413,123.138237 
	C712.328918,123.073219 712.634521,123.261818 713.028076,123.712753 
z"/>
<path fill="#8A6530" opacity="1.000000" stroke="none" 
	d="
M123.712730,122.971878 
	C123.780670,123.181442 123.586273,123.478951 123.138252,123.876610 
	C123.073219,123.671112 123.261810,123.365463 123.712730,122.971878 
z"/>
<path fill="#8A6530" opacity="1.000000" stroke="none" 
	d="
M712.028198,122.712692 
	C711.818542,122.780716 711.520935,122.586403 711.123291,122.138489 
	C711.328857,122.073380 711.634521,122.261871 712.028198,122.712692 
z"/>
<path fill="#8A6530" opacity="1.000000" stroke="none" 
	d="
M124.712692,121.971977 
	C124.780670,122.181633 124.586273,122.479111 124.138229,122.876656 
	C124.073151,122.671074 124.261734,122.365433 124.712692,121.971977 
z"/>
<path fill="#8A6530" opacity="1.000000" stroke="none" 
	d="
M711.028198,121.712616 
	C710.818359,121.780846 710.520813,121.586700 710.123230,121.138931 
	C710.328979,121.073616 710.634705,121.261925 711.028198,121.712616 
z"/>
<path fill="#8A6530" opacity="1.000000" stroke="none" 
	d="
M120.712387,125.971802 
	C120.781029,126.182037 120.587212,126.479744 120.139671,126.877045 
	C120.073944,126.670853 120.261932,126.365067 120.712387,125.971802 
z"/>
<path fill="#8A6530" opacity="1.000000" stroke="none" 
	d="
M710.028137,120.712395 
	C709.817932,120.781021 709.520264,120.587181 709.122925,120.139648 
	C709.329102,120.073936 709.634888,120.261932 710.028137,120.712395 
z"/>
<path fill="#8A6530" opacity="1.000000" stroke="none" 
	d="
M126.712395,119.972290 
	C126.780861,120.182617 126.586754,120.480072 126.138840,120.877029 
	C126.073296,120.670837 126.261559,120.365128 126.712395,119.972290 
z"/>
<path fill="#8A6530" opacity="1.000000" stroke="none" 
	d="
M709.028198,119.712128 
	C708.817444,119.781258 708.519653,119.587814 708.122681,119.140556 
	C708.329407,119.074348 708.635254,119.261955 709.028198,119.712128 
z"/>
<path fill="#8A6530" opacity="1.000000" stroke="none" 
	d="
M127.712143,118.972527 
	C127.781044,119.183403 127.587234,119.480865 127.139511,119.877357 
	C127.073547,119.670631 127.261482,119.364868 127.712143,118.972527 
z"/>
<path fill="#8A6530" opacity="1.000000" stroke="none" 
	d="
M708.027954,118.711884 
	C707.816589,118.781601 707.518799,118.588600 707.122253,118.141754 
	C707.329529,118.074989 707.635559,118.262077 708.027954,118.711884 
z"/>
<path fill="#8A6530" opacity="1.000000" stroke="none" 
	d="
M128.711853,117.972855 
	C128.781311,118.184410 128.587845,118.481857 128.140366,118.877762 
	C128.073883,118.670403 128.261429,118.364578 128.711853,117.972855 
z"/>
<path fill="#8A6530" opacity="1.000000" stroke="none" 
	d="
M707.027832,117.711502 
	C706.815674,117.781914 706.517761,117.589439 706.121826,117.143082 
	C706.329834,117.075661 706.635986,117.262138 707.027832,117.711502 
z"/>
<path fill="#8A6530" opacity="1.000000" stroke="none" 
	d="
M129.711487,116.973267 
	C129.781570,117.185638 129.588547,117.483047 129.141434,117.878250 
	C129.074356,117.670128 129.261368,117.364220 129.711487,116.973267 
z"/>
<path fill="#8A6530" opacity="1.000000" stroke="none" 
	d="
M720.026245,130.711060 
	C719.812866,130.781921 719.515564,130.589462 719.121216,130.142776 
	C719.330200,130.074936 719.636230,130.261322 720.026245,130.711060 
z"/>
<path fill="#8A6530" opacity="1.000000" stroke="none" 
	d="
M706.027466,116.711136 
	C705.814331,116.782417 705.516418,116.590614 705.121216,116.144760 
	C705.330261,116.076500 705.636475,116.262268 706.027466,116.711136 
z"/>
<path fill="#8A6530" opacity="1.000000" stroke="none" 
	d="
M704.026855,114.703926 
	C703.772095,114.929810 703.478943,114.791786 703.110535,114.335526 
	C703.303589,114.229675 703.621338,114.337257 704.026855,114.703926 
z"/>
<path fill="#8A6530" opacity="1.000000" stroke="none" 
	d="
M131.710541,114.974060 
	C131.782318,115.188324 131.590546,115.485741 131.144440,115.879364 
	C131.075745,115.669449 131.261383,115.363335 131.710541,114.974060 
z"/>
<path fill="#8A6530" opacity="1.000000" stroke="none" 
	d="
M705.027100,115.710648 
	C704.812988,115.782753 704.515015,115.591545 704.120728,115.146149 
	C704.330627,115.077095 704.636902,115.262215 705.027100,115.710648 
z"/>
<path fill="#8A6530" opacity="1.000000" stroke="none" 
	d="
M130.711044,115.973755 
	C130.781921,116.187065 130.589447,116.484413 130.142761,116.878784 
	C130.074951,116.669807 130.261322,116.363792 130.711044,115.973755 
z"/>
<path fill="#8A6530" opacity="1.000000" stroke="none" 
	d="
M721.899902,132.743530 
	C721.546692,132.901352 721.309143,132.683578 721.100403,132.124817 
	C721.331055,132.080597 721.626526,132.275299 721.899902,132.743530 
z"/>
<path fill="#8A6530" opacity="1.000000" stroke="none" 
	d="
M114.703888,131.973145 
	C114.929802,132.227829 114.791763,132.520996 114.335495,132.889526 
	C114.229645,132.696487 114.337196,132.378738 114.703888,131.973145 
z"/>
<path fill="#8A6530" opacity="1.000000" stroke="none" 
	d="
M721.026001,131.710571 
	C720.811707,131.782333 720.514282,131.590576 720.120605,131.144470 
	C720.330566,131.075775 720.636658,131.261414 721.026001,131.710571 
z"/>
<path fill="#8A6530" opacity="1.000000" stroke="none" 
	d="
M115.710663,130.972992 
	C115.782761,131.187103 115.591537,131.485046 115.146133,131.879333 
	C115.077080,131.669388 115.262215,131.363113 115.710663,130.972992 
z"/>
<path fill="#8A6530" opacity="1.000000" stroke="none" 
	d="
M114.100159,703.256592 
	C114.453331,703.098755 114.690865,703.316528 114.899551,703.875244 
	C114.668907,703.919495 114.373512,703.724792 114.100159,703.256592 
z"/>
<path fill="#8A6530" opacity="1.000000" stroke="none" 
	d="
M116.711105,129.972534 
	C116.782387,130.185638 116.590569,130.483582 116.144745,130.878769 
	C116.076500,130.669785 116.262260,130.363571 116.711105,129.972534 
z"/>
<path fill="#8A6530" opacity="1.000000" stroke="none" 
	d="
M719.026611,129.711548 
	C718.814270,129.781601 718.516907,129.588562 718.121704,129.141434 
	C718.329834,129.074371 718.635742,129.261398 719.026611,129.711548 
z"/>
<path fill="#8A6530" opacity="1.000000" stroke="none" 
	d="
M117.711517,128.972229 
	C117.781944,129.184387 117.589500,129.482285 117.143112,129.878204 
	C117.075661,129.670135 117.262146,129.364044 117.711517,128.972229 
z"/>
<path fill="#8A6530" opacity="1.000000" stroke="none" 
	d="
M718.027222,128.711838 
	C717.815674,128.781281 717.518250,128.587830 717.122253,128.140381 
	C717.329590,128.073898 717.635437,128.261429 718.027222,128.711838 
z"/>
<path fill="#8A6530" opacity="1.000000" stroke="none" 
	d="
M118.711868,127.972031 
	C118.781578,128.183411 118.588577,128.481247 118.141731,128.877731 
	C118.074974,128.670425 118.262070,128.364456 118.711868,127.972031 
z"/>
<path fill="#8A6530" opacity="1.000000" stroke="none" 
	d="
M717.027466,127.712158 
	C716.816589,127.781052 716.519104,127.587227 716.122620,127.139496 
	C716.329346,127.073547 716.635132,127.261490 717.027466,127.712158 
z"/>
<path fill="#8A6530" opacity="1.000000" stroke="none" 
	d="
M119.712158,126.971886 
	C119.781265,127.182632 119.587807,127.480408 119.140556,127.877350 
	C119.074371,127.670654 119.261986,127.364784 119.712158,126.971886 
z"/>
<path fill="#8A6530" opacity="1.000000" stroke="none" 
	d="
M716.027832,126.712372 
	C715.817505,126.780853 715.520020,126.586754 715.122986,126.138855 
	C715.329163,126.073296 715.634888,126.261543 716.027832,126.712372 
z"/>
<path fill="#FEFDFC" opacity="1.000000" stroke="none" 
	d="
M160.449478,577.525879 
	C152.558853,574.696655 150.807144,569.381897 150.830231,561.551880 
	C151.110291,466.561859 151.087250,371.570496 150.865906,276.580139 
	C150.848557,269.131439 152.810486,264.851044 159.679749,260.965515 
	C228.174484,222.222076 296.417847,183.034164 364.724762,143.958740 
	C381.307404,134.472519 397.901184,125.004280 414.393951,115.363762 
	C417.221893,113.710739 419.460785,113.739738 422.213409,115.317551 
	C474.221802,145.128891 526.254883,174.897232 578.299377,204.645554 
	C612.327576,224.095871 646.346069,243.563919 680.473145,262.839447 
	C684.466492,265.094910 685.945374,267.632965 685.939209,272.238373 
	C685.809143,370.228821 685.815125,468.219452 685.933899,566.209900 
	C685.938599,570.093506 684.634399,572.152954 681.370544,574.009155 
	C640.838257,597.060181 600.386536,620.252930 559.892212,643.370911 
	C516.190491,668.319946 472.358154,693.043823 428.857391,718.338135 
	C421.647705,722.530334 416.631317,722.888611 409.096313,718.576233 
	C335.439880,676.421997 261.480743,634.796692 187.613419,593.010864 
	C178.648605,587.939636 169.717285,582.809143 160.449478,577.525879 
M429.483246,400.497986 
	C503.340820,357.122711 577.198425,313.747406 652.016479,269.808044 
	C576.664246,226.742401 502.787201,184.519836 428.371155,141.989212 
	C428.169189,143.977661 428.043945,144.634384 428.044037,145.291092 
	C428.059021,230.450165 428.083160,315.609253 428.033936,401.736603 
	C428.044952,412.872131 428.055969,424.007660 428.039459,436.062134 
	C428.039459,522.132935 428.039459,608.203735 428.039459,695.329346 
	C503.581146,652.195496 578.300171,609.531372 653.547363,566.565735 
	C651.514465,565.243713 650.172058,564.291077 648.757019,563.462341 
	C611.204407,541.469116 573.644897,519.487732 536.085388,497.506256 
	C500.399109,476.621033 464.711548,455.737946 429.008575,433.936798 
	C428.999115,422.941071 428.989655,411.945312 429.483246,400.497986 
M170.984055,303.500763 
	C170.984055,386.042603 170.984055,468.584442 170.984055,552.137085 
	C247.569656,507.158478 323.313324,462.674347 399.731049,417.794342 
	C323.093689,372.895752 247.363907,328.528839 170.984055,283.781128 
	C170.984055,290.848877 170.984055,296.675079 170.984055,303.500763 
M659.023743,287.397156 
	C627.911255,305.666046 596.792542,323.924347 565.687805,342.206360 
	C525.314819,365.935913 484.951477,389.681702 444.591003,413.432434 
	C442.553833,414.631195 440.582977,415.942566 437.482574,417.892487 
	C514.133057,462.804199 589.766174,507.119781 666.065918,551.825989 
	C666.065918,461.766296 666.065918,373.066620 666.065918,283.495117 
	C663.564941,284.936371 661.648315,286.040894 659.023743,287.397156 
M229.870880,593.671509 
	C289.385071,627.365173 348.899231,661.058777 408.706726,694.918518 
	C408.706726,607.877258 408.706726,521.689880 408.706726,434.804199 
	C333.414825,479.031891 258.646637,522.951904 183.254105,567.238708 
	C199.250427,576.288330 214.253555,584.776062 229.870880,593.671509 
M408.997986,290.500000 
	C408.997986,241.277054 408.997986,192.054092 408.997986,141.716217 
	C334.119202,184.562180 260.166534,226.878204 185.222107,269.761719 
	C260.012146,313.586975 334.039246,356.965118 408.997986,400.889252 
	C408.997986,363.656982 408.997986,327.578491 408.997986,290.500000 
z"/>
<path fill="#8D8E3D" opacity="1.000000" stroke="none" 
	d="
M170.984055,303.001038 
	C170.984055,296.675079 170.984055,290.848877 170.984055,283.781128 
	C247.363907,328.528839 323.093689,372.895752 399.731049,417.794342 
	C323.313324,462.674347 247.569656,507.158478 170.984055,552.137085 
	C170.984055,468.584442 170.984055,386.042603 170.984055,303.001038 
z"/>
<path fill="#8D8E3D" opacity="1.000000" stroke="none" 
	d="
M659.377686,287.271301 
	C661.648315,286.040894 663.564941,284.936371 666.065918,283.495117 
	C666.065918,373.066620 666.065918,461.766296 666.065918,551.825989 
	C589.766174,507.119781 514.133057,462.804199 437.482574,417.892487 
	C440.582977,415.942566 442.553833,414.631195 444.591003,413.432434 
	C484.951477,389.681702 525.314819,365.935913 565.687805,342.206360 
	C596.792542,323.924347 627.911255,305.666046 659.377686,287.271301 
z"/>
<path fill="#8D8E3D" opacity="1.000000" stroke="none" 
	d="
M429.024536,434.853943 
	C464.711548,455.737946 500.399109,476.621033 536.085388,497.506256 
	C573.644897,519.487732 611.204407,541.469116 648.757019,563.462341 
	C650.172058,564.291077 651.514465,565.243713 653.547363,566.565735 
	C578.300171,609.531372 503.581146,652.195496 428.039459,695.329346 
	C428.039459,608.203735 428.039459,522.132935 428.294922,435.537964 
	C428.708466,434.960510 428.866516,434.907227 429.024536,434.853943 
z"/>
<path fill="#8D8E3D" opacity="1.000000" stroke="none" 
	d="
M229.563782,593.467651 
	C214.253555,584.776062 199.250427,576.288330 183.254105,567.238708 
	C258.646637,522.951904 333.414825,479.031891 408.706726,434.804199 
	C408.706726,521.689880 408.706726,607.877258 408.706726,694.918518 
	C348.899231,661.058777 289.385071,627.365173 229.563782,593.467651 
z"/>
<path fill="#8D8E3D" opacity="1.000000" stroke="none" 
	d="
M428.106873,400.768311 
	C428.083160,315.609253 428.059021,230.450165 428.044037,145.291092 
	C428.043945,144.634384 428.169189,143.977661 428.371155,141.989212 
	C502.787201,184.519836 576.664246,226.742401 652.016479,269.808044 
	C577.198425,313.747406 503.340820,357.122711 429.015076,400.670227 
	C428.546936,400.842499 428.106903,400.768311 428.106873,400.768311 
z"/>
<path fill="#8D8E3D" opacity="1.000000" stroke="none" 
	d="
M408.997986,291.000000 
	C408.997986,327.578491 408.997986,363.656982 408.997986,400.889252 
	C334.039246,356.965118 260.012146,313.586975 185.222107,269.761719 
	C260.166534,226.878204 334.119202,184.562180 408.997986,141.716217 
	C408.997986,192.054092 408.997986,241.277054 408.997986,291.000000 
z"/>
<path fill="#EFEAEB" opacity="1.000000" stroke="none" 
	d="
M428.070435,401.252441 
	C428.106903,400.768311 428.546936,400.842499 428.763550,400.896057 
	C428.989655,411.945312 428.999115,422.941071 429.016541,434.395386 
	C428.866516,434.907227 428.708466,434.960510 428.308655,435.078491 
	C428.055969,424.007660 428.044952,412.872131 428.070435,401.252441 
z"/>
</svg>